<svg width="97" height="96" viewBox="0 0 97 96" fill="none" xmlns="http://www.w3.org/2000/svg">
<g clip-path="url(#clip0_38_69)">
<g clip-path="url(#clip1_38_69)">
<g clip-path="url(#clip2_38_69)">
<path fill-rule="evenodd" clip-rule="evenodd" d="M37.1335 32.485C37.1335 26.594 41.9091 21.8184 47.8 21.8184C53.6911 21.8184 58.4667 26.594 58.4667 32.485C58.4667 38.376 53.6911 43.1517 47.8 43.1517C41.9091 43.1517 37.1335 38.376 37.1335 32.485ZM31.1564 53.4364C34.9829 48.3724 41.0099 45.0909 47.8 45.0909C54.59 45.0909 60.6173 48.3724 64.4437 53.4364L64.4957 53.5053C64.8247 53.9404 65.1775 54.4069 65.4295 54.857C65.7347 55.4018 65.961 56.0319 65.9468 56.7984C65.9357 57.4143 65.7489 57.9912 65.5222 58.4465C65.2955 58.9019 64.948 59.3984 64.4632 59.7787C63.8169 60.286 63.1131 60.4656 62.4878 60.5406C61.9392 60.6065 61.2893 60.6063 60.6356 60.6061H60.5472H35.0529H34.9646C34.3109 60.6063 33.6609 60.6065 33.1124 60.5406C32.4871 60.4656 31.7832 60.286 31.137 59.7787C30.6522 59.3984 30.3046 58.9019 30.0779 58.4465C29.8512 57.9912 29.6645 57.4143 29.6533 56.7984C29.6392 56.0319 29.8654 55.4018 30.1707 54.857C30.4227 54.4071 30.7755 53.9406 31.1043 53.5056L31.1564 53.4364ZM8.0413 46.0608C8.0413 40.1698 12.8169 35.3942 18.708 35.3942C24.5989 35.3942 29.3745 40.1698 29.3745 46.0608C29.3745 51.9519 24.5989 56.7275 18.708 56.7275C12.8169 56.7275 8.0413 51.9519 8.0413 46.0608ZM2.06438 67.0123C5.89073 61.9483 11.9179 58.6669 18.708 58.6669C25.4981 58.6669 31.5251 61.9483 35.3516 67.0123L35.4035 67.0813C35.7325 67.5163 36.0854 67.9828 36.3376 68.4329C36.6426 68.9775 36.8688 69.6078 36.8547 70.3741C36.8435 70.9902 36.6568 71.5669 36.4301 72.0222C36.2034 72.4778 35.8558 72.9744 35.3712 73.3547C34.7248 73.8619 34.0209 74.0415 33.3956 74.1165C32.8471 74.1822 32.1971 74.1822 31.5435 74.182H31.4551H5.96079H5.87242C5.21886 74.1822 4.56881 74.1822 4.02026 74.1165C3.39501 74.0415 2.6912 73.8619 2.04475 73.3547C1.56002 72.9744 1.21242 72.4778 0.985757 72.0222C0.759088 71.5669 0.572431 70.9902 0.561164 70.3741C0.547148 69.6078 0.773297 68.9775 1.07843 68.4329C1.33053 67.9828 1.68329 67.5163 2.01228 67.0813L2.06438 67.0123ZM76.8899 35.3942C70.999 35.3942 66.2232 40.1698 66.2232 46.0608C66.2232 51.9519 70.999 56.7275 76.8899 56.7275C82.7811 56.7275 87.5566 51.9519 87.5566 46.0608C87.5566 40.1698 82.7811 35.3942 76.8899 35.3942ZM76.8899 58.6669C70.0999 58.6669 64.0728 61.9483 60.2464 67.0123L60.1942 67.0813C59.8652 67.5163 59.5126 67.9828 59.2604 68.4329C58.9554 68.9775 58.7291 69.6078 58.7431 70.3741C58.7544 70.9902 58.9412 71.5669 59.1677 72.0222C59.3944 72.4778 59.7419 72.9744 60.2267 73.3547C60.8732 73.8619 61.5771 74.0415 62.2024 74.1165C62.7509 74.1822 63.4008 74.1822 64.0545 74.182H64.1429H89.6372H89.7256C90.379 74.1822 91.0292 74.1822 91.5777 74.1165C92.2028 74.0415 92.9067 73.8619 93.5531 73.3547C94.0379 72.9744 94.3855 72.4778 94.6122 72.0222C94.8389 71.5669 95.0254 70.9902 95.0368 70.3741C95.0507 69.6078 94.8247 68.9775 94.5195 68.4329C94.2675 67.983 93.9149 67.5165 93.5861 67.0817L93.5335 67.0123C89.7072 61.9483 83.68 58.6669 76.8899 58.6669Z" fill="url(#paint0_linear_38_69)"/>
</g>
</g>
</g>
<defs>
<linearGradient id="paint0_linear_38_69" x1="35.476" y1="21.8184" x2="72.2787" y2="112.349" gradientUnits="userSpaceOnUse">
<stop stop-color="#471445"/>
<stop offset="1" stop-color="#471445" stop-opacity="0.29"/>
</linearGradient>
<clipPath id="clip0_38_69">
<rect x="0.560547" width="96" height="96" rx="48" fill="white"/>
</clipPath>
<clipPath id="clip1_38_69">
<rect width="96" height="96" fill="white" transform="translate(0.560547)"/>
</clipPath>
<clipPath id="clip2_38_69">
<rect width="96" height="52.3636" fill="white" transform="translate(0.560547 21.8184)"/>
</clipPath>
</defs>
</svg>
