<svg width="160" height="160" viewBox="0 0 160 160" fill="none" xmlns="http://www.w3.org/2000/svg">
<path d="M72.1887 101.72C71.4591 101.523 70.7736 101.22 70.1333 100.816L71.46 99.0083C71.8479 99.2858 72.3163 99.5027 72.8655 99.6592C73.4117 99.8147 73.884 99.8925 74.2815 99.8925C74.6597 99.8925 74.9535 99.8407 75.1599 99.7351C75.3663 99.6295 75.4709 99.4922 75.4709 99.3242C75.4709 99.1898 75.42 99.0832 75.3192 99.0083C75.2175 98.9325 75.0773 98.8941 74.9007 98.8941C74.7912 98.8941 74.6674 98.8979 74.5291 98.9075C74.389 98.9152 74.2786 98.9239 74.1931 98.9325C73.7544 98.9824 73.3042 99.0083 72.8395 99.0083C72.0907 99.0083 71.4811 98.8672 71.0127 98.584C70.5451 98.3018 70.3099 97.84 70.3099 97.1987C70.3099 96.4576 70.6603 95.8816 71.3602 95.4717C72.06 95.0637 73.0882 94.8602 74.4456 94.8602C75.1119 94.8602 75.7839 94.9533 76.4635 95.1443C77.1423 95.3334 77.7423 95.6186 78.2664 95.9978L76.812 97.4646C76.3311 97.2122 75.8827 97.0326 75.4651 96.927C75.0475 96.8224 74.628 96.7696 74.2066 96.7696C73.9109 96.7696 73.6584 96.8282 73.4482 96.9453C73.237 97.0643 73.1323 97.1987 73.1323 97.3504C73.1323 97.4694 73.1765 97.5606 73.2639 97.6288C73.3531 97.696 73.4683 97.7286 73.6123 97.7286C73.7544 97.7286 73.9541 97.7162 74.2066 97.6912C74.8229 97.649 75.2818 97.6288 75.5851 97.6288C76.4626 97.6288 77.1413 97.7757 77.6213 98.0714C78.1023 98.3661 78.3413 98.8163 78.3413 99.424C78.3413 100.333 77.988 100.994 77.2795 101.403C76.5711 101.811 75.5928 102.016 74.3448 102.016C73.6373 102.016 72.9183 101.917 72.1887 101.719V101.72Z" fill="#854B9B"/>
<path d="M84.7022 97.2496C83.9256 97.1987 83.2181 97.1613 82.5778 97.1363L82.5643 98.4765C82.5643 98.9315 82.6632 99.2886 82.8609 99.5449C83.0597 99.8022 83.412 99.9318 83.9169 99.9318C84.1109 99.9318 84.2971 99.9145 84.4728 99.8809C84.4392 100.193 84.4219 100.509 84.4219 100.828C84.4219 100.98 84.4315 101.326 84.4488 101.866C84.0773 101.934 83.7643 101.976 83.5118 101.993C83.2593 102.009 82.9301 102.018 82.5269 102.018C81.54 102.018 80.843 101.78 80.4331 101.304C80.0241 100.828 79.8197 100.164 79.8197 99.3117L79.8321 97.1747C79.4357 97.192 79.0229 97.2169 78.5938 97.2505V95.0118C79.0325 95.0118 79.403 94.8736 79.7054 94.5942C80.0097 94.3158 80.1912 93.9837 80.2498 93.5958H83.6894C83.2603 94.1853 82.7841 94.6585 82.2619 95.0118H84.7022V97.2505V97.2496Z" fill="#854B9B"/>
<path d="M93.15 98.4256C93.15 99.6659 93.1788 100.82 93.2374 101.891C92.6988 101.865 92.2716 101.854 91.9606 101.854C91.6659 101.854 91.2406 101.865 90.6828 101.891L90.3161 100.033C90.1232 100.708 89.8188 101.206 89.407 101.531C88.9923 101.855 88.5123 102.018 87.9641 102.018C87.4592 102.018 87.0204 101.906 86.648 101.682C86.2774 101.459 85.9971 101.158 85.808 100.778C85.6188 100.399 85.5238 99.9722 85.5238 99.4998V97.6787C85.5238 96.5584 85.5008 95.6598 85.4595 94.985H88.3049C88.254 96.2253 88.2291 97.4522 88.2291 98.6666C88.2291 99.0371 88.3193 99.3318 88.5008 99.5507C88.6822 99.7706 88.9126 99.88 89.19 99.88C89.4512 99.88 89.6806 99.7638 89.8793 99.5315C90.0771 99.2992 90.198 98.9805 90.2393 98.5773V98.2864C90.2566 97.6278 90.2643 97.1728 90.2643 96.9194C90.2643 96.3376 90.248 95.6925 90.2134 94.985H93.2355C93.1769 96.0477 93.1481 97.1949 93.1481 98.4246L93.15 98.4256Z" fill="#854B9B"/>
<path d="M99.3344 99.545C99.5956 99.3126 99.7261 98.944 99.7261 98.4381C99.7261 97.9917 99.5956 97.6624 99.3344 97.4512C99.0733 97.2419 98.744 97.1354 98.3476 97.1354C97.9693 97.1354 97.6506 97.2554 97.3933 97.4954C97.136 97.7363 97.0084 98.0502 97.0084 98.4381C97.0084 98.8672 97.1274 99.2176 97.3626 99.4874C97.5968 99.7571 97.9184 99.8925 98.3226 99.8925C98.7364 99.8925 99.0733 99.7773 99.3344 99.545ZM102.447 96.9712C102.447 98.6656 102.471 100.306 102.522 101.89H99.6647L99.7021 100.372C99.4583 100.938 99.1031 101.353 98.6394 101.62C98.1767 101.884 97.6285 102.017 96.9959 102.017C96.4477 102.017 95.9543 101.862 95.5156 101.549C95.0778 101.238 94.737 100.815 94.4912 100.278C94.2474 99.7437 94.1245 99.1562 94.1245 98.5149C94.1245 97.8832 94.2474 97.287 94.4912 96.7254C94.737 96.1638 95.0797 95.7136 95.5223 95.3728C95.9648 95.031 96.4688 94.8611 97.0343 94.8611C97.6919 94.8611 98.2544 94.9984 98.722 95.272C99.1895 95.5466 99.538 95.969 99.7655 96.543C99.7655 96.063 99.7482 95.2912 99.7146 94.2285C99.68 93.2013 99.6637 92.4765 99.6637 92.0541H102.521C102.47 93.6218 102.446 95.2614 102.446 96.9741L102.447 96.9712Z" fill="#854B9B"/>
<path d="M103.761 101.891C103.82 100.534 103.849 99.4125 103.849 98.5273C103.849 97.4742 103.816 96.2944 103.75 94.9859H106.784C106.717 96.2425 106.682 97.4233 106.682 98.5273C106.682 99.4557 106.712 100.577 106.772 101.891H103.761Z" fill="#854B9B"/>
<path d="M117.446 101.72C116.716 101.523 116.031 101.22 115.392 100.816L116.718 99.0083C117.106 99.2858 117.575 99.5027 118.124 99.6592C118.671 99.8147 119.142 99.8925 119.54 99.8925C119.918 99.8925 120.212 99.8407 120.418 99.7351C120.625 99.6295 120.727 99.4922 120.727 99.3242C120.727 99.1898 120.677 99.0832 120.577 99.0083C120.475 98.9325 120.336 98.8941 120.158 98.8941C120.049 98.8941 119.925 98.8979 119.786 98.9075C119.645 98.9152 119.535 98.9239 119.45 98.9325C119.011 98.9824 118.561 99.0083 118.098 99.0083C117.347 99.0083 116.738 98.8672 116.27 98.584C115.802 98.3018 115.567 97.84 115.567 97.1987C115.567 96.4576 115.918 95.8816 116.618 95.4717C117.317 95.0637 118.346 94.8602 119.703 94.8602C120.369 94.8602 121.041 94.9533 121.72 95.1443C122.399 95.3334 122.999 95.6186 123.523 95.9978L122.068 97.4646C121.586 97.2122 121.139 97.0326 120.722 96.927C120.304 96.8224 119.884 96.7696 119.463 96.7696C119.166 96.7696 118.915 96.8282 118.704 96.9453C118.493 97.0643 118.388 97.1987 118.388 97.3504C118.388 97.4694 118.432 97.5606 118.519 97.6288C118.609 97.696 118.724 97.7286 118.868 97.7286C119.011 97.7286 119.21 97.7162 119.463 97.6912C120.078 97.649 120.537 97.6288 120.842 97.6288C121.719 97.6288 122.398 97.7757 122.878 98.0714C123.36 98.3661 123.598 98.8163 123.598 99.424C123.598 100.333 123.244 100.994 122.536 101.403C121.826 101.811 120.849 102.016 119.601 102.016C118.894 102.016 118.175 101.917 117.445 101.719L117.446 101.72Z" fill="#854B9B"/>
<path d="M71.9552 91.9408V89.0147L69.3027 85.0048H70.9059L72.6128 87.784H72.6339L74.3629 85.0048H75.9325L73.3127 88.9821V91.9408H71.9552Z" fill="#854B9B"/>
<path d="M81.1494 85.0048H82.4742V89.1837C82.4742 89.6291 82.4118 90.0304 82.2841 90.3875C82.1574 90.7437 81.9693 91.047 81.7225 91.2995C81.4749 91.5501 81.1705 91.7421 80.8086 91.8774C80.4486 92.0118 80.0349 92.0781 79.5683 92.0781C79.095 92.0781 78.6736 92.0118 78.3059 91.8774C77.9392 91.7421 77.631 91.5501 77.3833 91.2995C77.1366 91.047 76.9475 90.7437 76.8169 90.3875C76.6864 90.0304 76.6211 89.6291 76.6211 89.1837V85.0048H77.9785V89.1837C77.9785 89.7002 78.1091 90.1024 78.3702 90.3933C78.6313 90.6832 79.0278 90.8272 79.5577 90.8272C80.0953 90.8272 80.4937 90.6832 80.7568 90.3933C81.0179 90.1024 81.1485 89.7002 81.1485 89.1837V85.0048H81.1494Z" fill="#854B9B"/>
<path d="M89.0501 87.2109C88.8658 86.871 88.6008 86.6051 88.2552 86.415C87.9087 86.224 87.5122 86.1299 87.0677 86.1299C86.7211 86.1299 86.4063 86.1885 86.124 86.3046C85.8418 86.4208 85.5989 86.583 85.3973 86.7923C85.1957 87.0006 85.0383 87.2483 84.925 87.5334C84.8117 87.8205 84.756 88.1334 84.756 88.4723C84.756 88.8122 84.8117 89.1261 84.925 89.4112C85.0383 89.6973 85.1957 89.9469 85.3973 90.159C85.5979 90.3712 85.8408 90.5344 86.124 90.6525C86.4063 90.7686 86.7211 90.8272 87.0677 90.8272C87.6187 90.8272 88.0834 90.7034 88.4626 90.4566C88.8399 90.209 89.1106 89.8595 89.2728 89.4064V89.3853H86.6434V88.1776H90.7464V88.8246C90.7051 89.2979 90.5861 89.7347 90.3922 90.1341C90.1973 90.5344 89.9371 90.8771 89.6136 91.1632C89.2872 91.4493 88.9099 91.6739 88.4779 91.8362C88.0469 91.9984 87.5765 92.08 87.0687 92.08C86.5234 92.08 86.0271 91.9898 85.5778 91.8093C85.1285 91.6288 84.7407 91.3782 84.4114 91.0557C84.0831 90.7341 83.8287 90.3549 83.6491 89.9162C83.4677 89.4784 83.3784 88.9974 83.3784 88.4733C83.3784 87.9587 83.4677 87.4787 83.6491 87.0362C83.8287 86.5946 84.084 86.2134 84.4114 85.8918C84.7407 85.5693 85.1285 85.3187 85.5778 85.1382C86.0271 84.9587 86.5234 84.8675 87.0687 84.8675C87.493 84.8675 87.8904 84.9251 88.261 85.0365C88.6325 85.1498 88.9685 85.3101 89.269 85.5136C89.5685 85.719 89.8287 85.9638 90.0485 86.2509C90.2674 86.537 90.4363 86.8576 90.5573 87.2109H89.052H89.0501Z" fill="#854B9B"/>
<path d="M96.2933 87.88C96.2933 87.3213 96.1531 86.8902 95.8747 86.5869C95.5944 86.2826 95.1691 86.1309 94.5969 86.1309C94.0238 86.1309 93.5995 86.2826 93.324 86.5869C93.0485 86.8912 92.9112 87.3213 92.9112 87.88V88.6317H96.2942V87.88H96.2933ZM96.2933 91.9408V89.8624H92.9102V91.9408H91.5845V87.88C91.5845 87.4134 91.6498 86.9949 91.7803 86.6224C91.9109 86.2518 92.1029 85.937 92.3573 85.6787C92.6117 85.4214 92.9275 85.2218 93.3067 85.0797C93.6849 84.9386 94.1169 84.8675 94.6056 84.8675C95.0933 84.8675 95.5272 84.9386 95.9054 85.0797C96.2827 85.2208 96.6014 85.4214 96.8597 85.6787C97.1169 85.9379 97.3128 86.2518 97.4481 86.6224C97.5835 86.9939 97.6498 87.4134 97.6498 87.88V91.9408H96.2923H96.2933Z" fill="#854B9B"/>
<path fill-rule="evenodd" clip-rule="evenodd" d="M104.128 91.5165C103.538 92.1059 103.538 93.0611 104.128 93.6496C104.717 94.239 105.671 94.239 106.261 93.6496C106.847 93.063 106.847 92.103 106.261 91.5165C105.674 90.9318 104.714 90.9318 104.128 91.5165Z" fill="#854B9B"/>
<path fill-rule="evenodd" clip-rule="evenodd" d="M38.724 60.04C35.6213 63.1408 35.6213 68.225 38.724 71.3296L47.4216 80.0253L38.724 88.7219C35.6213 91.8256 35.6213 96.9107 38.724 100.012C41.8267 103.115 46.9109 103.115 50.0136 100.012L60.9039 89.1232C65.9055 84.1206 65.9055 75.929 60.9039 70.9274L50.0136 60.039C48.4632 58.4867 46.4165 57.711 44.3698 57.711C42.3231 57.711 40.2763 58.4877 38.724 60.039V60.04Z" fill="url(#paint0_linear_64_9922)"/>
<path fill-rule="evenodd" clip-rule="evenodd" d="M48.0581 58.6057V62.0406C48.0581 72.4019 50.9275 80.3872 56.6674 85.9984C57.9317 87.2329 59.2863 88.3331 60.7301 89.2969L60.9048 89.1232C65.9064 84.1206 65.9064 75.9289 60.9048 70.9273L50.0146 60.039C49.4251 59.4486 48.7637 58.9705 48.0591 58.6057H48.0581Z" fill="url(#paint1_linear_64_9922)"/>
<path fill-rule="evenodd" clip-rule="evenodd" d="M38.724 88.7219C35.6213 91.8256 35.6213 96.9107 38.724 100.012C41.6645 102.952 46.381 103.108 49.5067 100.478C49.5759 94.1862 48.2587 87.7763 45.8981 81.5488L38.7231 88.7219H38.724Z" fill="url(#paint2_linear_64_9922)"/>
<path fill-rule="evenodd" clip-rule="evenodd" d="M38.725 60.0381C35.6223 63.1408 35.6223 68.225 38.725 71.3277L47.4216 80.0253L38.725 88.7219C35.6223 91.8256 35.6223 96.9088 38.725 100.012C41.8277 103.115 46.9119 103.115 50.0136 100.012L60.9029 89.1222C65.9055 84.1206 65.9055 75.9299 60.9029 70.9274L50.0136 60.0381C48.4632 58.4857 46.4165 57.711 44.3698 57.711C42.3231 57.711 40.2763 58.4857 38.725 60.0381Z" fill="#902E5B"/>
<path fill-rule="evenodd" clip-rule="evenodd" d="M48.0581 62.0406C48.0581 72.4019 50.9275 80.3882 56.6674 85.9984C57.9298 87.2339 59.2843 88.3331 60.7301 89.297L60.9029 89.1242C65.9045 84.1226 65.9045 75.9309 60.9029 70.9293L50.0136 60.04C49.4242 59.4506 48.7627 58.9725 48.0581 58.6067V62.0416V62.0406Z" fill="#EE3C6F"/>
<path fill-rule="evenodd" clip-rule="evenodd" d="M38.725 88.7229C35.6223 91.8256 35.6223 96.9097 38.725 100.012C41.6645 102.952 46.381 103.107 49.5077 100.477C49.5768 94.1853 48.2597 87.7763 45.9 81.5478L38.725 88.7229Z" fill="#634B9C"/>
<path fill-rule="evenodd" clip-rule="evenodd" d="M69.6147 57.6563C74.024 57.6563 77.599 61.2314 77.599 65.6406C77.599 70.0509 74.024 73.6259 69.6147 73.6259C65.2054 73.6259 61.6304 70.0509 61.6304 65.6406C61.6304 61.2314 65.2054 57.6563 69.6147 57.6563Z" fill="#F16439"/>
<path fill-rule="evenodd" clip-rule="evenodd" d="M69.6147 57.6563C74.024 57.6563 77.599 61.2314 77.599 65.6406C77.599 70.0509 74.024 73.6259 69.6147 73.6259C65.2054 73.6259 61.6304 70.0509 61.6304 65.6406C61.6304 61.2314 65.2054 57.6563 69.6147 57.6563Z" fill="#EB5D40"/>
<path fill-rule="evenodd" clip-rule="evenodd" d="M63.9722 59.9853C66.0304 61.1306 68.2106 61.9034 70.5165 62.1357C72.7562 62.4746 74.8979 62.5639 76.936 62.4314C76.551 61.5424 75.9952 60.7101 75.2704 59.9862C73.7171 58.433 71.6694 57.6573 69.6208 57.6573C67.5731 57.6573 65.5245 58.433 63.9712 59.9853H63.9722Z" fill="#595CA7"/>
<path fill-rule="evenodd" clip-rule="evenodd" d="M63.971 71.2845C67.091 74.4045 72.1492 74.4045 75.2711 71.2845C76.1428 70.4128 76.7697 69.3846 77.1518 68.2873C72.2875 65.8902 67.2052 64.2544 62.0011 63.2243C61.1332 65.9747 61.7889 69.1033 63.971 71.2845Z" fill="#FAB581"/>
<path fill-rule="evenodd" clip-rule="evenodd" d="M109.501 96.6525C109.106 96.6525 108.788 96.9722 108.788 97.3658C108.788 97.7603 109.106 98.079 109.501 98.079C109.896 98.079 110.214 97.7603 110.214 97.3658C110.214 96.9722 109.896 96.6525 109.501 96.6525ZM109.501 98.6378C109.106 98.6378 108.788 98.9574 108.788 99.352C108.788 99.7456 109.106 100.065 109.501 100.065C109.896 100.065 110.214 99.7456 110.214 99.352C110.214 98.9574 109.896 98.6378 109.501 98.6378ZM111.221 99.6314C110.827 99.6314 110.508 99.951 110.508 100.345C110.508 100.739 110.827 101.058 111.221 101.058C111.615 101.058 111.935 100.739 111.935 100.345C111.935 99.951 111.615 99.6314 111.221 99.6314ZM111.221 95.6589C110.827 95.6589 110.508 95.9786 110.508 96.3722C110.508 96.7667 110.827 97.0854 111.221 97.0854C111.615 97.0854 111.935 96.7667 111.935 96.3722C111.935 95.9786 111.615 95.6589 111.221 95.6589ZM112.942 96.6525C112.547 96.6525 112.228 96.9722 112.228 97.3658C112.228 97.7603 112.547 98.079 112.942 98.079C113.334 98.079 113.655 97.7603 113.655 97.3658C113.655 96.9722 113.335 96.6525 112.942 96.6525ZM109.438 101.447C107.733 100.463 107.148 98.2816 108.132 96.5747C109.117 94.8698 111.298 94.2851 113.004 95.2691C114.711 96.2541 115.295 98.4362 114.311 100.141C113.326 101.848 111.144 102.432 109.438 101.446V101.447ZM112.942 98.6378C112.547 98.6378 112.228 98.9574 112.228 99.352C112.228 99.7456 112.547 100.065 112.942 100.065C113.334 100.065 113.655 99.7456 113.655 99.352C113.655 98.9574 113.335 98.6378 112.942 98.6378Z" fill="#854B9B"/>
<defs>
<linearGradient id="paint0_linear_64_9922" x1="37.7957" y1="80.0253" x2="62.4015" y2="80.0253" gradientUnits="userSpaceOnUse">
<stop stop-color="#B1306F"/>
<stop offset="1" stop-color="#6D2847"/>
</linearGradient>
<linearGradient id="paint1_linear_64_9922" x1="48.0581" y1="73.9513" x2="82.9378" y2="73.9513" gradientUnits="userSpaceOnUse">
<stop stop-color="#EE4274"/>
<stop offset="1" stop-color="#6D2847"/>
</linearGradient>
<linearGradient id="paint2_linear_64_9922" x1="9.79538" y1="65.3075" x2="50.9419" y2="98.3613" gradientUnits="userSpaceOnUse">
<stop stop-color="#A161A6"/>
<stop offset="1" stop-color="#464197"/>
</linearGradient>
</defs>
</svg>
