<svg width="160" height="160" viewBox="0 0 160 160" fill="none" xmlns="http://www.w3.org/2000/svg">
<path d="M123.229 78.0816C123.188 78.0249 123.179 77.9481 123.212 77.8838C123.243 77.8214 123.305 77.7801 123.374 77.7801C124.776 77.783 126.013 78.1152 127.16 78.7948C128.597 79.6483 129.662 80.8905 130.325 82.4889C130.343 82.536 130.343 82.5878 130.326 82.6329C130.307 82.68 130.271 82.7164 130.226 82.7356L129.61 82.9996C129.586 83.0092 129.562 83.014 129.538 83.014C129.477 83.014 129.418 82.9804 129.384 82.9238L129.371 82.9065C129.354 82.8796 129.331 82.8441 129.311 82.8C128.306 80.6092 126.617 79.3065 124.291 78.9283L124.278 78.9254C123.929 78.8697 123.535 78.8044 123.393 78.2937C123.387 78.2755 123.348 78.2294 123.318 78.1939C123.288 78.1593 123.257 78.1228 123.227 78.0816H123.229Z" stroke="#F68B40" stroke-width="0.288" stroke-miterlimit="10"/>
<path d="M119.241 80.0323C119.327 79.9814 119.474 79.9497 119.594 79.9987C119.755 80.0649 119.906 80.1494 120.053 80.231L120.071 80.2416C120.15 80.2857 120.194 80.3625 120.221 80.4192C120.277 80.5353 120.33 80.6524 120.386 80.7782L120.45 80.9164C120.474 80.9712 120.471 81.0336 120.445 81.0854C120.486 81.0652 120.535 81.0624 120.581 81.0787C120.64 81.0998 120.701 81.1209 120.76 81.143C120.933 81.2044 121.113 81.2668 121.288 81.3379C121.385 81.3763 121.477 81.4723 121.514 81.5779C121.62 81.8716 121.574 82.174 121.39 82.4064C121.194 82.654 120.876 82.7798 120.526 82.751C120.536 83.086 120.445 83.375 120.268 83.5699C120.113 83.7388 119.903 83.83 119.663 83.83H119.657C119.412 83.8291 119.2 83.734 119.043 83.5564C118.871 83.3616 118.786 83.0822 118.797 82.7635C118.365 82.7875 118.064 82.6396 117.876 82.3152C117.697 82.006 117.71 81.6681 117.913 81.3638C118.15 81.0096 118.497 80.9596 118.791 80.9731C118.77 80.5305 118.918 80.2214 119.24 80.0313L119.241 80.0323Z" stroke="#F68B40" stroke-width="0.288" stroke-miterlimit="10"/>
<path d="M119.038 81.2294C119.032 81.2457 119.025 81.2601 119.015 81.2745C118.737 81.6816 118.737 82.0588 119.017 82.4601C119.028 82.4774 119.038 82.4956 119.044 82.5148C119.06 82.5216 119.075 82.5292 119.091 82.5398C119.483 82.8201 119.848 82.8182 120.234 82.5331C120.251 82.5196 120.272 82.51 120.292 82.5052C120.298 82.4841 120.306 82.464 120.319 82.4467C120.575 82.0761 120.59 81.719 120.367 81.3561C120.33 81.2976 120.329 81.2256 120.36 81.167C120.306 81.192 120.243 81.19 120.191 81.1564C119.801 80.9184 119.453 80.9328 119.09 81.2035C119.074 81.215 119.056 81.2246 119.039 81.2304L119.038 81.2294Z" stroke="#F68B40" stroke-width="0.288" stroke-miterlimit="10"/>
<path d="M118.479 84.1257C118.525 84.0969 118.606 84.0806 118.671 84.1065C118.76 84.1421 118.842 84.1891 118.921 84.2333L118.931 84.239C118.974 84.263 118.998 84.3062 119.013 84.3369C119.043 84.3993 119.072 84.4637 119.102 84.5318L119.137 84.6077C119.15 84.6374 119.149 84.672 119.134 84.6979C119.157 84.6873 119.183 84.6854 119.209 84.695C119.241 84.7075 119.273 84.7181 119.306 84.7296C119.401 84.7632 119.497 84.7977 119.593 84.8342C119.647 84.8553 119.696 84.9072 119.716 84.9648C119.773 85.1251 119.749 85.2883 119.65 85.415C119.543 85.5504 119.369 85.6176 119.178 85.6032C119.184 85.7856 119.134 85.9421 119.038 86.0486C118.954 86.1408 118.839 86.1897 118.709 86.1897H118.707C118.572 86.1888 118.456 86.1379 118.373 86.04C118.28 85.9344 118.233 85.7827 118.239 85.6089C118.003 85.6224 117.839 85.5417 117.738 85.3651C117.641 85.1971 117.648 85.0128 117.758 84.8477C117.888 84.6547 118.076 84.6288 118.235 84.6355C118.225 84.3945 118.305 84.2265 118.479 84.1238V84.1257Z" stroke="#F68B40" stroke-width="0.288" stroke-miterlimit="10"/>
<path d="M118.369 84.7766C118.366 84.7843 118.362 84.7939 118.357 84.8006C118.206 85.0214 118.206 85.2269 118.357 85.4457C118.364 85.4553 118.369 85.464 118.372 85.4765C118.381 85.4793 118.389 85.4832 118.398 85.4889C118.612 85.6425 118.81 85.6406 119.02 85.486C119.029 85.4784 119.04 85.4736 119.051 85.4697C119.053 85.4592 119.058 85.4486 119.065 85.439C119.203 85.2364 119.213 85.0435 119.092 84.8448C119.073 84.814 119.071 84.7737 119.088 84.742C119.058 84.7564 119.024 84.7545 118.996 84.7363C118.785 84.6067 118.595 84.6153 118.398 84.7612C118.388 84.768 118.379 84.7737 118.369 84.7756V84.7766Z" stroke="#F68B40" stroke-width="0.288" stroke-miterlimit="10"/>
<path d="M116.982 85.487C117.029 85.4592 117.108 85.4419 117.174 85.4688C117.262 85.5043 117.345 85.5513 117.423 85.5955L117.434 85.6012C117.476 85.6252 117.5 85.6675 117.515 85.6982C117.545 85.7606 117.574 85.8249 117.605 85.8931L117.639 85.9699C117.653 85.9987 117.652 86.0342 117.636 86.0601C117.659 86.0496 117.686 86.0486 117.709 86.0572C117.743 86.0697 117.775 86.0803 117.808 86.0918C117.903 86.1254 117.999 86.16 118.095 86.1974C118.149 86.2185 118.198 86.2704 118.218 86.328C118.276 86.4883 118.252 86.6515 118.152 86.7782C118.045 86.9126 117.872 86.9808 117.681 86.9664C117.687 87.1497 117.637 87.3052 117.541 87.4118C117.458 87.504 117.343 87.5529 117.212 87.5529H117.209C117.076 87.551 116.96 87.5011 116.876 87.4032C116.783 87.2985 116.736 87.1459 116.743 86.9731C116.506 86.9865 116.342 86.9049 116.241 86.7292C116.144 86.5612 116.151 86.3769 116.262 86.2118C116.391 86.0179 116.578 85.9929 116.739 85.9996C116.728 85.7577 116.808 85.5907 116.983 85.488L116.982 85.487Z" stroke="#F68B40" stroke-width="0.288" stroke-miterlimit="10"/>
<path d="M116.871 86.1388C116.868 86.1465 116.865 86.1561 116.859 86.1628C116.707 86.3846 116.707 86.5891 116.859 86.808C116.866 86.8176 116.871 86.8262 116.873 86.8387C116.882 86.8416 116.891 86.8454 116.898 86.8512C117.113 87.0048 117.31 87.0028 117.52 86.8483C117.53 86.8406 117.54 86.8358 117.551 86.832C117.554 86.8214 117.56 86.8108 117.565 86.8012C117.704 86.5987 117.713 86.4057 117.592 86.207C117.572 86.1763 117.571 86.136 117.588 86.1043C117.56 86.1187 117.524 86.1168 117.496 86.0985C117.284 85.9689 117.095 85.9776 116.897 86.1235C116.888 86.1302 116.878 86.136 116.869 86.1379L116.871 86.1388Z" stroke="#F68B40" stroke-width="0.288" stroke-miterlimit="10"/>
<path d="M119.661 82.4083H119.664C119.797 82.4073 119.932 82.3459 120.034 82.2393C120.135 82.1328 120.189 81.9936 120.186 81.8582C120.182 81.72 120.12 81.5808 120.013 81.478C119.908 81.3782 119.773 81.3244 119.641 81.3302C119.506 81.3369 119.372 81.4032 119.274 81.5155C119.178 81.6249 119.129 81.7641 119.137 81.8995C119.153 82.1712 119.398 82.4083 119.661 82.4083Z" stroke="#F68B40" stroke-width="0.288" stroke-miterlimit="10"/>
<path d="M116.552 83.1177C116.555 83.1177 116.557 83.1177 116.561 83.1177C116.695 83.1149 116.829 83.0505 116.929 82.9421C117.028 82.8336 117.083 82.6953 117.077 82.5609C117.071 82.4227 117.006 82.2854 116.898 82.1837C116.792 82.0838 116.655 82.032 116.525 82.0397C116.26 82.056 116.028 82.3075 116.027 82.5782C116.027 82.7155 116.086 82.8537 116.189 82.9593C116.291 83.0611 116.422 83.1177 116.552 83.1177Z" stroke="#F68B40" stroke-width="0.288" stroke-miterlimit="10"/>
<path d="M114.661 82.6012C114.664 82.703 114.745 82.7827 114.844 82.7827H115.496C115.583 82.7827 115.657 82.7203 115.674 82.632C115.682 82.5964 115.688 82.5571 115.694 82.5187C115.708 82.44 115.721 82.3574 115.745 82.2854C115.768 82.2192 115.806 82.151 115.844 82.0771C115.864 82.0396 115.884 82.0022 115.903 81.9638C115.906 81.9571 115.908 81.9513 115.911 81.9456C115.934 81.9398 115.955 81.9312 115.974 81.9158C116.37 81.6278 116.736 81.6259 117.129 81.9129C117.179 81.9484 117.244 81.9571 117.301 81.934C117.358 81.911 117.401 81.8592 117.414 81.7977L117.468 81.5241C117.488 81.4281 117.432 81.334 117.341 81.3072C117.023 81.2131 116.79 81.0566 116.61 80.8156C116.517 80.6908 116.298 80.662 116.178 80.7225C115.73 80.9424 115.671 81.3609 115.684 81.6892C115.352 81.6806 115.081 81.7689 114.898 81.9504C114.737 82.1116 114.656 82.3372 114.664 82.6012H114.661Z" stroke="#F68B40" stroke-width="0.288" stroke-miterlimit="10"/>
<path d="M116.505 83.8416L117.095 84.1632C117.122 84.1766 117.152 84.1843 117.181 84.1843C117.208 84.1843 117.238 84.1776 117.263 84.1632C117.317 84.1344 117.352 84.0816 117.36 84.022L117.428 83.4998L118.062 83.3596C118.131 83.3452 118.186 83.2886 118.202 83.2185C118.216 83.1465 118.191 83.0736 118.135 83.0284L117.692 82.68C117.648 82.6454 117.592 82.6339 117.54 82.6454C117.486 82.6588 117.442 82.6953 117.419 82.7452L117.179 83.2454C117.176 83.2521 117.173 83.2588 117.17 83.2636L116.53 83.4998C116.462 83.5248 116.414 83.5891 116.409 83.664C116.405 83.7369 116.442 83.808 116.507 83.8425L116.505 83.8416Z" stroke="#F68B40" stroke-width="0.288" stroke-miterlimit="10"/>
<path d="M128.002 84.8601C128.015 84.8601 128.027 84.8592 128.04 84.8563C128.102 84.8419 128.152 84.7958 128.174 84.7353C128.325 84.2947 128.589 84.0182 129.003 83.8627C129.15 83.808 129.231 83.568 129.184 83.4278C128.729 82.0627 127.913 80.9971 126.688 80.1705C126.634 80.135 126.566 80.1293 126.507 80.16C126.45 80.1888 126.411 80.2483 126.405 80.3126C126.276 82.151 126.755 83.6189 127.87 84.8016C127.905 84.839 127.952 84.8592 128.001 84.8592L128.002 84.8601Z" stroke="#F68B40" stroke-width="0.288" stroke-miterlimit="10"/>
<path d="M130.721 94.5638C130.649 94.4515 130.615 94.2892 130.594 94.1769C130.57 94.0416 130.56 93.9024 130.549 93.7555C130.544 93.6902 130.54 93.6249 130.533 93.5577C130.525 93.4723 130.462 93.4041 130.381 93.3907L130.072 93.3369C130.018 93.3283 129.964 93.3436 129.924 93.3792C129.883 93.4156 129.859 93.4675 129.859 93.5222V96.4032C129.859 96.5078 129.942 96.5913 130.042 96.5913H130.718C130.82 96.5913 130.902 96.5078 130.902 96.4032C130.902 96.2937 130.902 96.1843 130.9 96.0768C130.898 95.8233 130.897 95.5833 130.904 95.3395C130.909 95.1052 130.893 94.8288 130.722 94.5628L130.721 94.5638Z" stroke="#F68B40" stroke-width="0.288" stroke-miterlimit="10"/>
<path d="M124.494 82.7481C125.083 85.2758 126.616 87.0605 129.05 88.0521C129.071 88.0598 129.094 88.0656 129.117 88.0656C129.149 88.0656 129.179 88.056 129.207 88.0406C129.256 88.0128 129.289 87.9629 129.298 87.9072C129.311 87.8131 129.335 87.7152 129.357 87.6211C129.436 87.2928 129.525 86.9213 129.248 86.5613C129.24 86.5373 129.225 86.5065 129.2 86.4787C129.182 86.4614 129.165 86.4441 129.149 86.4249C129.095 86.3683 129.039 86.3078 128.973 86.2531C128.877 86.1744 128.78 86.0985 128.682 86.0227C128.562 85.9296 128.438 85.8317 128.321 85.7328C128.287 85.704 128.252 85.6617 128.217 85.6195C128.175 85.5705 128.129 85.5158 128.073 85.4678C126.778 84.3504 126.102 82.9123 126.064 81.1891C126.06 80.9913 126.06 80.7888 126.061 80.5939C126.061 80.423 126.062 80.2512 126.059 80.0803C126.059 80.0553 126.052 79.823 125.891 79.7501C125.39 79.5139 124.955 79.3785 124.52 79.3219C124.468 79.3142 124.415 79.3305 124.376 79.367C124.336 79.4025 124.314 79.4553 124.314 79.5091C124.317 79.7549 124.316 80.0025 124.313 80.2435C124.307 81.0662 124.3 81.9168 124.493 82.7472L124.494 82.7481Z" stroke="#F68B40" stroke-width="0.288" stroke-miterlimit="10"/>
<path d="M131.625 86.76C131.56 86.735 131.488 86.7484 131.438 86.7964C131.397 86.8339 131.359 86.8713 131.322 86.9088C131.25 86.9798 131.188 87.0403 131.122 87.0835C130.906 87.2246 130.876 87.4214 130.877 87.5932C130.882 88.2614 130.882 88.9401 130.881 89.5968L130.879 91.2998C130.879 92.1024 130.878 92.9347 130.882 93.7516C130.883 94.2 131.06 94.608 131.368 94.8729C131.602 95.0736 131.886 95.1772 132.19 95.1772C132.269 95.1772 132.348 95.1705 132.428 95.1561C132.523 95.1398 132.589 95.0515 132.579 94.9516L131.74 86.9164C131.733 86.8473 131.688 86.7868 131.624 86.7619L131.625 86.76Z" stroke="#F68B40" stroke-width="0.288" stroke-miterlimit="10"/>
<path d="M116.169 89.2934C116.088 88.8777 116.006 88.463 115.924 88.0454L115.808 87.455C115.787 87.3561 115.698 87.2908 115.601 87.3052L115.152 87.3763C115.063 87.3897 114.997 87.4694 114.997 87.5616V89.8473H116.276C116.241 89.663 116.205 89.4777 116.169 89.2944V89.2934Z" stroke="#F68B40" stroke-width="0.288" stroke-miterlimit="10"/>
<path d="M114.661 88.4246L114.659 87.5116C114.659 87.4166 114.642 87.2851 114.557 87.1987C114.455 87.0969 114.348 87.0038 114.237 86.9049C114.193 86.8665 114.149 86.8281 114.104 86.7859C114.052 86.7408 113.98 86.7273 113.917 86.7542C113.853 86.7792 113.809 86.8377 113.803 86.9088L113.496 89.8464H114.662C114.662 89.3702 114.661 88.895 114.661 88.4246Z" stroke="#F68B40" stroke-width="0.288" stroke-miterlimit="10"/>
<path d="M130.338 85.6003C130.349 85.6013 130.361 85.6013 130.372 85.6013C130.492 85.6013 130.614 85.5523 130.712 85.463C130.822 85.3641 130.89 85.2269 130.897 85.0877C130.905 84.9542 130.853 84.8141 130.756 84.7046C130.657 84.5942 130.524 84.527 130.389 84.5232C130.259 84.5165 130.121 84.5741 130.018 84.6758C129.912 84.7785 129.85 84.9168 129.849 85.0541C129.845 85.3248 130.074 85.5811 130.339 85.6013L130.338 85.6003Z" stroke="#F68B40" stroke-width="0.288" stroke-miterlimit="10"/>
<path d="M117.588 79.5696C117.723 79.5696 117.858 79.5081 117.959 79.4016C118.061 79.295 118.116 79.1558 118.114 79.0205C118.111 78.8822 118.048 78.7449 117.942 78.6422C117.838 78.5405 117.702 78.4867 117.57 78.4915C117.435 78.4973 117.3 78.5644 117.203 78.6758C117.107 78.7852 117.057 78.9244 117.063 79.0579C117.08 79.3315 117.324 79.5696 117.588 79.5696Z" stroke="#F68B40" stroke-width="0.288" stroke-miterlimit="10"/>
<path d="M115.16 84.5222C115.025 84.5251 114.891 84.5884 114.791 84.6979C114.694 84.8054 114.64 84.9446 114.646 85.08C114.656 85.3517 114.898 85.5945 115.161 85.6003C115.164 85.6003 115.167 85.6003 115.169 85.6003C115.3 85.6003 115.432 85.5427 115.532 85.44C115.636 85.3353 115.694 85.1971 115.694 85.0598C115.694 84.9225 115.634 84.7843 115.53 84.6796C115.427 84.576 115.29 84.5155 115.16 84.5213L115.16 84.5222Z" stroke="#F68B40" stroke-width="0.288" stroke-miterlimit="10"/>
<path d="M129.028 89.2973L129.161 88.6176C129.179 88.5283 129.131 88.439 129.048 88.4054L128.969 88.3747C128.92 88.3545 128.875 88.3373 128.829 88.32C125.942 87.2323 123.997 84.3801 123.991 81.2246C123.991 80.9472 123.991 80.6688 123.991 80.3913C123.991 80.1216 123.991 79.8537 123.989 79.584C123.989 79.536 123.983 79.4937 123.976 79.4544C123.975 79.4409 123.972 79.4265 123.971 79.4131C123.962 79.3305 123.899 79.2633 123.819 79.2509C123.739 79.2374 123.659 79.2797 123.624 79.3555C123.473 79.6857 123.305 79.9065 123.083 80.0669C122.979 80.1417 122.931 80.2896 122.936 80.3961C122.946 80.6054 122.952 80.8205 122.957 81.0269C122.969 81.5309 122.981 82.0531 123.07 82.559C123.616 85.6579 125.339 87.8947 128.19 89.2099C128.323 89.2713 128.461 89.3203 128.595 89.3673C128.656 89.3904 128.721 89.4125 128.783 89.4365C128.804 89.4441 128.825 89.4489 128.847 89.4489C128.878 89.4489 128.909 89.4413 128.937 89.4249C128.982 89.3981 129.015 89.352 129.026 89.2982L129.028 89.2973Z" stroke="#F68B40" stroke-width="0.288" stroke-miterlimit="10"/>
<path d="M122.506 80.9068C122.444 80.8752 122.371 80.88 122.316 80.9213L121.904 81.2265C121.842 81.2726 121.814 81.3532 121.835 81.4291C121.991 82.0022 121.862 82.464 121.443 82.8403C121.359 82.9152 121.33 83.0236 121.31 83.1033L121.303 83.1273C120.676 85.4064 119.301 87.0806 117.22 88.1059C117.062 88.1827 116.901 88.248 116.732 88.319C116.654 88.3507 116.574 88.3843 116.493 88.4179C116.414 88.4524 116.367 88.5408 116.385 88.6272L116.409 88.7568C116.434 88.8845 116.458 89.0092 116.482 89.134C116.489 89.1715 116.499 89.207 116.51 89.2502L116.527 89.3097C116.54 89.3606 116.573 89.4028 116.617 89.4268C116.644 89.4412 116.673 89.448 116.702 89.448C116.723 89.448 116.744 89.4451 116.763 89.4393C118.715 88.7443 120.253 87.4896 121.33 85.7116C122.167 84.3302 122.596 82.7702 122.605 81.0758C122.606 81.0048 122.567 80.9395 122.506 80.9078V80.9068Z" stroke="#F68B40" stroke-width="0.288" stroke-miterlimit="10"/>
<path d="M121.422 78.4915C121.292 78.4819 121.155 78.5328 121.048 78.6297C120.939 78.7296 120.871 78.8659 120.864 79.006C120.857 79.1404 120.909 79.2806 121.007 79.3881C121.106 79.4985 121.239 79.5638 121.375 79.5686C121.378 79.5696 121.384 79.5696 121.388 79.5696C121.516 79.5696 121.645 79.5139 121.747 79.415C121.851 79.3113 121.912 79.1731 121.915 79.0348C121.918 78.7641 121.688 78.5097 121.422 78.4905V78.4915Z" stroke="#F68B40" stroke-width="0.288" stroke-miterlimit="10"/>
<path d="M122.257 79.9248C122.287 80.3059 122.174 80.591 121.917 80.7964C121.754 80.927 121.574 80.9923 121.395 80.9923C121.254 80.9923 121.111 80.952 120.971 80.8704C120.526 80.6131 120.505 80.159 120.518 79.9209C120.131 79.9488 119.844 79.8249 119.649 79.5436C119.436 79.2384 119.423 78.8928 119.612 78.5721C119.845 78.1747 120.225 78.1228 120.517 78.1344C120.504 77.8281 120.556 77.4374 120.955 77.1974C121.251 77.0188 121.572 77.0284 121.86 77.2214C122.151 77.4201 122.282 77.7196 122.258 78.1372C122.533 78.1171 122.885 78.1584 123.133 78.5212C123.339 78.8208 123.353 79.1596 123.175 79.4726C122.988 79.798 122.685 79.9459 122.256 79.9238L122.257 79.9248Z" stroke="#F68B40" stroke-width="0.288" stroke-miterlimit="10"/>
<path d="M122.035 78.4464C122.022 78.4281 122.011 78.408 122.006 78.3868C121.992 78.3801 121.979 78.3734 121.965 78.3638C121.571 78.0787 121.206 78.0796 120.813 78.3676C120.799 78.3782 120.781 78.3878 120.764 78.3926C120.758 78.407 120.752 78.4224 120.743 78.4339C120.466 78.8428 120.465 79.2182 120.742 79.6147C120.755 79.631 120.762 79.6483 120.767 79.6665C120.783 79.6723 120.799 79.68 120.813 79.6905C121.211 79.9785 121.565 79.9804 121.961 79.6944C121.979 79.6809 122 79.6713 122.022 79.6665C122.026 79.6521 122.032 79.6387 122.042 79.6252C122.317 79.2028 122.316 78.8284 122.036 78.4454L122.035 78.4464Z" stroke="#F68B40" stroke-width="0.288" stroke-miterlimit="10"/>
<path d="M132.777 96.9446H127.971C127.869 96.9446 127.788 97.0291 127.788 97.1328V97.823C127.788 97.9257 127.87 98.0093 127.971 98.0093H132.777C132.879 98.0093 132.96 97.9257 132.96 97.823V97.1328C132.96 97.0291 132.878 96.9446 132.777 96.9446Z" stroke="#F68B40" stroke-width="0.288" stroke-miterlimit="10"/>
<path d="M130.357 93.0259C130.402 93.0259 130.444 93.0086 130.477 92.9779C130.516 92.9414 130.539 92.8905 130.539 92.8377V87.5577C130.539 87.4646 130.473 87.3859 130.381 87.3724L129.937 87.3081C129.841 87.2947 129.752 87.36 129.733 87.4579L129.603 88.1174C129.352 89.3952 129.103 90.6614 128.859 91.9296C128.836 92.0428 128.872 92.182 128.944 92.2684C129.308 92.7072 129.777 92.9606 130.335 93.024C130.342 93.0259 130.349 93.0259 130.356 93.0259H130.357Z" stroke="#F68B40" stroke-width="0.288" stroke-miterlimit="10"/>
<path d="M116.719 78.1363C116.702 77.8541 116.742 77.4883 117.096 77.2358C117.391 77.0256 117.72 77.0121 118.022 77.1974C118.335 77.3894 118.479 77.6966 118.458 78.1334C118.478 78.1334 118.497 78.1344 118.517 78.1344C118.6 78.1363 118.688 78.1382 118.777 78.1574C119.186 78.239 119.232 78.4051 119.184 78.7718C119.164 78.9264 119.168 79.0886 119.174 79.2749C119.176 79.3651 119.179 79.4592 119.179 79.5571C119.179 79.6262 119.144 79.6905 119.083 79.7222C118.813 79.872 118.613 80.1245 118.505 80.4509C118.502 80.4758 118.494 80.5229 118.459 80.568C118.322 80.7542 117.758 80.9453 117.428 80.9453C117.362 80.9453 117.304 80.9376 117.263 80.9203C116.885 80.7629 116.687 80.3856 116.728 79.9056C116.385 79.9641 116.067 79.8441 115.868 79.5705C115.643 79.2643 115.618 78.9293 115.793 78.6029C116.026 78.1737 116.414 78.12 116.719 78.1353V78.1363Z" stroke="#F68B40" stroke-width="0.288" stroke-miterlimit="10"/>
<path d="M116.926 79.5964C116.946 79.6252 116.957 79.6588 116.96 79.6924C116.97 79.6963 116.983 79.7001 116.993 79.7059C117.648 80.0236 117.94 79.919 118.2 79.6483C118.459 79.3776 118.563 79.0636 118.234 78.4041C118.233 78.4012 118.233 78.4003 118.232 78.3984C118.208 78.3926 118.185 78.382 118.163 78.3676C117.774 78.0796 117.409 78.0777 117.013 78.3638C116.999 78.3744 116.984 78.383 116.968 78.3878C116.962 78.4051 116.955 78.4214 116.944 78.4368C116.669 78.8419 116.663 79.2115 116.927 79.5955L116.926 79.5964Z" stroke="#F68B40" stroke-width="0.288" stroke-miterlimit="10"/>
<path d="M116.467 88.03C118.059 87.5923 120.182 85.6022 120.524 84.2256C120.541 84.1564 120.517 84.0835 120.464 84.0364C120.41 83.9904 120.336 83.9788 120.272 84.0096C119.608 84.3168 119.069 84.1785 118.623 83.5843C118.569 83.5132 118.476 83.4912 118.398 83.5296L118.26 83.6006C118.152 83.6553 118.049 83.7072 117.945 83.758C117.822 83.8185 117.346 84.5971 117.367 84.7603C117.369 84.7804 117.373 84.7987 117.38 84.815C117.492 85.4246 117.19 85.9968 116.642 86.207C116.45 86.2819 116.339 86.4009 116.274 86.6035C116.264 86.6371 116.236 86.6812 116.208 86.7244C116.152 86.8137 116.081 86.926 116.088 87.0604C116.098 87.2688 116.145 87.4675 116.191 87.6604C116.208 87.7363 116.225 87.8112 116.241 87.887C116.251 87.9379 116.282 87.982 116.324 88.008C116.353 88.0272 116.386 88.0358 116.42 88.0358C116.434 88.0358 116.451 88.0329 116.466 88.0291L116.467 88.03Z" stroke="#F68B40" stroke-width="0.288" stroke-miterlimit="10"/>
<path d="M113.749 78.5424C113.763 78.6355 113.841 78.7027 113.93 78.7027C113.938 78.7027 113.947 78.7017 113.955 78.6998L114.281 78.6537C114.628 78.6038 114.947 78.5577 115.268 78.5097C115.314 78.5021 115.435 78.4761 115.519 78.3888C115.622 78.2784 115.724 78.1622 115.821 78.0499L115.93 77.9261C115.966 77.8857 115.982 77.831 115.976 77.7763C115.969 77.7225 115.94 77.6736 115.896 77.6448C115.281 77.2262 114.576 77.0409 113.739 77.0765C113.687 77.0793 113.639 77.1033 113.605 77.1446C113.572 77.1859 113.557 77.2397 113.566 77.2925L113.749 78.5433V78.5424Z" stroke="#F68B40" stroke-width="0.288" stroke-miterlimit="10"/>
<path d="M115.108 81.408C115.116 81.4013 115.145 81.3878 115.164 81.3801C115.226 81.3523 115.31 81.3149 115.363 81.2285C115.431 81.119 115.477 81.0029 115.522 80.8896C115.538 80.8454 115.555 80.8022 115.574 80.7581C115.597 80.7043 115.593 80.6448 115.567 80.5939C115.542 80.543 115.494 80.5075 115.437 80.4979L114.282 80.2925L114.338 79.9565L115.41 80.1379C115.476 80.1485 115.541 80.1235 115.581 80.0707C115.622 80.0169 115.635 79.9469 115.61 79.8845L115.276 78.9936C115.246 78.9177 115.172 78.8678 115.094 78.8745C114.289 78.9321 113.512 79.2038 112.783 79.6829C112.703 79.7347 112.676 79.8413 112.72 79.9267C113.053 80.5824 113.51 81.0653 114.118 81.4032C114.265 81.4848 114.456 81.5913 114.666 81.5913C114.807 81.5913 114.957 81.5433 115.108 81.4089V81.408Z" stroke="#F68B40" stroke-width="0.288" stroke-miterlimit="10"/>
<path d="M116.038 85.9555C116.065 86.3481 115.946 86.6409 115.675 86.8473C115.523 86.9616 115.347 87.0201 115.171 87.0201C115.018 87.0201 114.865 86.976 114.723 86.8886C114.412 86.6937 114.276 86.3837 114.308 85.9382C113.968 85.9968 113.647 85.8739 113.45 85.6051C113.224 85.2979 113.197 84.9638 113.375 84.6374C113.607 84.2083 113.995 84.1536 114.299 84.168C114.286 83.8589 114.34 83.4662 114.739 83.2281C115.046 83.0448 115.374 83.0601 115.665 83.2704C115.946 83.4739 116.069 83.7744 116.038 84.1853C116.376 84.1296 116.696 84.2534 116.89 84.5193C117.113 84.8237 117.14 85.1673 116.964 85.4889C116.779 85.8259 116.477 85.9795 116.038 85.9555Z" stroke="#F68B40" stroke-width="0.288" stroke-miterlimit="10"/>
<path d="M115.833 84.4963C115.816 84.4733 115.808 84.4483 115.802 84.4233C115.782 84.4166 115.762 84.407 115.744 84.3955C115.347 84.1104 114.982 84.1113 114.595 84.4013C114.579 84.4137 114.563 84.4224 114.546 84.4281C114.54 84.4425 114.534 84.4569 114.525 84.4694C114.249 84.8745 114.244 85.2441 114.508 85.6281C114.524 85.6521 114.535 85.679 114.538 85.7068C114.561 85.7126 114.581 85.7213 114.601 85.7347C114.993 86.0141 115.355 86.0121 115.741 85.728C115.758 85.7155 115.775 85.7068 115.793 85.7011C115.799 85.6848 115.807 85.6694 115.816 85.655C116.092 85.2499 116.097 84.8813 115.833 84.4973L115.833 84.4963Z" stroke="#F68B40" stroke-width="0.288" stroke-miterlimit="10"/>
<path d="M133.299 97.3574C133.299 97.5139 133.3 97.6694 133.297 97.8249C133.294 98.1408 133.089 98.3549 132.786 98.3549C131.141 98.3577 129.513 98.3577 127.951 98.3549C127.663 98.3549 127.45 98.1389 127.446 97.8413C127.443 97.5974 127.443 97.3526 127.446 97.1155C127.451 96.8208 127.663 96.6048 127.953 96.6038C128.266 96.6009 128.58 96.6009 128.9 96.6019H129.322C129.418 96.6019 129.498 96.5261 129.504 96.4272C129.507 96.4022 129.508 96.3792 129.51 96.3581C129.513 96.3043 129.517 96.2563 129.517 96.2083C129.517 95.9395 129.517 95.6697 129.517 95.399C129.517 94.7645 129.515 94.1069 129.521 93.4608C129.524 93.2294 129.409 93.1152 129.293 93.0163C129.092 92.8473 128.898 92.6563 128.711 92.471C128.65 92.4125 128.591 92.352 128.529 92.2934C128.481 92.2454 128.457 92.1878 128.488 92.0429C128.567 91.6589 128.643 91.2749 128.719 90.8889C128.764 90.6595 128.809 90.4301 128.856 90.2006C128.874 90.1046 128.925 89.8512 128.617 89.7369C125.805 88.6905 123.906 86.6621 122.974 83.7129C122.961 83.6755 122.943 83.6515 122.93 83.6352C122.926 83.6294 122.919 83.6208 122.909 83.6073C122.868 83.5526 122.803 83.5257 122.738 83.5353C122.673 83.5449 122.618 83.5901 122.594 83.6525L122.566 83.7245C122.548 83.7744 122.53 83.8166 122.515 83.8617C121.571 86.7149 119.707 88.6848 116.975 89.7158C116.885 89.7494 116.817 89.7917 116.767 89.8435H116.273C116.239 89.6592 116.202 89.4739 116.167 89.2905C116.085 88.8749 116.004 88.4582 115.921 88.0425L115.805 87.4502C115.785 87.3533 115.695 87.288 115.598 87.3024L115.149 87.3734C115.061 87.3869 114.994 87.4656 114.994 87.5587V89.8445H114.66C114.66 89.3673 114.658 88.8921 114.658 88.4227L114.657 87.5078C114.657 87.4137 114.639 87.2822 114.555 87.1958C114.453 87.0931 114.346 87 114.235 86.9011C114.191 86.8637 114.147 86.8253 114.1 86.784C114.049 86.7389 113.977 86.7254 113.914 86.7504C113.85 86.7753 113.806 86.8358 113.8 86.9049L113.492 89.8435H113.153C113.167 89.7225 113.178 89.6006 113.192 89.4797L113.365 87.8457C113.417 87.3523 113.472 86.8416 113.518 86.3395C113.529 86.2185 113.457 86.0937 113.381 86.0237C113.025 85.6934 112.867 85.2557 112.946 84.8217C113.023 84.3974 113.315 84.0566 113.748 83.8857C113.899 83.8272 114.366 83.0553 114.351 82.8893C114.347 82.8451 114.342 82.8019 114.337 82.7577C114.326 82.6579 114.316 82.5648 114.319 82.4765C114.321 82.3987 114.34 82.3161 114.36 82.2192C114.37 82.1693 114.381 82.1174 114.391 82.0627C114.407 81.9744 114.359 81.887 114.277 81.8534C113.414 81.5107 112.783 80.855 112.182 79.6733L113.389 78.9072C113.465 78.8592 113.496 78.7632 113.462 78.6777C113.261 78.1603 113.267 77.5901 113.276 76.9853C113.278 76.9027 113.279 76.8221 113.279 76.7385C114.23 76.6761 115.305 76.7366 116.235 77.472C116.276 77.5037 116.33 77.5171 116.381 77.5065C116.433 77.4969 116.477 77.4643 116.504 77.4173C116.705 77.0669 116.946 76.8614 117.266 76.7702C117.846 76.607 118.457 76.9065 118.683 77.4691C118.752 77.64 118.858 77.8262 119.121 77.9078C119.17 77.9222 119.225 77.9597 119.284 77.9971C119.315 78.0182 119.348 78.0393 119.38 78.0585C119.431 78.0883 119.493 78.0902 119.547 78.0653L119.682 78.0009C119.805 77.9433 119.931 77.8838 120.056 77.8195C120.149 77.7715 120.208 77.6755 120.23 77.6006C120.382 77.1302 120.749 76.8086 121.212 76.7395C121.67 76.6733 122.117 76.872 122.379 77.2608C122.479 77.4086 122.692 77.4317 122.755 77.4355C122.972 77.448 123.194 77.4528 123.407 77.4585C123.799 77.4691 124.203 77.4787 124.59 77.5334C126.417 77.7897 127.992 78.6614 129.27 80.1225C129.892 80.8349 130.383 81.671 130.73 82.608C130.775 82.7337 130.874 82.8557 130.995 82.9401C131.236 83.1053 131.406 83.3213 131.512 83.5977C131.56 83.7216 131.673 83.8358 131.794 83.8838C132.224 84.0557 132.514 84.4013 132.591 84.8333C132.668 85.2681 132.513 85.6973 132.167 86.015C132.074 86.1005 132.016 86.2589 132.029 86.3923C132.148 87.5923 132.279 88.896 132.436 90.3792C132.513 91.1165 132.592 91.8537 132.67 92.591C132.731 93.1584 132.791 93.7267 132.851 94.295C132.886 94.6147 132.917 94.9334 132.949 95.2617L132.973 95.5104C132.866 95.5104 132.759 95.5123 132.655 95.5142C132.246 95.5238 131.858 95.5315 131.492 95.3539C131.436 95.3261 131.369 95.3299 131.317 95.3645C131.264 95.399 131.232 95.4585 131.232 95.5229V96.4099C131.232 96.5136 131.313 96.5981 131.415 96.5981H131.817C132.116 96.5981 132.412 96.5981 132.709 96.5981C133.114 96.5981 133.296 96.7843 133.298 97.2019V97.3526L133.299 97.3574Z" stroke="#F68B40" stroke-width="0.288" stroke-miterlimit="10"/>
<path d="M131.741 86.9155C131.734 86.8464 131.689 86.7859 131.626 86.7609C131.561 86.736 131.489 86.7484 131.437 86.7955C131.397 86.8339 131.359 86.8713 131.321 86.9088C131.25 86.9798 131.188 87.0403 131.122 87.0835C130.906 87.2246 130.876 87.4195 130.877 87.5923C130.882 88.2585 130.881 88.9392 130.881 89.5968L130.88 91.2998C130.88 92.1024 130.878 92.9328 130.882 93.7507C130.883 94.199 131.061 94.608 131.369 94.8729C131.602 95.0726 131.887 95.1772 132.189 95.1772C132.269 95.1772 132.349 95.1705 132.429 95.1561C132.523 95.1388 132.59 95.0496 132.58 94.9516L131.741 86.9155Z" stroke="#F68B40" stroke-width="0.288" stroke-miterlimit="10"/>
<path d="M130.903 95.3414C130.908 95.1072 130.892 94.8307 130.721 94.5638C130.65 94.4505 130.615 94.2883 130.595 94.176C130.571 94.0406 130.56 93.9024 130.549 93.7545C130.546 93.6892 130.54 93.624 130.533 93.5587C130.525 93.4732 130.464 93.4041 130.381 93.3907L130.072 93.3388C130.019 93.3302 129.966 93.3456 129.924 93.3811C129.883 93.4156 129.86 93.4684 129.86 93.5241V96.4051C129.86 96.5078 129.942 96.5913 130.043 96.5913H130.717C130.819 96.5913 130.9 96.5078 130.9 96.4051C130.9 96.2947 130.9 96.1862 130.898 96.0787C130.897 95.8243 130.897 95.5852 130.902 95.3414H130.903Z" stroke="#F68B40" stroke-width="0.288" stroke-miterlimit="10"/>
<path d="M124.314 80.2435C124.308 81.0662 124.3 81.9168 124.494 82.7472C125.083 85.2748 126.614 87.0595 129.05 88.0512C129.071 88.0588 129.094 88.0646 129.117 88.0646C129.149 88.0646 129.18 88.055 129.207 88.0396C129.255 88.0118 129.289 87.9619 129.297 87.9062C129.311 87.8121 129.335 87.7142 129.358 87.6201C129.437 87.2918 129.526 86.9203 129.248 86.5603C129.241 86.5363 129.227 86.5056 129.2 86.4777C129.182 86.4604 129.166 86.4432 129.151 86.424C129.096 86.3673 129.04 86.3068 128.973 86.2521C128.877 86.1734 128.779 86.0976 128.682 86.0217C128.563 85.9286 128.439 85.8307 128.322 85.7318C128.288 85.703 128.253 85.6627 128.217 85.6185C128.175 85.5705 128.128 85.5148 128.073 85.4668C126.777 84.3513 126.102 82.9113 126.064 81.1881C126.059 80.9904 126.061 80.7878 126.062 80.5929C126.062 80.422 126.062 80.2512 126.061 80.0793C126.059 80.0544 126.051 79.822 125.893 79.7491C125.39 79.5129 124.954 79.3776 124.521 79.3209C124.469 79.3132 124.416 79.3296 124.377 79.366C124.336 79.4016 124.314 79.4544 124.315 79.5081C124.318 79.7539 124.315 80.0016 124.314 80.2425V80.2435Z" stroke="#F68B40" stroke-width="0.288" stroke-miterlimit="10"/>
<path d="M127.871 84.8035C127.905 84.8409 127.953 84.8601 128.001 84.8601C128.015 84.8601 128.028 84.8592 128.04 84.8563C128.102 84.8419 128.153 84.7958 128.173 84.7353C128.326 84.2937 128.589 84.0163 129.003 83.8627C129.15 83.808 129.23 83.568 129.185 83.4278C128.729 82.0627 127.913 80.9971 126.688 80.1705C126.634 80.1331 126.565 80.1292 126.508 80.158C126.449 80.1878 126.411 80.2464 126.406 80.3126C126.275 82.151 126.754 83.6188 127.87 84.8016L127.871 84.8035Z" stroke="#F68B40" stroke-width="0.288" stroke-miterlimit="10"/>
<path d="M123.229 78.0816C123.26 78.1228 123.291 78.1593 123.32 78.1939C123.35 78.2294 123.389 78.2755 123.395 78.2937C123.538 78.8044 123.932 78.8697 124.28 78.9254L124.293 78.9283C126.62 79.3065 128.308 80.6092 129.313 82.8C129.333 82.8441 129.355 82.8796 129.373 82.9065L129.386 82.9238C129.42 82.9814 129.479 83.014 129.54 83.014C129.564 83.014 129.588 83.0083 129.612 82.9996L130.228 82.7356C130.273 82.7164 130.309 82.68 130.328 82.6329C130.345 82.5878 130.345 82.536 130.327 82.4889C129.663 80.8905 128.599 79.6483 127.162 78.7948C126.015 78.1152 124.778 77.783 123.376 77.7801C123.307 77.7801 123.245 77.8214 123.214 77.8838C123.182 77.9481 123.19 78.024 123.231 78.0816H123.229Z" stroke="#F68B40" stroke-width="0.288" stroke-miterlimit="10"/>
<path d="M113.566 77.2905L113.75 78.5414C113.764 78.6345 113.841 78.7017 113.93 78.7017C113.937 78.7017 113.947 78.7017 113.955 78.6998L114.281 78.6537C114.628 78.6029 114.947 78.5577 115.268 78.5078C115.314 78.5011 115.433 78.4742 115.517 78.3868C115.622 78.2774 115.723 78.1612 115.821 78.0499L115.93 77.926C115.965 77.8848 115.982 77.83 115.976 77.7763C115.969 77.7216 115.94 77.6736 115.896 77.6428C115.281 77.2252 114.576 77.039 113.739 77.0755C113.687 77.0774 113.639 77.1024 113.605 77.1436C113.572 77.184 113.557 77.2387 113.565 77.2905H113.566Z" stroke="#F68B40" stroke-width="0.288" stroke-miterlimit="10"/>
<path d="M114.666 81.5913C114.807 81.5913 114.957 81.5433 115.108 81.4089C115.116 81.4012 115.145 81.3888 115.164 81.3792C115.225 81.3523 115.31 81.3139 115.363 81.2284C115.431 81.119 115.477 81.0019 115.521 80.8886C115.538 80.8464 115.555 80.8022 115.574 80.758C115.598 80.7043 115.595 80.6448 115.568 80.5939C115.541 80.543 115.493 80.5075 115.438 80.4979L114.282 80.2924L114.34 79.9555L115.412 80.1369C115.478 80.1494 115.542 80.1225 115.583 80.0707C115.624 80.0188 115.635 79.9478 115.612 79.8854L115.278 78.9945C115.248 78.9187 115.172 78.8688 115.094 78.8755C114.291 78.9331 113.513 79.2048 112.784 79.6838C112.704 79.7356 112.675 79.8422 112.719 79.9276C113.053 80.5824 113.509 81.0652 114.117 81.4041C114.264 81.4857 114.456 81.5923 114.666 81.5923V81.5913Z" stroke="#F68B40" stroke-width="0.288" stroke-miterlimit="10"/>
<path d="M116.325 88.008C116.355 88.0262 116.387 88.0358 116.421 88.0358C116.437 88.0358 116.453 88.0329 116.467 88.0291C118.06 87.5913 120.182 85.6022 120.525 84.2265C120.542 84.1555 120.518 84.0825 120.464 84.0364C120.411 83.9894 120.337 83.9788 120.272 84.0096C119.608 84.3177 119.07 84.1785 118.624 83.5843C118.572 83.5132 118.477 83.4912 118.399 83.5305L118.261 83.5996C118.153 83.6544 118.05 83.7062 117.946 83.7571C117.823 83.8185 117.349 84.5971 117.368 84.7593C117.37 84.7795 117.375 84.7987 117.381 84.814C117.494 85.4236 117.19 85.9958 116.642 86.207C116.45 86.2809 116.339 86.399 116.274 86.6016C116.264 86.6352 116.236 86.6803 116.208 86.7225C116.152 86.8128 116.081 86.9251 116.088 87.0585C116.098 87.2668 116.144 87.4656 116.191 87.6585C116.208 87.7344 116.225 87.8092 116.241 87.8851C116.251 87.936 116.282 87.9792 116.324 88.006L116.325 88.008Z" stroke="#F68B40" stroke-width="0.288" stroke-miterlimit="10"/>
<path d="M122.604 81.0739C122.604 81.0028 122.567 80.9376 122.505 80.9059C122.444 80.8742 122.371 80.879 122.315 80.9203L121.904 81.2265C121.841 81.2716 121.814 81.3532 121.834 81.4281C121.991 82.0012 121.862 82.463 121.443 82.8393C121.359 82.9142 121.329 83.0227 121.308 83.1033L121.302 83.1273C120.675 85.4044 119.302 87.0806 117.219 88.1049C117.062 88.1817 116.901 88.2489 116.732 88.318C116.652 88.3516 116.574 88.3833 116.494 88.4179C116.414 88.4524 116.368 88.5388 116.385 88.6272L116.409 88.7548C116.433 88.8825 116.457 89.0083 116.482 89.1321C116.489 89.1696 116.5 89.2051 116.511 89.2483L116.528 89.3078C116.541 89.3587 116.573 89.4009 116.618 89.4249C116.645 89.4393 116.674 89.448 116.703 89.448C116.723 89.448 116.744 89.4441 116.764 89.4374C118.715 88.7424 120.251 87.4886 121.33 85.7107C122.168 84.3283 122.597 82.7683 122.605 81.0739H122.604Z" stroke="#F68B40" stroke-width="0.288" stroke-miterlimit="10"/>
<path d="M128.938 89.424C128.985 89.3971 129.017 89.351 129.027 89.2973L129.161 88.6176C129.179 88.5283 129.131 88.439 129.047 88.4054L128.969 88.3747C128.918 88.3545 128.875 88.3373 128.829 88.32C125.941 87.2323 123.997 84.3811 123.99 81.2246C123.989 80.9472 123.989 80.6688 123.989 80.3913C123.989 80.1216 123.989 79.8537 123.989 79.584C123.989 79.536 123.982 79.4937 123.976 79.4544C123.973 79.4409 123.972 79.4275 123.971 79.4131C123.96 79.3305 123.899 79.2633 123.819 79.2509C123.737 79.2374 123.659 79.2797 123.624 79.3555C123.472 79.6857 123.305 79.9065 123.082 80.0669C122.979 80.1417 122.931 80.2896 122.936 80.3961C122.946 80.6054 122.95 80.8205 122.956 81.0269C122.968 81.5318 122.981 82.0531 123.071 82.56C123.616 85.6579 125.339 87.8947 128.191 89.2099C128.323 89.2713 128.461 89.3203 128.595 89.3673C128.657 89.3904 128.721 89.4125 128.784 89.4365C128.804 89.4441 128.825 89.4489 128.846 89.4489C128.877 89.4489 128.908 89.4413 128.936 89.4249L128.938 89.424Z" stroke="#F68B40" stroke-width="0.288" stroke-miterlimit="10"/>
<path d="M130.336 93.0249C130.343 93.0259 130.35 93.0259 130.357 93.0259C130.402 93.0259 130.445 93.0086 130.477 92.9779C130.517 92.9424 130.539 92.8915 130.539 92.8377V87.5577C130.539 87.4646 130.472 87.3859 130.381 87.3725L129.938 87.3081C129.842 87.2947 129.753 87.359 129.733 87.456L129.604 88.1174C129.353 89.3933 129.104 90.6614 128.86 91.9296C128.837 92.0429 128.873 92.1811 128.945 92.2685C129.309 92.7062 129.778 92.9606 130.335 93.024L130.336 93.0249Z" stroke="#F68B40" stroke-width="0.288" stroke-miterlimit="10"/>
<path d="M132.96 97.1318C132.96 97.0281 132.878 96.9436 132.777 96.9436H127.971C127.869 96.9436 127.788 97.0272 127.788 97.1318V97.823C127.788 97.9267 127.87 98.0112 127.971 98.0112H132.777C132.879 98.0112 132.96 97.9276 132.96 97.823V97.1318Z" stroke="#F68B40" stroke-width="0.288" stroke-miterlimit="10"/>
<path d="M119.015 81.2745C119.025 81.2601 119.032 81.2457 119.038 81.2294C119.055 81.2236 119.073 81.215 119.089 81.2025C119.452 80.9318 119.801 80.9174 120.19 81.1574C120.242 81.1891 120.306 81.192 120.359 81.167C120.328 81.2256 120.329 81.2976 120.366 81.3561C120.589 81.7209 120.574 82.0761 120.318 82.4467C120.305 82.4659 120.297 82.4841 120.291 82.5052C120.271 82.511 120.25 82.5196 120.233 82.534C119.846 82.8192 119.482 82.8201 119.09 82.5408C119.075 82.5302 119.059 82.5225 119.043 82.5168C119.037 82.4966 119.028 82.4774 119.016 82.4601C118.736 82.0588 118.736 81.6816 119.014 81.2745H119.015Z" stroke="#F68B40" stroke-width="0.288" stroke-miterlimit="10"/>
<path d="M119.137 81.8985C119.154 82.1702 119.398 82.4083 119.661 82.4083H119.664C119.797 82.4083 119.934 82.3459 120.035 82.2393C120.134 82.1328 120.191 81.9936 120.186 81.8582C120.183 81.72 120.12 81.5808 120.013 81.48C119.909 81.3782 119.773 81.3254 119.641 81.3302C119.507 81.3369 119.372 81.4051 119.274 81.5165C119.178 81.6259 119.129 81.7641 119.137 81.8985Z" stroke="#F68B40" stroke-width="0.288" stroke-miterlimit="10"/>
<path d="M122.035 78.4464C122.316 78.8294 122.317 79.2038 122.041 79.6262C122.031 79.6397 122.025 79.6531 122.021 79.6675C122 79.6732 121.98 79.6819 121.96 79.6953C121.564 79.9804 121.211 79.9795 120.812 79.6915C120.798 79.6809 120.781 79.6732 120.766 79.6675C120.76 79.6483 120.753 79.631 120.741 79.6156C120.464 79.2182 120.466 78.8438 120.742 78.4348C120.752 78.4224 120.758 78.408 120.763 78.3936C120.781 78.3878 120.798 78.3792 120.812 78.3686C121.205 78.0806 121.57 78.0796 121.964 78.3648C121.978 78.3734 121.991 78.3811 122.006 78.3878C122.011 78.4089 122.022 78.4291 122.034 78.4473L122.035 78.4464Z" stroke="#F68B40" stroke-width="0.288" stroke-miterlimit="10"/>
<path d="M121.914 79.0358C121.917 78.7651 121.688 78.5107 121.421 78.4915C121.291 78.4819 121.155 78.5318 121.047 78.6288C120.938 78.7286 120.872 78.8659 120.863 79.0061C120.856 79.1405 120.908 79.2797 121.005 79.3881C121.104 79.4985 121.238 79.5638 121.373 79.5677C121.378 79.5677 121.382 79.5677 121.387 79.5677C121.514 79.5677 121.644 79.5129 121.744 79.415C121.85 79.3104 121.911 79.1721 121.912 79.0349L121.914 79.0358Z" stroke="#F68B40" stroke-width="0.288" stroke-miterlimit="10"/>
<path d="M129.8 84.3945C130.196 84.1094 130.55 84.1104 130.949 84.4003C130.982 84.4243 131.021 84.4358 131.061 84.4348C131.079 84.504 131.101 84.5721 131.121 84.6374C131.169 84.7881 131.214 84.9292 131.214 85.0579C131.213 85.1942 131.168 85.3392 131.12 85.4937C131.096 85.5629 131.074 85.6368 131.055 85.7097C131.01 85.703 130.962 85.7136 130.925 85.7414C130.548 86.0131 130.19 86.0083 129.797 85.7241C129.774 85.7078 129.751 85.6992 129.725 85.6934C129.723 85.6905 129.722 85.6867 129.721 85.6828C129.445 85.0752 129.445 84.983 129.725 84.4454C129.728 84.4387 129.731 84.432 129.733 84.4243C129.757 84.4204 129.78 84.4099 129.8 84.3945H129.8Z" stroke="#F68B40" stroke-width="0.288" stroke-miterlimit="10"/>
<path d="M129.847 85.0541C129.843 85.3248 130.072 85.5792 130.337 85.6013C130.348 85.6013 130.36 85.6013 130.371 85.6013C130.491 85.6013 130.614 85.5513 130.711 85.464C130.821 85.3641 130.889 85.2269 130.896 85.0877C130.904 84.9533 130.852 84.8141 130.756 84.7056C130.656 84.5952 130.523 84.528 130.388 84.5232C130.258 84.5165 130.12 84.5741 130.016 84.6749C129.911 84.7785 129.849 84.9158 129.847 85.055V85.0541Z" stroke="#F68B40" stroke-width="0.288" stroke-miterlimit="10"/>
<path d="M116.926 79.5965C116.662 79.2125 116.668 78.8428 116.943 78.4377C116.954 78.4214 116.962 78.406 116.967 78.3888C116.984 78.383 116.998 78.3753 117.012 78.3648C117.408 78.0796 117.774 78.0806 118.162 78.3686C118.184 78.383 118.207 78.3936 118.231 78.3993C118.233 78.4003 118.233 78.4022 118.233 78.4051C118.562 79.0636 118.457 79.3785 118.199 79.6492C117.939 79.92 117.647 80.0246 116.992 79.7068C116.982 79.7011 116.969 79.6972 116.959 79.6934C116.956 79.6598 116.945 79.6262 116.925 79.5974L116.926 79.5965Z" stroke="#F68B40" stroke-width="0.288" stroke-miterlimit="10"/>
<path d="M117.064 79.0579C117.08 79.3296 117.325 79.5696 117.589 79.5696C117.723 79.5696 117.857 79.5081 117.959 79.4016C118.061 79.295 118.117 79.1558 118.113 79.0204C118.111 78.8822 118.048 78.743 117.943 78.6403C117.837 78.5404 117.703 78.4857 117.57 78.4905C117.435 78.4963 117.301 78.5625 117.202 78.6748C117.106 78.7843 117.056 78.9225 117.064 79.0569V79.0579Z" stroke="#F68B40" stroke-width="0.288" stroke-miterlimit="10"/>
<path d="M115.833 84.4963C116.097 84.8803 116.091 85.248 115.815 85.654C115.806 85.6684 115.798 85.6848 115.792 85.7001C115.774 85.7059 115.757 85.7145 115.74 85.727C115.354 86.0112 114.992 86.0131 114.6 85.7337C114.58 85.7203 114.56 85.7107 114.537 85.7059C114.534 85.6771 114.523 85.6512 114.507 85.6272C114.243 85.2432 114.249 84.8736 114.524 84.4685C114.534 84.455 114.54 84.4416 114.545 84.4272C114.562 84.4214 114.579 84.4128 114.594 84.4003C114.981 84.1104 115.346 84.1094 115.743 84.3945C115.761 84.407 115.781 84.4156 115.801 84.4224C115.807 84.4473 115.815 84.4732 115.832 84.4953L115.833 84.4963Z" stroke="#F68B40" stroke-width="0.288" stroke-miterlimit="10"/>
<path d="M115.695 85.0608C115.695 84.9235 115.635 84.7852 115.531 84.6806C115.428 84.5769 115.289 84.5165 115.161 84.5222C115.026 84.5251 114.892 84.5904 114.791 84.6979C114.694 84.8064 114.639 84.9446 114.644 85.0809C114.657 85.3526 114.898 85.5965 115.162 85.6013C115.164 85.6013 115.167 85.6013 115.169 85.6013C115.3 85.6013 115.43 85.5437 115.532 85.4409C115.637 85.3373 115.695 85.1981 115.695 85.0608Z" stroke="#F68B40" stroke-width="0.288" stroke-miterlimit="10"/>
<path fill-rule="evenodd" clip-rule="evenodd" d="M28.8729 60.7622C25.9766 63.6585 25.9766 68.4028 28.8729 71.2982L36.9888 79.416L28.8729 87.5318C25.9766 90.4281 25.9766 95.1715 28.8729 98.0678C31.7673 100.962 36.5126 100.962 39.4089 98.0678L49.5705 87.9052C54.239 83.2368 54.239 75.5932 49.5705 70.9248L39.4089 60.7622C37.9612 59.3136 36.0508 58.5916 34.1414 58.5916C32.231 58.5916 30.3216 59.3145 28.8739 60.7622H28.8729Z" fill="url(#paint0_linear_64_9947)"/>
<path fill-rule="evenodd" clip-rule="evenodd" d="M52.394 60.7622C49.4833 63.6729 49.4833 68.3885 52.394 71.2982C55.3018 74.2089 60.0193 74.2089 62.93 71.2982C65.33 68.8982 65.7409 65.2262 64.1607 62.3913C62.5258 62.4288 60.8151 62.3184 59.0285 62.0467C56.9261 61.8365 54.8257 61.2605 52.8135 60.3734C52.6695 60.4963 52.5293 60.6259 52.394 60.7613V60.7622Z" fill="url(#paint1_linear_64_9947)"/>
<path fill-rule="evenodd" clip-rule="evenodd" d="M52.3938 71.2982C55.3016 74.2089 60.0191 74.2089 62.9298 71.2982C63.7419 70.486 64.3276 69.528 64.6828 68.5046C60.1477 66.2688 55.4082 64.7433 50.5563 63.7833C49.7471 66.3484 50.3586 69.264 52.3938 71.2982Z" fill="url(#paint2_linear_64_9947)"/>
<path d="M52.3948 60.7622C54.3138 61.8297 56.3461 62.5526 58.4965 62.7676C60.5855 63.0844 62.5804 63.166 64.4821 63.0422C64.1221 62.2137 63.6047 61.438 62.9298 60.7632C61.4802 59.3145 59.5708 58.5926 57.6604 58.5926C55.7509 58.5926 53.8405 59.3145 52.3948 60.7632V60.7622Z" fill="#464197"/>
<path fill-rule="evenodd" clip-rule="evenodd" d="M37.584 62.6323C37.584 72.3014 40.2614 79.7539 45.6173 84.9897C46.7981 86.1437 48.0595 87.1689 49.4093 88.0675L49.5705 87.9062C54.239 83.2377 54.239 75.5942 49.5705 70.9257L39.4089 60.7632C38.8579 60.214 38.2406 59.7686 37.584 59.4268V62.6323Z" fill="url(#paint3_linear_64_9947)"/>
<path d="M90.0537 80.6774C90.0537 79.9939 89.8828 79.464 89.5401 79.0925C89.1974 78.72 88.6761 78.5337 87.9753 78.5337C87.2726 78.5337 86.7522 78.72 86.4153 79.0925C86.0783 79.464 85.9084 79.9939 85.9084 80.6774V81.6H90.0537V80.6774ZM90.0537 85.655V83.1081H85.9084V85.655H84.2841V80.6774C84.2841 80.1052 84.3638 79.5926 84.5241 79.1376C84.6844 78.6825 84.9196 78.2976 85.2316 77.9817C85.5436 77.664 85.9314 77.4201 86.3942 77.2473C86.8578 77.0745 87.3887 76.9872 87.9858 76.9872C88.5849 76.9872 89.1148 77.0745 89.5785 77.2473C90.0422 77.4211 90.4319 77.6649 90.7478 77.9817C91.0655 78.2976 91.3055 78.6835 91.4697 79.1376C91.6348 79.5926 91.7174 80.1052 91.7174 80.6774V85.655H90.0537ZM81.1775 79.8595C80.9519 79.4438 80.6284 79.1184 80.2041 78.8851C79.7788 78.6518 79.293 78.5347 78.7478 78.5347C78.3225 78.5347 77.9375 78.6067 77.59 78.7497C77.2454 78.8918 76.9478 79.0915 76.701 79.3468C76.4543 79.6032 76.2614 79.9056 76.1222 80.256C75.9839 80.6064 75.9138 80.9904 75.9138 81.406C75.9138 81.8217 75.983 82.2048 76.1222 82.5552C76.2604 82.9056 76.4543 83.2128 76.701 83.471C76.9478 83.7312 77.2454 83.9328 77.59 84.0768C77.9366 84.2189 78.3225 84.2899 78.7478 84.2899C79.4236 84.2899 79.9929 84.1392 80.4556 83.8348C80.9193 83.5324 81.2505 83.1024 81.4502 82.5485V82.5235H78.2274V81.0422H83.2569V81.8342C83.205 82.416 83.0591 82.9507 82.821 83.4393C82.582 83.9289 82.2652 84.3484 81.8668 84.6998C81.4684 85.0521 81.0038 85.3267 80.4758 85.5254C79.9478 85.7251 79.3718 85.824 78.7478 85.824C78.0796 85.824 77.4719 85.7145 76.9209 85.4937C76.3718 85.272 75.8956 84.9657 75.4914 84.5712C75.0882 84.1766 74.7772 83.711 74.5564 83.1734C74.3346 82.6358 74.2242 82.0483 74.2242 81.406C74.2242 80.7744 74.3346 80.1869 74.5564 79.6445C74.7762 79.103 75.0882 78.6355 75.4914 78.2419C75.8946 77.8473 76.3718 77.5392 76.9209 77.3193C77.4719 77.0976 78.0796 76.9872 78.7478 76.9872C79.2681 76.9872 79.7548 77.0563 80.2089 77.1955C80.6639 77.3337 81.0758 77.5286 81.4434 77.7801C81.8111 78.0307 82.1298 78.3321 82.3996 78.6835C82.6674 79.0339 82.8758 79.4265 83.0217 79.8595H81.1766H81.1775ZM71.4959 77.1571H73.1212V82.2768C73.1212 82.8221 73.0425 83.3145 72.887 83.7513C72.7314 84.1891 72.502 84.5616 72.1986 84.8688C71.8943 85.1769 71.5228 85.4131 71.0812 85.5763C70.6386 85.7414 70.1318 85.823 69.5596 85.823C68.9798 85.823 68.4642 85.7414 68.013 85.5763C67.5638 85.4121 67.1865 85.176 66.8841 84.8688C66.5798 84.5625 66.3484 84.1891 66.1881 83.7513C66.0278 83.3136 65.9481 82.8221 65.9481 82.2768V77.1571H67.6108V82.2768C67.6108 82.9085 67.7721 83.4038 68.0918 83.758C68.4114 84.1132 68.8972 84.2899 69.5462 84.2899C70.2047 84.2899 70.6943 84.1123 71.0159 83.758C71.3356 83.4038 71.4959 82.9085 71.4959 82.2768V77.1571ZM60.2303 85.656V82.0694L56.9807 77.1571H58.943L61.0348 80.5613H61.0598L63.1785 77.1571H65.1014L61.8921 82.03V85.655H60.2294L60.2303 85.656Z" fill="#F68B40"/>
<path fill-rule="evenodd" clip-rule="evenodd" d="M127.095 95.591V95.5622C127.088 94.9632 126.844 94.5187 126.367 94.2249C125.881 93.9264 125.195 93.7766 124.31 93.7766C124.003 93.7766 123.539 93.7977 122.918 93.8409C122.662 93.8659 122.462 93.8803 122.318 93.8803C122.173 93.8803 122.055 93.8457 121.966 93.7776C121.876 93.7094 121.832 93.6163 121.832 93.4972C121.832 93.3427 121.938 93.2083 122.15 93.0883C122.363 92.9692 122.62 92.9088 122.918 92.9088C123.344 92.9088 123.768 92.9625 124.189 93.0691C124.611 93.1756 125.064 93.3571 125.55 93.6115L127.019 92.1302C126.491 91.7462 125.885 91.4592 125.199 91.2672C124.514 91.0771 123.834 90.9811 123.16 90.9811C121.789 90.9811 120.752 91.1875 120.044 91.6012C119.338 92.0131 118.982 92.5958 118.982 93.3436C118.982 93.9907 119.219 94.4582 119.692 94.7433C120.165 95.0275 120.781 95.1696 121.539 95.1696C122.006 95.1696 122.462 95.1446 122.906 95.0918C122.991 95.0841 123.104 95.0755 123.243 95.0678C123.384 95.0582 123.51 95.0544 123.62 95.0544C123.799 95.0544 123.939 95.0918 124.043 95.1686C124.145 95.2464 124.195 95.3529 124.195 95.4883C124.195 95.6572 124.091 95.7964 123.883 95.903C123.675 96.0096 123.378 96.0633 122.995 96.0633C122.595 96.0633 122.118 95.9846 121.563 95.8262C121.011 95.6688 120.538 95.4499 120.147 95.1686L118.804 96.9955C119.451 97.4044 120.144 97.7088 120.88 97.9094C121.618 98.1091 122.344 98.2108 123.058 98.2108C124.319 98.2108 125.307 98.0044 126.021 97.5897C126.737 97.1779 127.095 96.5107 127.095 95.591ZM97.8422 87.48H97.7932C97.27 87.4838 96.8793 87.622 96.6239 87.8889C96.3638 88.1606 96.2342 88.5052 96.2342 88.9238C96.2342 89.3491 96.3638 89.6928 96.6239 89.9568C96.8831 90.2208 97.2825 90.3532 97.8182 90.3532C98.3462 90.3532 98.7426 90.2208 99.0066 89.9568C99.2697 89.6928 99.4022 89.3491 99.4022 88.9238C99.4022 88.5148 99.2668 88.1721 98.9932 87.8947C98.7254 87.623 98.3414 87.4848 97.8422 87.48ZM92.1983 88.1443C92.1983 88.5705 92.2146 89.303 92.2492 90.3417C92.2828 91.415 92.3001 92.1936 92.3001 92.6793C92.0707 92.1004 91.7183 91.6732 91.247 91.3968C90.7737 91.1193 90.2073 90.9811 89.542 90.9811C88.9718 90.9811 88.463 91.1529 88.0156 91.4985C87.5692 91.8432 87.2207 92.2982 86.974 92.8656C86.7282 93.4329 86.6044 94.0348 86.6044 94.6732C86.6044 95.3203 86.7282 95.9136 86.974 96.455C87.2207 96.9964 87.5673 97.4227 88.0099 97.7385C88.4524 98.0534 88.9497 98.2118 89.5036 98.2118C90.142 98.2118 90.6959 98.0774 91.1644 97.8076C91.6329 97.5408 91.99 97.1212 92.2367 96.55L92.1993 98.0822H95.086C95.0342 96.4819 95.0082 94.8259 95.0082 93.1132C95.0082 91.3862 95.0332 89.7302 95.086 88.1452H92.1993L92.1983 88.1443ZM89.8732 95.6563C89.6351 95.3827 89.5161 95.0294 89.5161 94.5945C89.5161 94.2038 89.6457 93.8851 89.9059 93.6432C90.166 93.4003 90.4876 93.2803 90.8697 93.2803C91.271 93.2803 91.6012 93.3868 91.8652 93.599C92.1292 93.8112 92.2617 94.1443 92.2617 94.5945C92.2617 95.1052 92.1292 95.4777 91.8652 95.7129C91.6012 95.9462 91.2614 96.0633 90.8438 96.0633C90.4358 96.0633 90.1103 95.927 89.8732 95.6553V95.6563ZM82.823 88.1443C82.823 88.5705 82.8393 89.303 82.8748 90.3417C82.9084 91.415 82.9247 92.1936 82.9247 92.6793C82.6953 92.1004 82.3449 91.6732 81.8716 91.3968C81.3993 91.1193 80.8319 90.9811 80.1667 90.9811C79.5974 90.9811 79.0876 91.1529 78.6393 91.4985C78.1929 91.8432 77.8463 92.2982 77.5977 92.8656C77.3519 93.4329 77.2281 94.0348 77.2281 94.6732C77.2281 95.3203 77.3519 95.9136 77.5977 96.455C77.8454 96.9964 78.191 97.4227 78.6335 97.7385C79.0761 98.0534 79.5753 98.2118 80.1273 98.2118C80.7657 98.2118 81.3206 98.0774 81.789 97.8076C82.2566 97.5408 82.6147 97.1212 82.8623 96.55L82.8239 98.0822H85.7107C85.6598 96.4819 85.6348 94.8259 85.6348 93.1132C85.6348 91.3862 85.6598 89.7302 85.7107 88.1452H82.8239L82.823 88.1443ZM80.4988 95.6563C80.2588 95.3827 80.1398 95.0294 80.1398 94.5945C80.1398 94.2038 80.2703 93.8851 80.5295 93.6432C80.7897 93.4003 81.1113 93.2803 81.4953 93.2803C81.8956 93.2803 82.2278 93.3868 82.4908 93.599C82.7548 93.8112 82.8873 94.1443 82.8873 94.5945C82.8873 95.1052 82.7558 95.4777 82.4908 95.7129C82.2268 95.9462 81.886 96.0633 81.4694 96.0633C81.0604 96.0633 80.7359 95.927 80.4988 95.6553V95.6563ZM110.835 91.4534C110.39 91.7683 110.047 92.1964 109.8 92.736C109.552 93.2774 109.429 93.8707 109.429 94.5177C109.429 95.1494 109.552 95.7254 109.8 96.2496C110.047 96.7737 110.393 97.1884 110.842 97.4947C111.288 97.8019 111.796 97.9545 112.369 97.9545C113.774 97.9545 114.692 97.3497 115.128 96.1401C115.136 96.2774 115.138 96.3878 115.134 96.4732C115.131 96.5568 115.128 96.6268 115.128 96.6777C115.119 96.7536 115.114 96.8822 115.114 97.0617C115.114 98.2857 114.391 98.8992 112.944 98.8992C112.501 98.8992 112.074 98.8416 111.665 98.7283C111.257 98.6121 110.824 98.423 110.362 98.159L109.788 100.114C110.121 100.505 110.607 100.817 111.245 101.052C111.883 101.286 112.608 101.405 113.417 101.405C114.234 101.405 114.976 101.257 115.64 100.962C116.304 100.67 116.837 100.198 117.244 99.551C117.646 98.904 117.849 98.0736 117.849 97.0617C117.849 94.4899 117.87 92.5046 117.913 91.1078H115.461L115.142 92.4998C114.707 91.486 113.77 90.9801 112.331 90.9801C111.777 90.9801 111.279 91.1376 110.837 91.4534H110.835ZM112.731 95.5468C112.471 95.304 112.341 94.9872 112.341 94.5945C112.341 94.1596 112.461 93.8083 112.698 93.5347C112.937 93.263 113.261 93.1257 113.669 93.1257C114.138 93.1257 114.491 93.239 114.73 93.4646C114.968 93.6902 115.088 94.0675 115.088 94.5955C115.088 94.894 115.011 95.1427 114.857 95.3443C114.706 95.544 114.521 95.688 114.309 95.7772C114.096 95.8665 113.891 95.9116 113.696 95.9116C113.312 95.9116 112.99 95.7888 112.73 95.5478L112.731 95.5468ZM104.423 91.4707C104.005 91.8 103.699 92.304 103.502 92.9856L103.132 91.1078C102.586 91.1318 102.157 91.1452 101.842 91.1452C101.544 91.1452 101.115 91.1318 100.552 91.1078C100.62 92.35 100.655 93.5174 100.655 94.608C100.655 95.6976 100.62 96.8563 100.552 98.0812H103.606C103.571 97.392 103.554 96.7584 103.554 96.1785C103.554 95.9068 103.564 95.447 103.579 94.799C103.614 94.366 103.729 94.0233 103.925 93.7728C104.121 93.5203 104.359 93.3945 104.641 93.3945C104.92 93.3945 105.153 93.5068 105.337 93.7267C105.519 93.9494 105.611 94.247 105.611 94.6214C105.611 95.6774 105.585 96.8323 105.534 98.0832H108.408C108.364 97.4016 108.344 96.4963 108.344 95.3635V93.5232C108.344 93.047 108.248 92.6169 108.056 92.2339C107.864 91.8518 107.581 91.5456 107.206 91.3209C106.831 91.0953 106.388 90.982 105.878 90.982C105.325 90.982 104.839 91.1462 104.422 91.4726L104.423 91.4707ZM69.0028 91.9756C68.3126 92.6409 67.9679 93.5049 67.9679 94.5686C67.9679 95.6582 68.3145 96.5385 69.0076 97.2057C69.7007 97.8748 70.773 98.2099 72.2198 98.2099C73.3353 98.2099 74.2415 98.0313 74.9347 97.679C75.6278 97.3238 76.1078 96.8505 76.3718 96.2553C75.4262 95.9318 74.6678 95.6284 74.0985 95.3472C73.9122 95.6035 73.6598 95.8003 73.3449 95.9414C73.0291 96.0816 72.693 96.1516 72.3359 96.1516C71.8415 96.1516 71.4614 96.0345 71.1916 95.7993C70.9238 95.566 70.7558 95.2608 70.6876 94.8864H74.8511H76.4351C76.4524 94.7769 76.461 94.6099 76.461 94.3891C76.461 93.7238 76.2902 93.1353 75.9503 92.6198C75.6086 92.1043 75.1199 91.702 74.4815 91.4131C73.8431 91.1222 73.0895 90.9782 72.2198 90.9782C70.7654 90.9782 69.6921 91.3104 69.0019 91.9737L69.0028 91.9756ZM71.3519 93.1507C71.6236 92.9904 71.9731 92.9078 72.3983 92.9078C72.7651 92.9078 73.0636 92.9913 73.293 93.1584C73.5234 93.3235 73.6886 93.5443 73.7913 93.816H70.7769C70.8863 93.5347 71.0793 93.3129 71.351 93.1507H71.3519ZM96.3244 91.1078C96.3926 92.4278 96.4262 93.6201 96.4262 94.6838C96.4262 95.5785 96.3964 96.7123 96.3379 98.0812H99.3763C99.3177 96.7536 99.2879 95.6208 99.2879 94.6838C99.2879 93.5692 99.3215 92.3769 99.3897 91.1078H96.3244ZM65.6802 91.1078L64.583 96.1142L63.8668 91.1078H61.3507L60.6095 96.1017L59.5228 91.1078H56.9817L58.4006 98.0812H61.6838L62.59 94.8249L63.3954 98.0812H66.8063L68.2233 91.1078H65.6812H65.6802Z" fill="url(#paint4_linear_64_9947)"/>
<defs>
<linearGradient id="paint0_linear_64_9947" x1="27.3763" y1="79.0598" x2="51.983" y2="79.0598" gradientUnits="userSpaceOnUse">
<stop stop-color="#B1306F"/>
<stop offset="1" stop-color="#6D2847"/>
</linearGradient>
<linearGradient id="paint1_linear_64_9947" x1="86.1965" y1="58.0435" x2="26.1668" y2="58.0435" gradientUnits="userSpaceOnUse">
<stop stop-color="#D93438"/>
<stop offset="1" stop-color="#F47F3B"/>
</linearGradient>
<linearGradient id="paint2_linear_64_9947" x1="68.3605" y1="65.086" x2="48.7832" y2="76.0089" gradientUnits="userSpaceOnUse">
<stop stop-color="#FAB683"/>
<stop offset="1" stop-color="#FAB683"/>
</linearGradient>
<linearGradient id="paint3_linear_64_9947" x1="37.583" y1="70.9027" x2="72.5865" y2="70.9027" gradientUnits="userSpaceOnUse">
<stop stop-color="#EE4274"/>
<stop offset="1" stop-color="#6D2847"/>
</linearGradient>
<linearGradient id="paint4_linear_64_9947" x1="92.038" y1="101.403" x2="92.038" y2="87.48" gradientUnits="userSpaceOnUse">
<stop stop-color="#A161A6"/>
<stop offset="1" stop-color="#464197"/>
</linearGradient>
</defs>
</svg>
