<svg width="160" height="160" viewBox="0 0 160 160" fill="none" xmlns="http://www.w3.org/2000/svg">
<path d="M66.9023 81.8096H70.3458C70.5724 81.8096 70.7577 81.632 70.7577 81.4131C70.7577 81.1827 70.5762 81.0022 70.3458 81.0022H66.9023C64.9881 81.0022 63.4319 79.4422 63.4319 77.5232V77.1478H69.7343C69.9513 77.1478 70.1279 76.9625 70.1279 76.735C70.1279 76.5219 69.9474 76.3405 69.7343 76.3405H63.4319V75.9642C63.4319 74.047 64.9881 72.4851 66.9023 72.4851H70.3458C70.5772 72.4851 70.7577 72.3037 70.7577 72.0733C70.7577 71.8563 70.5724 71.6787 70.3458 71.6787H66.9023C64.5849 71.6787 62.6265 73.641 62.6265 75.9642V77.5232C62.6265 79.8464 64.5858 81.8086 66.9023 81.8086V81.8096Z" fill="black"/>
<path d="M76.6407 74.0634H75.2938C73.5725 74.0634 72.1402 75.4794 72.1028 77.2256V81.3958C72.1028 81.6281 72.2823 81.8086 72.5137 81.8086C72.7306 81.8086 72.9082 81.6233 72.9082 81.3958V77.2122C72.9418 75.9411 74.0333 74.8678 75.2938 74.8678H76.6407C77.9338 74.8678 79.0273 75.9642 79.0273 77.2602V81.3958C79.0273 81.6233 79.2029 81.8086 79.4199 81.8086C79.6513 81.8086 79.8317 81.6272 79.8317 81.3958V77.2256C79.8317 75.511 78.3687 74.0634 76.6397 74.0634H76.6407Z" fill="black"/>
<path d="M86.3923 80.8304L88.9901 74.6115C89.0285 74.553 89.0285 74.4839 89.0285 74.4407C89.0285 74.2304 88.8557 74.0643 88.6339 74.0643C88.4995 74.0643 88.3373 74.1575 88.3075 74.2899L85.703 80.5367C85.5523 80.8554 85.2768 81.0368 84.9456 81.0368C84.5894 81.0368 84.3283 80.8659 84.1901 80.5443L81.5808 74.2794C81.5184 74.1546 81.3744 74.0643 81.2381 74.0643C81.0182 74.0643 80.8445 74.2295 80.8445 74.4407C80.8445 74.4829 80.8445 74.5511 80.8819 74.6096L83.4806 80.8323C83.7418 81.4352 84.3034 81.8087 84.9456 81.8087C85.5926 81.8087 86.1475 81.4333 86.3923 80.8295V80.8304Z" fill="black"/>
<path d="M90.7854 74.1517C90.555 74.1517 90.3735 74.3331 90.3735 74.5635V81.4141C90.3735 81.631 90.5588 81.8086 90.7854 81.8086C90.9985 81.8086 91.179 81.6272 91.179 81.4141V74.5635C91.179 74.337 91.0033 74.1517 90.7854 74.1517Z" fill="black"/>
<path d="M90.7854 72.0829C90.5204 72.0829 90.3035 72.2989 90.3035 72.5658C90.3035 72.8326 90.5195 73.0486 90.7854 73.0486C91.0503 73.0486 91.2663 72.8326 91.2663 72.5658C91.2663 72.2989 91.0503 72.0829 90.7854 72.0829Z" fill="black"/>
<path d="M93.5289 81.8096C93.7554 81.8096 93.9417 81.632 93.9417 81.4151V79.1283H96.7813C97.0079 79.1283 97.1932 78.9507 97.1932 78.7338C97.1932 78.5043 97.0117 78.3229 96.7813 78.3229H93.9417V74.8429C93.9417 73.544 94.9958 72.4871 96.2918 72.4871H96.957C97.174 72.4871 97.3506 72.3018 97.3506 72.0752C97.3506 71.8621 97.1711 71.6807 96.957 71.6807H96.2918C94.5513 71.6807 93.1362 73.1005 93.1362 74.8429V81.4151C93.1362 81.6282 93.3157 81.8096 93.5289 81.8096Z" fill="black"/>
<path d="M105.419 74.0643C105.202 74.0643 105.026 74.2496 105.026 74.4762V78.6109C105.026 79.9079 103.933 81.0032 102.639 81.0032H102.01C100.726 81.0032 99.6547 79.9443 99.6231 78.6474V74.4771C99.6231 74.2506 99.4474 74.0653 99.2295 74.0653C98.9991 74.0653 98.8176 74.2467 98.8176 74.4771V78.6503C98.8551 80.3927 100.287 81.8106 102.01 81.8106H102.639C104.362 81.8106 105.793 80.3936 105.831 78.6483V74.4781C105.831 74.2477 105.65 74.0663 105.42 74.0663L105.419 74.0643Z" fill="black"/>
<path d="M110.839 81.0032H110.175C108.877 81.0032 107.823 79.9463 107.823 78.6445V74.8525H110.664C110.895 74.8525 111.075 74.6711 111.075 74.4407C111.075 74.2237 110.891 74.0461 110.664 74.0461H107.823V72.0743C107.823 71.8573 107.638 71.6807 107.412 71.6807C107.199 71.6807 107.017 71.8611 107.017 72.0743V78.6445C107.017 80.3898 108.433 81.8087 110.175 81.8087H110.839C111.052 81.8087 111.232 81.6291 111.232 81.416C111.232 81.1895 111.057 81.0032 110.839 81.0032Z" fill="black"/>
<path d="M119.441 74.0643C119.224 74.0643 119.047 74.2496 119.047 74.4762V78.6109C119.047 79.9079 117.955 81.0032 116.661 81.0032H116.031C114.748 81.0032 113.678 79.9443 113.645 78.6474V74.4771C113.645 74.2506 113.469 74.0653 113.252 74.0653C113.021 74.0653 112.84 74.2467 112.84 74.4771V78.6503C112.879 80.3927 114.309 81.8106 116.032 81.8106H116.662C118.384 81.8106 119.816 80.3936 119.854 78.6483V74.4781C119.854 74.2477 119.673 74.0663 119.442 74.0663L119.441 74.0643Z" fill="black"/>
<path d="M125.175 74.0633H124.232C122.509 74.0633 121.078 75.4793 121.04 77.2448V81.3968C121.04 81.6291 121.221 81.8096 121.451 81.8096C121.668 81.8096 121.846 81.6243 121.846 81.3968V77.2131C121.877 75.9421 122.97 74.8688 124.232 74.8688H125.175C125.781 74.8688 126.395 75.127 126.859 75.5753C126.941 75.655 127.034 75.6944 127.151 75.6944C127.368 75.6944 127.545 75.5091 127.545 75.2816C127.545 75.1568 127.491 75.0473 127.428 75.008C126.839 74.3984 126.039 74.0624 125.175 74.0624V74.0633Z" fill="black"/>
<path d="M131.628 74.8698H132.974C134.268 74.8698 135.36 75.9642 135.36 77.2611V78.2864H129.241V77.2611C129.241 75.9642 130.334 74.8698 131.628 74.8698ZM132.974 74.0643H131.628C129.899 74.0643 128.436 75.5283 128.436 77.2611V78.4707C128.436 80.3427 129.838 81.8096 131.628 81.8096H134.88C135.097 81.8096 135.275 81.6243 135.275 81.3978C135.275 81.1827 135.093 81.0032 134.88 81.0032H131.628C130.696 81.0032 129.824 80.4311 129.456 79.5795L129.243 79.0938H135.581C135.903 79.0938 136.165 78.8231 136.165 78.4899V77.2611C136.165 75.5274 134.704 74.0643 132.975 74.0643H132.974Z" fill="black"/>
<path d="M66.4993 88.5623C66.242 88.4605 65.8983 88.3568 65.475 88.2531C65.1083 88.161 64.8145 88.0755 64.6043 87.9959C64.4094 87.9239 64.251 87.8221 64.1185 87.6848C64.0023 87.5639 63.9447 87.4007 63.9447 87.1875C63.9447 86.9024 64.058 86.6759 64.2884 86.4944C64.5275 86.3063 64.8961 86.2103 65.3847 86.2103C65.6353 86.2103 65.8926 86.2506 66.1499 86.3264C66.411 86.4051 66.6433 86.5146 66.8564 86.6624C66.8977 86.6922 66.9486 86.7027 66.9947 86.6864C67.0427 86.6739 67.0811 86.6413 67.1031 86.5962L67.2558 86.2611C67.2903 86.1891 67.2683 86.1008 67.2011 86.0557C66.9649 85.8877 66.6836 85.7533 66.362 85.6554C66.0443 85.5594 65.715 85.5095 65.3828 85.5095C64.8999 85.5095 64.5083 85.5815 64.1857 85.7264C63.8555 85.8762 63.6039 86.0835 63.4407 86.3408C63.2766 86.5981 63.194 86.8861 63.194 87.1962C63.194 87.5783 63.2977 87.8912 63.4993 88.1264C63.6942 88.3501 63.9332 88.5181 64.2107 88.6247C64.4718 88.7274 64.8078 88.8272 65.2398 88.9338C65.6007 89.0192 65.8907 89.1018 66.1028 89.1815C66.2948 89.2535 66.4571 89.3591 66.5867 89.4935C66.7028 89.6135 66.7585 89.7747 66.7585 89.9898C66.7585 90.2682 66.6452 90.4899 66.411 90.6656C66.1643 90.8499 65.7812 90.9431 65.2772 90.9431C64.9278 90.9431 64.588 90.8787 64.2664 90.7549C63.9534 90.632 63.7009 90.4707 63.5156 90.2749C63.4782 90.2375 63.4283 90.2096 63.3755 90.224C63.3246 90.2298 63.2785 90.2586 63.2516 90.3037L63.0635 90.6147C63.0251 90.6791 63.0337 90.7587 63.0836 90.8135C63.3131 91.0611 63.6318 91.2627 64.0311 91.4173C64.4257 91.5671 64.8491 91.6439 65.2859 91.6439C65.7591 91.6439 66.1643 91.5709 66.4945 91.425C66.8334 91.2752 67.0897 91.0717 67.2558 90.8154C67.4228 90.5591 67.5073 90.273 67.5073 89.9648C67.5073 89.5875 67.4036 89.2784 67.2001 89.049C67.0062 88.8301 66.7691 88.6659 66.4964 88.5594L66.4993 88.5623Z" fill="black"/>
<path d="M71.8349 89.3043C71.8349 89.623 71.7667 89.9091 71.6313 90.1558V90.1568C71.4979 90.4006 71.3126 90.5946 71.0803 90.729C70.847 90.8672 70.5878 90.9354 70.2883 90.9354C69.9936 90.9354 69.7267 90.8662 69.4963 90.727C69.2649 90.5936 69.0806 90.4006 68.9453 90.1549C68.8099 89.9091 68.7427 89.623 68.7427 89.3034C68.7427 88.9846 68.8109 88.6976 68.9453 88.4509C69.0806 88.207 69.2669 88.0131 69.4973 87.8787C69.7277 87.7405 69.9945 87.6704 70.2883 87.6704C70.583 87.6704 70.8499 87.7414 71.0813 87.8797C71.3107 88.0131 71.496 88.2051 71.6304 88.449C71.7657 88.6966 71.8339 88.9846 71.8339 89.3024L71.8349 89.3043ZM71.4605 87.272C70.7645 86.8736 69.8121 86.8736 69.1181 87.272C68.7715 87.4698 68.4921 87.751 68.2925 88.1082C68.0937 88.4605 67.9939 88.8627 67.9939 89.3043C67.9939 89.745 68.0937 90.1491 68.2925 90.5024C68.4912 90.8586 68.7696 91.1398 69.1181 91.3376C69.4656 91.5373 69.8592 91.6371 70.2883 91.6371C70.7193 91.6371 71.112 91.5373 71.4605 91.3376C71.8089 91.1389 72.0864 90.8576 72.2861 90.5014C72.4848 90.1462 72.5846 89.744 72.5846 89.3043C72.5846 88.8656 72.4848 88.4634 72.2861 88.1072C72.0845 87.751 71.807 87.4698 71.4605 87.272Z" fill="black"/>
<path d="M74.089 85.2061H73.681C73.5888 85.2061 73.5139 85.2809 73.5139 85.3731V91.4384C73.5139 91.5305 73.5888 91.6054 73.681 91.6054H74.089C74.1811 91.6054 74.256 91.5305 74.256 91.4384V85.3731C74.256 85.2809 74.1811 85.2061 74.089 85.2061Z" fill="black"/>
<path d="M79.536 87.0051H79.128C79.0358 87.0051 78.9609 87.08 78.9609 87.1722V89.4445C78.9609 89.912 78.84 90.2701 78.5865 90.5408C78.3369 90.8086 78.0038 90.9382 77.5708 90.9382C77.1744 90.9382 76.8652 90.8288 76.6531 90.6118C76.4419 90.3958 76.3344 90.0675 76.3344 89.6346V87.1731C76.3344 87.081 76.2595 87.0061 76.1673 87.0061H75.7593C75.6672 87.0061 75.5923 87.081 75.5923 87.1731V89.6662C75.5923 90.2931 75.768 90.7837 76.1145 91.1245C76.4611 91.4662 76.9401 91.639 77.5363 91.639C77.9404 91.639 78.2985 91.5469 78.6009 91.3674C78.742 91.2819 78.8678 91.1811 78.9772 91.065V91.4403C78.9772 91.5334 79.0521 91.6074 79.1443 91.6074H79.535C79.6272 91.6074 79.702 91.5334 79.702 91.4403V87.1741C79.702 87.0819 79.6272 87.007 79.535 87.007L79.536 87.0051Z" fill="black"/>
<path d="M83.3501 90.7962C83.3252 90.752 83.281 90.7232 83.2311 90.7146C83.1812 90.705 83.1293 90.7232 83.0938 90.7587C82.9517 90.8883 82.7722 90.9526 82.5457 90.9526C82.3306 90.9526 82.178 90.8989 82.0762 90.7894C81.9735 90.6771 81.9197 90.5014 81.9197 90.2682V87.6896H83.1073C83.1994 87.6896 83.2743 87.6147 83.2743 87.5226V87.1702C83.2743 87.0781 83.1994 87.0032 83.1073 87.0032H81.9197V86.2381C81.9197 86.1459 81.8449 86.071 81.7527 86.071H81.3457C81.2535 86.071 81.1786 86.1459 81.1786 86.2381V87.0032H80.5623C80.4701 87.0032 80.3953 87.0781 80.3953 87.1702V87.5226C80.3953 87.6147 80.4701 87.6896 80.5623 87.6896H81.1786V90.3114C81.1786 90.7194 81.2957 91.0458 81.5281 91.279C81.7604 91.5171 82.0877 91.6381 82.5044 91.6381C82.6877 91.6381 82.8692 91.6083 83.041 91.5517C83.2167 91.4931 83.3684 91.4058 83.4903 91.2906C83.546 91.2368 83.5585 91.1523 83.5181 91.0851L83.3473 90.7971L83.3501 90.7962Z" fill="black"/>
<path d="M84.9188 87.0051H84.5108C84.4186 87.0051 84.3438 87.08 84.3438 87.1722V91.4384C84.3438 91.5315 84.4186 91.6054 84.5108 91.6054H84.9188C85.0109 91.6054 85.0858 91.5315 85.0858 91.4384V87.1722C85.0858 87.08 85.0109 87.0051 84.9188 87.0051Z" fill="black"/>
<path d="M84.361 85.4508C84.2631 85.5478 84.2141 85.6678 84.2141 85.807C84.2141 85.9433 84.265 86.0652 84.3619 86.1593C84.4579 86.2524 84.5789 86.3004 84.7152 86.3004C84.8515 86.3004 84.9744 86.2486 85.0685 86.1526C85.1664 86.0556 85.2164 85.9366 85.2164 85.7993C85.2164 85.6592 85.1655 85.5401 85.0637 85.4432C84.8679 85.2579 84.5444 85.2656 84.36 85.4508H84.361Z" fill="black"/>
<path d="M89.8502 89.3043C89.8502 89.623 89.7821 89.9091 89.6457 90.1558V90.1568C89.5123 90.4006 89.327 90.5946 89.0947 90.729C88.8614 90.8672 88.6022 90.9354 88.3037 90.9354C88.0022 90.9354 87.744 90.8672 87.5107 90.727C87.2803 90.5936 87.096 90.4006 86.9616 90.1549C86.8262 89.9091 86.7581 89.623 86.7581 89.3034C86.7581 88.9846 86.8262 88.6976 86.9616 88.4509C87.0979 88.2051 87.2813 88.0131 87.5126 87.8787C87.744 87.7405 88.0099 87.6704 88.3046 87.6704C88.6022 87.6704 88.8605 87.7386 89.0966 87.8797C89.3261 88.0131 89.5113 88.2051 89.6457 88.449C89.7821 88.6966 89.8502 88.9846 89.8502 89.3024V89.3043ZM89.4749 87.272C88.7798 86.8736 87.8265 86.8736 87.1325 87.272C86.7859 87.4698 86.5085 87.751 86.3059 88.1082C86.1081 88.4614 86.0083 88.8646 86.0083 89.3043C86.0083 89.744 86.1081 90.1482 86.3069 90.5024C86.5065 90.8576 86.784 91.1389 87.1325 91.3376C87.4809 91.5373 87.8736 91.6371 88.3046 91.6371C88.7337 91.6371 89.1273 91.5373 89.4749 91.3376C89.8233 91.1389 90.1008 90.8576 90.3005 90.5014C90.4992 90.1462 90.599 89.744 90.599 89.3043C90.599 88.8656 90.4992 88.4634 90.3005 88.1072C90.0989 87.751 89.8224 87.4698 89.4749 87.272Z" fill="black"/>
<path d="M93.7757 86.9725C93.3504 86.9725 92.976 87.0647 92.6611 87.248C92.5085 87.3363 92.3722 87.4439 92.2541 87.5648V87.1703C92.2541 87.0781 92.1792 87.0032 92.087 87.0032H91.6954C91.6051 87.0032 91.5283 87.0781 91.5283 87.1703V91.4384C91.5283 91.5306 91.6042 91.6055 91.6954 91.6055H92.1043C92.1946 91.6055 92.2714 91.5306 92.2714 91.4384V89.1661C92.2714 88.7063 92.401 88.3367 92.6573 88.0717C92.9146 87.8019 93.2621 87.6714 93.72 87.6714C94.1098 87.6714 94.4026 87.7779 94.6147 87.9978C94.8259 88.2147 94.9325 88.544 94.9325 88.976V91.4375C94.9325 91.5296 95.0074 91.6045 95.0995 91.6045H95.5066C95.5987 91.6045 95.6736 91.5296 95.6736 91.4375V88.9424C95.6736 88.3155 95.4998 87.8259 95.16 87.4861C94.8182 87.1434 94.3546 86.9706 93.7766 86.9706L93.7757 86.9725Z" fill="black"/>
<path d="M99.266 89.1824C99.266 89.1824 99.266 89.1824 99.2641 89.1814C99.0557 89.1133 98.786 89.048 98.4413 88.9875C98.1399 88.9251 97.9172 88.8713 97.7597 88.8205C97.6186 88.7763 97.5025 88.711 97.4036 88.6217C97.3249 88.5459 97.2865 88.4403 97.2865 88.2973C97.2865 88.1091 97.3594 87.9699 97.5197 87.8518C97.6906 87.727 97.9585 87.6627 98.3185 87.6627C98.5354 87.6627 98.7505 87.6944 98.9569 87.7558C99.1594 87.8163 99.3437 87.9027 99.5012 88.016C99.5396 88.0438 99.5876 88.0544 99.6327 88.0429C99.6797 88.0333 99.7201 88.0035 99.7421 87.9641L99.9303 87.6377C99.9725 87.5629 99.9533 87.4707 99.8852 87.4208C99.6999 87.2825 99.4676 87.175 99.1796 87.0925C98.9012 87.0109 98.6141 86.9715 98.3261 86.9715C97.7741 86.9715 97.3383 87.0953 97.0273 87.3382C96.7076 87.5917 96.5444 87.9171 96.5444 88.3078C96.5444 88.6294 96.6337 88.8867 96.8093 89.0749C96.9773 89.2563 97.1789 89.3859 97.4055 89.4617C97.6215 89.5366 97.8961 89.6019 98.2455 89.6643C98.521 89.7161 98.7437 89.767 98.905 89.815C99.0413 89.8563 99.1585 89.9216 99.2516 90.0051C99.3293 90.08 99.3658 90.176 99.3658 90.3104C99.3658 90.5033 99.289 90.6521 99.1316 90.7606C98.9569 90.8816 98.6689 90.944 98.2753 90.944C97.9978 90.944 97.7271 90.8969 97.4708 90.8077C97.2164 90.7145 97.0071 90.5993 96.8497 90.4678C96.8122 90.4361 96.7575 90.4227 96.7143 90.4323C96.6644 90.44 96.6241 90.4697 96.5981 90.512L96.41 90.8393C96.3716 90.9075 96.385 90.9929 96.4417 91.0457C96.6308 91.2176 96.8967 91.3616 97.2279 91.472C97.5553 91.5814 97.9018 91.6361 98.2589 91.6361C98.8244 91.6361 99.2756 91.5171 99.5962 91.2857C99.9351 91.0419 100.105 90.7097 100.105 90.3017C100.105 89.9907 100.019 89.7421 99.8477 89.5577C99.6874 89.3849 99.4906 89.2592 99.2631 89.1814L99.266 89.1824Z" fill="black"/>
<path fill-rule="evenodd" clip-rule="evenodd" d="M39.2227 65H39.1046C38.641 65.0029 38.183 65.0298 37.7309 65.072C37.2538 65.119 36.7843 65.1891 36.3206 65.2774C35.8387 65.3696 35.3683 65.4858 34.9046 65.6221C34.4189 65.7642 33.9437 65.9302 33.4781 66.1184C32.9894 66.3181 32.5094 66.5379 32.0467 66.7866C27.2602 69.345 24 74.3946 24 80.2093C24 86.024 27.2611 91.0746 32.0477 93.632C32.5114 93.8787 32.9914 94.0986 33.481 94.2973C33.9446 94.4854 34.4218 94.6515 34.9046 94.7946C35.3702 94.929 35.8406 95.0451 36.3206 95.1373C36.7843 95.2256 37.2557 95.2976 37.7309 95.3418C38.2051 95.3869 38.687 95.4147 39.1738 95.4147C39.1757 95.4147 39.1766 95.4147 39.1795 95.4147C39.6586 95.4147 40.1318 95.3859 40.5994 95.3427C41.0851 95.2976 41.5661 95.2294 42.0384 95.1382C42.5117 95.049 42.9782 94.9366 43.4362 94.8042C43.8864 94.6707 44.327 94.5162 44.7571 94.3434C45.2141 94.1619 45.6595 93.9613 46.0934 93.7386C46.5466 93.5053 46.9882 93.2518 47.4144 92.9763C47.8435 92.696 48.2573 92.3946 48.6547 92.0739C49.151 91.6765 49.6214 91.2474 50.063 90.7914C50.4326 90.4102 50.784 90.0099 51.1123 89.5914L51.0874 89.5712L50.9712 89.481L50.857 89.3888L50.7427 89.2986L50.6266 89.2064L50.5114 89.1162L50.3952 89.0259L50.281 88.9338L50.1667 88.8435L50.0506 88.7514L49.9354 88.6611L49.8192 88.569L49.705 88.4768L49.5907 88.3866L49.4746 88.2963L49.3594 88.2042L49.2432 88.1139L49.129 88.0218L49.0147 87.9315L48.8976 87.8413L48.7834 87.7491L48.6682 87.6589L48.552 87.5667L48.4378 87.4765L48.3216 87.3843L48.2074 87.2941L48.0922 87.2019L47.976 87.1098L47.8618 87.0195L47.7456 86.9293L47.6314 86.8371L47.5162 86.7469L47.4 86.6547L47.2858 86.5645L47.1696 86.4742L47.0554 86.3821L46.9402 86.2918L46.824 86.1997L46.7098 86.1094L46.5936 86.0192L46.4794 85.9261L46.3632 85.8358L46.2461 85.7437L46.1299 85.6506L46.0147 85.5584L45.8976 85.4662L45.7814 85.3731L45.6653 85.281L45.5491 85.1907L45.432 85.0976L45.3158 85.0054L45.1987 84.9133L45.1584 84.8797C45.0691 84.9958 44.9674 85.0995 44.8714 85.209C44.689 85.4182 44.497 85.616 44.2944 85.8042C44.0995 85.9818 43.8979 86.1498 43.6867 86.3082C43.487 86.456 43.2816 86.5962 43.0685 86.7238C42.8688 86.8438 42.6672 86.9581 42.455 87.0618C42.2496 87.1616 42.0394 87.2538 41.8234 87.3334C41.5997 87.417 41.3674 87.4851 41.1341 87.5485C40.9037 87.6099 40.6685 87.6579 40.4314 87.6982C40.1981 87.7376 39.9638 87.7635 39.7248 87.7827C39.5434 87.7962 39.3638 87.8134 39.1786 87.8134C39.1306 87.8134 39.0826 87.8077 39.0336 87.8067C38.7898 87.801 38.5469 87.7885 38.3098 87.7616C38.0602 87.7328 37.8134 87.6906 37.5725 87.6406C37.3152 87.583 37.0637 87.5139 36.817 87.4342C36.5539 87.3478 36.2995 87.2451 36.049 87.1318C35.7821 87.009 35.5248 86.8726 35.2752 86.721C35.0074 86.5597 34.751 86.383 34.5072 86.193C34.2278 85.9741 33.9648 85.736 33.719 85.4797C33.4099 85.1581 33.1267 84.8115 32.8781 84.44C32.5315 83.9226 32.2522 83.3542 32.041 82.7562C31.7597 81.9613 31.5984 81.1107 31.5984 80.2198C31.5984 79.329 31.7597 78.4784 32.041 77.6854C32.2522 77.0864 32.5306 76.52 32.8771 75.9997C33.1248 75.6282 33.409 75.2826 33.7171 74.96C33.9629 74.7037 34.2259 74.4666 34.5062 74.2467C34.7501 74.0547 35.0064 73.879 35.2733 73.7187C35.5219 73.567 35.7802 73.4298 36.048 73.3078C36.2976 73.1946 36.552 73.0909 36.816 73.0035C37.0618 72.9238 37.3123 72.8538 37.5706 72.7981C37.8125 72.7443 38.0573 72.705 38.3069 72.6771C38.5459 72.6493 38.7869 72.6349 39.0307 72.6301C39.0816 72.6291 39.1306 72.6224 39.1805 72.6224C39.3792 72.6224 39.5722 72.6368 39.767 72.6474C40.0579 72.6637 40.343 72.6896 40.6243 72.727C41.0006 72.7779 41.3654 72.847 41.7206 72.9354C42.1978 73.0554 42.6509 73.2109 43.079 73.399C43.6214 73.6371 44.1168 73.9299 44.5536 74.2707C44.8762 74.5232 45.1766 74.792 45.4272 75.0963L45.4022 75.1069L45.2563 75.1731L45.1114 75.2384L44.9654 75.3056L44.8205 75.3718L44.6736 75.4381L44.521 75.5072L44.3683 75.5763L44.2166 75.6445L44.064 75.7136L43.9114 75.7846L43.7587 75.8528L43.6013 75.9248L43.44 75.9978L43.2778 76.0707L43.0982 76.1523L42.9312 76.2301L42.7642 76.305L42.5971 76.3818L42.4301 76.4576L42.2486 76.5402L42.047 76.6304L41.8474 76.7226L41.6477 76.8118L41.4461 76.904L41.1811 77.024L40.9171 77.144L40.584 77.2966L40.104 77.5136L39.8928 77.6106L40.1357 77.6576L40.559 77.7402L41.9021 78.0013L42.3197 78.0829L42.6211 78.1405L42.8918 78.1942L43.1174 78.2384L43.344 78.2835L43.5696 78.3258L43.7549 78.3613L43.9411 78.3987L44.1264 78.4342L44.3117 78.4707L44.497 78.5062L44.6832 78.5418L44.8502 78.5734L45.0115 78.6051L45.1757 78.6368L45.3581 78.6723L45.5261 78.704L45.6874 78.7347L45.8477 78.7664L46.008 78.7971L46.1664 78.8288L46.3248 78.8595L46.4851 78.8902L46.6435 78.921L46.8038 78.9517L46.9584 78.9824L47.112 79.0122L47.2637 79.0429L47.4154 79.0726L47.569 79.1014L47.7226 79.1312L47.8742 79.1619L48.0269 79.1917L48.1795 79.2205L48.1958 79.2243L48.1814 79.2301L48.0413 79.2838L47.9011 79.3357L47.761 79.3894L47.6208 79.4442L47.4806 79.496L47.3395 79.5498L47.1955 79.6045L47.0515 79.6592L46.9094 79.7139L46.7654 79.7686L46.6195 79.8234L46.4755 79.8771L46.3315 79.9338L46.1875 79.9875L46.0435 80.0432L45.8995 80.097L45.7555 80.1526L45.6134 80.2064L45.4608 80.264L45.3091 80.3226L45.1565 80.3802L45.0038 80.4378L44.8522 80.4944L44.7005 80.552L44.5469 80.6106L44.3952 80.6691L44.2435 80.7267L44.0899 80.7843L43.9382 80.841L43.7712 80.9053L43.5965 80.9706L43.4246 81.0358L43.2509 81.103L43.0781 81.1683L42.8765 81.2442L42.6672 81.3229L42.4445 81.4083L42.169 81.512L41.7859 81.656L40.9824 81.9613L40.5878 82.112L40.3066 82.2186L40.0838 82.3021L39.863 82.3856L39.6816 82.4547L39.5002 82.5219L39.3206 82.5901L39.1411 82.6592L38.9808 82.7197L38.8234 82.7782L38.6669 82.8387L38.5094 82.8982L38.352 82.9568L38.1946 83.0163L38.0371 83.0768L37.8797 83.1373L37.7318 83.192L37.5878 83.2467L37.4438 83.3014L37.2998 83.3571L37.1414 83.4176L36.9936 83.4723L36.8458 83.528L36.6989 83.5846L36.5568 83.6384L36.4138 83.6941L36.2717 83.7478L36.1286 83.8026L35.9866 83.8563L35.8445 83.911L35.7456 83.9485L35.8541 83.9235L36.0086 83.8861L36.1651 83.8486L36.3216 83.8122L36.4781 83.7747L36.6403 83.7354L36.8026 83.697L36.9658 83.6586L37.1299 83.6211L37.2922 83.5808L37.4563 83.5424L37.6339 83.5011L37.8125 83.4589L37.9901 83.4176L38.1686 83.3754L38.3472 83.3341L38.5258 83.2899L38.7043 83.2486L38.9088 83.2006L39.1238 83.1498L39.337 83.0989L39.5501 83.048L39.8179 82.9856L40.0982 82.9194L40.4592 82.832L41.0707 82.688L41.6573 82.5498L42.2602 82.4067L42.5818 82.3309L42.8822 82.2598L43.1184 82.2042L43.3526 82.1485L43.583 82.0947L43.7722 82.0496L43.9632 82.0045L44.1533 81.9594L44.3443 81.9152L44.5363 81.8701L44.712 81.8278L44.8771 81.7894L45.0413 81.751L45.2083 81.7126L45.3984 81.6675L45.5597 81.6282L45.721 81.5898L45.8813 81.5514L46.0426 81.5139L46.2038 81.4765L46.3651 81.4381L46.5264 81.4006L46.679 81.3632L46.8326 81.3277L46.9862 81.2922L47.1389 81.2547L47.2934 81.2192L47.4461 81.1827L47.6006 81.1472L47.7542 81.1098L47.9078 81.0742L48.0624 81.0387L48.216 81.0013L48.3658 80.9667L48.5155 80.9312L48.6634 80.8966L48.8112 80.8621L48.961 80.8275L49.1078 80.792L49.2576 80.7574L49.4074 80.7229L49.5552 80.6883L49.703 80.6518L49.8528 80.6173L50.0006 80.5808L50.1504 80.5462L50.2973 80.5098L50.447 80.4752L50.5968 80.4406L50.7437 80.4061L50.8934 80.3706L51.0432 80.336L51.191 80.3014L51.3389 80.2669L51.4886 80.2314L51.6326 80.1978L51.7786 80.1622L51.9235 80.1277L52.0694 80.0941L52.2144 80.0595L52.3584 80.0259L52.5043 79.9914L52.6502 79.9568L52.7952 79.9222L52.9411 79.8877L53.0851 79.8541L53.2291 79.8195L53.3741 79.7859L53.52 79.7514L53.665 79.7178L53.809 79.6822L53.9549 79.6477L54.0998 79.6141L54.2458 79.5795L54.3907 79.5459L54.5347 79.5114L54.6806 79.4768L54.8256 79.4422L54.9696 79.4077L55.1155 79.3741L55.2605 79.3395L55.4045 79.3059L55.5504 79.2714L55.6954 79.2378L55.8413 79.2022L55.9872 79.1677L56.1312 79.1341L56.2762 79.0995L56.4221 79.0659L56.567 79.0314L56.711 78.9968L57.5501 78.7981L56.6938 78.656L56.5459 78.632L56.3981 78.607L56.2445 78.5821L56.0928 78.5571L55.9421 78.5322L55.7885 78.5072L55.6368 78.4822L55.4851 78.4573L55.3325 78.4323L55.1808 78.4074L55.0291 78.3824L54.8755 78.3555L54.7248 78.3306L54.5731 78.3066L54.4205 78.2816L54.2678 78.2566L54.1171 78.2317L53.9635 78.2067L53.8118 78.1798L53.6602 78.1549L53.5085 78.1299L53.3568 78.105L53.2051 78.08L53.0525 78.056L52.9008 78.0291L52.7491 78.0042L52.5974 77.9792L52.4458 77.9542L52.2941 77.9293L52.1414 77.9043L51.984 77.8774L51.8266 77.8525L51.6682 77.8256L51.5098 77.7987L51.3514 77.7718L51.1939 77.7469L51.0365 77.72L50.8781 77.6931L50.7197 77.6662L50.5622 77.6394L50.4038 77.6144L50.2464 77.5875L50.088 77.5606L49.9306 77.5338L49.7722 77.5069L49.6138 77.4819L49.4486 77.4541L49.2816 77.4262L49.1165 77.3965L48.9494 77.3696L48.7824 77.3418L48.6154 77.3139L48.4502 77.287L48.2832 77.2592L48.1181 77.2314L47.951 77.2045L47.7734 77.1738L47.6438 77.1526L47.7341 77.0922L47.857 77.0096L47.9808 76.927L48.1037 76.8445L48.2275 76.7619L48.3504 76.6803L48.4733 76.5978L48.5981 76.5152L48.721 76.4336L48.8438 76.351L48.9667 76.2694L49.0906 76.1859L49.2144 76.1034L49.3354 76.0218L49.4592 75.9392L49.5821 75.8576L49.7059 75.775L49.8288 75.6925L49.9517 75.6099L50.0755 75.5274L50.1984 75.4458L50.3213 75.3632L50.4442 75.2806L50.568 75.199L50.6909 75.1165L50.8138 75.0339L50.9376 74.9514L51.0605 74.8688L51.1834 74.7872L51.3072 74.7046L51.4301 74.623L51.5539 74.5405L51.6749 74.457L51.7987 74.3754L51.9226 74.2928L52.0454 74.2112L52.1683 74.1286L52.2912 74.047L52.415 73.9645L52.5389 73.8819L52.6598 73.7994L52.7837 73.7168L52.873 73.6582L52.8787 73.6554C52.8787 73.6544 52.8787 73.6544 52.8787 73.6544C52.8029 73.496 52.7155 73.3424 52.6349 73.1869C52.2576 72.4669 51.8285 71.7814 51.3456 71.1344C50.9491 70.6035 50.519 70.1014 50.0563 69.6262C49.6166 69.1731 49.1472 68.7488 48.6538 68.3533C48.263 68.0403 47.8608 67.7418 47.4394 67.4682C47.0074 67.1869 46.5542 66.9325 46.0925 66.6944C45.6662 66.4774 45.2304 66.2758 44.7821 66.0973C44.352 65.9264 43.9114 65.7709 43.464 65.6384C42.9926 65.5011 42.5117 65.3917 42.025 65.3005C41.5594 65.2112 41.089 65.145 40.6099 65.0998C40.1587 65.0586 39.7046 65.0288 39.2448 65.0269L39.2227 65Z" fill="url(#paint0_radial_64_9636)"/>
<defs>
<radialGradient id="paint0_radial_64_9636" cx="0" cy="0" r="1" gradientUnits="userSpaceOnUse" gradientTransform="translate(40.7414 80.2233) scale(16.0052 16.0052)">
<stop stop-color="#FFF212"/>
<stop offset="0.45098" stop-color="#A2D433"/>
<stop offset="1" stop-color="#45B653"/>
</radialGradient>
</defs>
</svg>
