<svg width="160" height="160" viewBox="0 0 160 160" fill="none" xmlns="http://www.w3.org/2000/svg">
<path d="M56.1162 86.4634C56.1162 89.0141 59.4992 90.3725 64.7399 89.1812C68.1786 88.4333 72.393 87.0461 76.7466 85.632C75.9978 84.8842 75.25 84.2736 74.3888 83.8013C67.5392 80.0592 56.5597 82.4439 56.1152 86.4644L56.1162 86.4634Z" fill="#1BB1C5"/>
<path d="M100.63 84.0346C96.4403 82.8077 88.6777 85.6944 88.6777 85.6944C94.5808 90.2352 99.0429 89.8983 101.429 88.3613C105.472 85.7607 100.63 84.0346 100.63 84.0346Z" fill="#1BB1C5"/>
<path d="M99.6245 79.0868V78.6989C100.04 78.4781 100.29 78.0058 100.097 77.4231L99.4862 75.1767H95.9649L95.3544 77.4231C95.2161 78.0058 95.3822 78.4781 95.7979 78.6989V79.0868H92.3035V78.7536C92.8862 78.5597 93.3864 78.0605 93.5793 77.4231L96.4353 66.7469C96.5457 66.3044 96.3528 65.8042 95.9361 65.5546V65.2224H100.318L103.589 77.4221C103.782 78.0595 104.227 78.5597 104.865 78.7527V79.0858H99.6235L99.6245 79.0868ZM104.201 88.0157C103.673 89.2637 102.62 90.096 101.039 90.5386C96.0197 92.0074 89.9198 90.0682 85.5384 86.5728C83.7921 87.1287 82.0171 87.7104 80.2142 88.321C81.2952 90.9543 81.2673 93.8103 79.9368 96.3341C78.7445 98.4691 77.0251 100.272 74.4177 100.188C72.3115 100.105 70.4808 98.7188 70.619 96.7229C70.8139 93.4512 74.556 93.4512 75.0283 94.7549C73.2542 94.5322 72.8097 97.1108 74.5022 97.6935C76.2763 98.2752 77.8853 97.1107 78.8837 95.7523C80.2421 93.7555 80.0193 91.178 78.9115 88.7655C75.2222 89.9837 71.5905 91.178 68.3457 91.9258C64.7121 92.7293 58.5019 93.2016 55.9781 90.4003C54.1205 88.3219 54.7032 84.9936 56.6165 83.136C60.3307 79.6407 69.2328 79.0867 75.1953 82.5533C76.4155 83.2455 77.4408 84.1335 78.3009 85.1319C79.6593 84.6874 80.9909 84.2717 82.3493 83.856C78.7176 80.9722 75.6667 79.0868 73.116 79.0868H72.3125V78.7536C72.8385 78.5319 73.2273 78.0605 73.2273 77.4231V66.8592C73.2273 66.2765 72.8395 65.7495 72.3125 65.5546V65.2224H77.6088V65.5546C77.0817 65.7495 76.6939 66.2765 76.6939 66.8592V78.4493C78.995 79.0867 81.684 80.3069 85.2619 82.97C87.6197 82.3037 90.0312 81.6653 92.4446 81.2496C96.1032 80.6669 101.76 80.6122 103.758 83.7178C104.507 84.8554 104.729 86.6861 104.202 88.0167L104.201 88.0157ZM64.9339 64.944C66.155 64.944 67.2648 65.2493 67.9579 65.5546C68.2622 65.6371 68.5128 65.5268 68.5953 65.2224H69.2885L70.2312 68.688H68.8449C68.4849 67.2749 66.4334 66.3591 64.908 66.4973C63.0504 66.6355 62.4398 68.7447 64.9905 69.6307C67.6526 70.6013 71.0923 71.4336 71.0923 74.9271C71.0923 78.0336 68.4293 79.3373 65.7681 79.3373C64.6584 79.3373 63.6878 79.0311 62.6625 78.5875C62.1067 78.337 61.3589 78.2266 61.164 79.0868H60.6926V73.8173H61.3301C61.691 74.8435 62.2181 75.9255 63.0763 76.7011C64.0469 77.617 66.0446 78.2266 67.1534 77.257C67.8177 76.6743 67.9013 75.6192 67.3473 74.9818C66.2376 73.7895 63.3547 73.513 61.5806 72.098C60.6648 71.3501 60.1925 70.3786 60.1925 69.2976C60.1099 66.5808 62.3563 64.9431 64.9339 64.9431V64.944ZM85.4539 64.945C86.6193 64.945 88.0056 65.3597 88.476 65.5546C88.9483 65.7495 89.0309 65.5268 89.1144 65.2224H89.7518L90.6667 68.688H89.3083C88.3109 65.1667 83.1806 65.3597 82.8465 70.657C82.7083 73.706 83.9841 77.5613 87.4229 78.0048V72.6528C87.4229 72.0154 87.035 71.5431 86.508 71.3501V71.017H91.8043V71.3501C91.2773 71.5431 90.9163 72.0154 90.8894 72.5981L90.9163 78.338C89.5032 78.9754 87.9777 79.2528 86.4245 79.2807C76.3867 79.418 77.0808 65.0823 85.4539 64.945ZM79.9982 47.9981C62.3246 47.9981 47.9985 62.3261 47.9985 79.9978C47.9985 97.6704 62.3246 111.999 79.9982 111.999C97.6728 111.999 111.998 97.6714 111.998 79.9978C111.998 62.3261 97.6728 47.9981 79.9982 47.9981Z" fill="#1BB1C5"/>
<path d="M96.3242 73.8182H99.1524L97.7383 68.5507L96.3242 73.8182Z" fill="#1BB1C5"/>
</svg>
