<svg width="160" height="160" viewBox="0 0 160 160" fill="none" xmlns="http://www.w3.org/2000/svg">
<path d="M110.589 62.8074C110.59 62.3725 110.403 62.3812 110.089 62.3812C105.139 62.3879 100.19 62.3937 95.2392 62.3745C94.7756 62.3725 94.6325 62.4561 94.6354 62.9562C94.6584 67.8225 94.6632 72.6897 94.6431 77.5578C94.6306 80.4129 94.3733 83.2429 93.5813 86.0039C92.2383 90.6801 89.3122 93.8356 84.6303 95.2535C81.5765 96.178 78.4488 96.2538 75.3317 95.6653C70.1477 94.6852 66.5669 91.7735 64.8783 86.6932C63.9068 83.7681 63.6053 80.7393 63.6015 77.6817C63.5852 64.9146 63.5919 52.1485 63.6053 39.3805C63.6053 38.9629 63.5055 38.866 63.0908 38.8669C58.0738 38.8833 53.0559 38.8861 48.0399 38.8641C47.5349 38.8612 47.461 39.0109 47.4629 39.4679C47.4792 46.4519 47.4735 53.4359 47.4735 60.4189C47.4735 66.3853 47.4658 72.3537 47.4764 78.3201C47.4831 81.897 47.8527 85.4356 48.7781 88.8993C51.1551 97.8023 56.5474 104.061 65.1672 107.437C69.1167 108.983 73.2552 109.596 77.4783 109.716C81.9509 109.844 86.3679 109.486 90.6677 108.186C98.486 105.817 104.271 101.057 107.647 93.5457C109.738 88.8993 110.5 83.9591 110.558 78.9085C110.617 73.5431 110.569 68.1757 110.589 62.8084V62.8074Z" fill="black"/>
<path d="M112.192 43.4577C111.591 43.3386 110.974 43.2897 110.392 43.0823C108.973 42.9076 107.584 42.5735 106.177 42.3306C105.131 42.1501 104.089 41.8967 103.034 41.8065C100.232 41.5665 97.2944 43.4029 96.1866 45.9949C95.6039 47.3591 95.4896 48.8279 95.1959 50.2564C94.8867 51.7521 94.6362 53.2602 94.3568 54.7617C94.2397 55.3933 94.2378 55.3924 94.9011 55.4778C94.9808 55.4884 95.0576 55.5201 95.1344 55.5421C97.4221 55.9684 99.7127 56.3812 101.997 56.8276C106.151 57.6417 110.289 54.9863 111.181 50.8487C111.678 48.5418 112.058 46.21 112.512 43.8945C112.577 43.5652 112.477 43.5143 112.191 43.4586L112.192 43.4577Z" fill="#3CB663"/>
<path d="M94.3569 54.7617C94.6353 53.2593 94.8868 51.7521 95.1959 50.2564C95.4897 48.8289 95.6039 47.3591 96.1866 45.9949C97.2945 43.4029 100.232 41.5655 103.034 41.8074C104.088 41.8967 105.13 42.1501 106.177 42.3316C107.584 42.5735 108.974 42.9076 110.392 43.0833C110.395 41.9831 110.375 40.8829 110.409 39.7847C110.422 39.3527 110.275 39.2663 109.871 39.2692C107.022 39.2855 104.173 39.2759 101.325 39.2778C97.2897 39.2807 94.1764 42.394 94.1697 46.4356C94.1658 49.1677 94.1697 51.9009 94.1697 54.633C94.1697 55.5844 94.1697 55.5844 95.1335 55.5412C95.0558 55.5201 94.9799 55.4893 94.9002 55.4788C94.2378 55.3924 94.2388 55.3953 94.3559 54.7626L94.3569 54.7617Z" fill="#4FC7E6"/>
<path d="M52.0894 118.782C52.0894 119.263 51.9905 119.61 51.7937 119.822C51.596 120.034 51.3195 120.14 50.9633 120.14C50.6081 120.14 50.3307 120.034 50.1339 119.822C49.9352 119.61 49.8372 119.263 49.8372 118.782V115.995H48.668V118.824C48.668 119.566 48.8705 120.137 49.2747 120.536C49.6788 120.936 50.2404 121.135 50.9576 121.135C51.6747 121.135 52.2344 120.936 52.6404 120.536C53.0446 120.136 53.2462 119.566 53.2462 118.824V115.995H52.0913V118.782H52.0894Z" fill="black"/>
<path d="M57.3308 118.475C57.1522 118.631 56.8824 118.709 56.5224 118.709H55.5692V116.948H56.5224C56.8824 116.948 57.1522 117.023 57.3308 117.178C57.5093 117.333 57.5976 117.549 57.5976 117.827C57.5976 118.101 57.5093 118.317 57.3308 118.474V118.475ZM57.757 119.424C58.0844 119.28 58.3368 119.072 58.5144 118.8C58.693 118.529 58.7813 118.204 58.7813 117.828C58.7813 117.448 58.693 117.121 58.5144 116.847C58.3368 116.572 58.0844 116.361 57.757 116.215C57.4296 116.068 57.0399 115.995 56.5868 115.995H54.3989V121.049H55.5692V119.642H56.5868C56.605 119.642 56.6223 119.64 56.6415 119.64L57.612 121.049H58.8764L57.7474 119.428C57.7503 119.427 57.7541 119.425 57.758 119.424H57.757Z" fill="black"/>
<path d="M62.923 120.021C62.7665 120.119 62.5361 120.168 62.2337 120.168H60.8686V118.919H62.2337C62.5361 118.919 62.7675 118.971 62.923 119.076C63.0785 119.179 63.1572 119.336 63.1572 119.548C63.1572 119.765 63.0785 119.923 62.923 120.021V120.021ZM60.8676 116.877H62.0302C62.3144 116.877 62.5332 116.926 62.683 117.024C62.8347 117.123 62.9105 117.271 62.9105 117.469C62.9105 117.669 62.8347 117.821 62.683 117.919C62.5323 118.018 62.3134 118.067 62.0302 118.067H60.8676V116.876V116.877ZM63.5614 118.469C63.5163 118.449 63.4683 118.435 63.4184 118.418C63.6161 118.315 63.7755 118.175 63.8926 118C64.0232 117.805 64.0884 117.574 64.0884 117.31C64.0884 116.916 63.9272 116.597 63.6065 116.357C63.2868 116.115 62.8088 115.996 62.1742 115.996H59.7051V121.051H62.3182C62.9825 121.051 63.4846 120.928 63.8273 120.686C64.1691 120.443 64.339 120.104 64.339 119.671C64.339 119.377 64.2708 119.13 64.1336 118.928C63.9963 118.725 63.8043 118.572 63.5595 118.469H63.5614Z" fill="black"/>
<path d="M66.5843 119.078L67.3878 117.143L68.1894 119.078H66.5843ZM66.8185 115.995L64.5654 121.049H65.7635L66.2137 119.966H68.5571L69.0064 121.049H70.2333L67.9734 115.995H66.8185Z" fill="black"/>
<path d="M74.2403 119.061L71.7289 115.994H70.7603V121.05H71.9151V117.981L74.4351 121.05H75.3951V115.994H74.2403V119.061Z" fill="black"/>
<path d="M79.8075 116.933H82.4561V115.995H78.6382V121.05H79.8075V119.208H82.147V118.269H79.8075V116.933Z" fill="black"/>
<path d="M84.3958 119.078L85.1994 117.143L86.001 119.078H84.3958ZM84.6301 115.995L82.377 121.049H83.576L84.0262 119.966H86.3686L86.8179 121.049H88.0448L85.785 115.995H84.6301Z" fill="black"/>
<path d="M91.5041 118.475C91.3255 118.631 91.0558 118.709 90.6948 118.709H89.7425V116.948H90.6948C91.0558 116.948 91.3255 117.023 91.5041 117.178C91.6827 117.333 91.771 117.549 91.771 117.827C91.771 118.101 91.6827 118.317 91.5041 118.474V118.475ZM91.9294 119.424C92.2577 119.28 92.5092 119.072 92.6887 118.8C92.8673 118.529 92.9556 118.204 92.9556 117.828C92.9556 117.448 92.8673 117.121 92.6887 116.847C92.5102 116.572 92.2577 116.361 91.9294 116.215C91.603 116.068 91.2132 115.995 90.7601 115.995H88.5723V121.049H89.7425V119.642H90.7601C90.7783 119.642 90.7956 119.64 90.8148 119.64L91.7854 121.049H93.0497L91.9207 119.428C91.9236 119.427 91.9275 119.425 91.9294 119.424Z" fill="black"/>
<path d="M98.6011 115.995L96.7397 119.133L94.8466 115.995H93.8789V121.05H94.9771V118.08L96.4575 120.515H96.9835L98.4715 118.015L98.4783 121.05H99.5755L99.5611 115.995H98.6011Z" fill="black"/>
<path d="M101.937 118.941H104.283V118.031H101.937V116.934H104.594V115.995H100.774V121.049H104.687V120.11H101.937V118.941Z" fill="black"/>
<path d="M108.55 118.475C108.372 118.631 108.102 118.709 107.741 118.709H106.789V116.948H107.741C108.102 116.948 108.372 117.023 108.55 117.178C108.729 117.333 108.817 117.549 108.817 117.827C108.817 118.101 108.729 118.317 108.55 118.474V118.475ZM108.976 119.424C109.304 119.28 109.556 119.072 109.734 118.8C109.913 118.529 110.001 118.204 110.001 117.828C110.001 117.448 109.913 117.121 109.734 116.847C109.556 116.572 109.304 116.361 108.976 116.215C108.648 116.068 108.26 115.995 107.806 115.995H105.619V121.049H106.789V119.642H107.806C107.825 119.642 107.842 119.64 107.861 119.64L108.832 121.049H110.096L108.967 119.428C108.97 119.427 108.974 119.425 108.977 119.424H108.976Z" fill="black"/>
</svg>
