<svg width="160" height="160" viewBox="0 0 160 160" fill="none" xmlns="http://www.w3.org/2000/svg">
<path d="M119.847 101.14H40.1529C39.0364 101.14 38.1331 100.235 38.1331 99.1197V60.8771C38.1331 59.7626 39.0364 58.8582 40.1529 58.8582H119.847C120.964 58.8582 121.867 59.7626 121.867 60.8771V99.1197C121.867 100.235 120.963 101.14 119.847 101.14Z" fill="black"/>
<path d="M55.4861 68.8509L55.6474 86.9056C55.6234 87.8311 55.4554 88.6653 55.1405 89.3834C54.8823 90.0007 54.481 90.5939 53.8992 91.0634C53.3175 91.5616 52.5312 91.8496 51.4819 91.8582C50.4288 91.8678 49.609 91.5952 49.0195 91.1066C48.4291 90.6477 48.0451 90.0611 47.7754 89.4477C47.4471 88.7373 47.2656 87.904 47.2282 86.9795L47.0669 68.9248L50.2224 68.8979L50.3837 86.9517C50.3895 87.6026 50.5392 88.0307 50.8359 88.3677C50.9827 88.5203 51.1882 88.6144 51.4512 88.6115C52.0042 88.6058 52.2663 88.2343 52.3795 87.7687C52.4631 87.5479 52.489 87.2723 52.4861 86.9334L52.3248 68.8778L55.4851 68.8509H55.4861Z" fill="#FEFEFE"/>
<path d="M63.0843 74.8749C63.0776 74.1347 63.0421 73.3014 62.8318 72.6534C62.6197 72.0352 62.2952 71.6041 61.7989 71.608C60.9819 71.6464 60.7246 72.5469 60.7362 73.8765C60.7438 74.6512 61.0722 75.447 61.5464 76.312C62.0226 77.1721 62.6446 78.0611 63.2658 79.0144C64.0088 80.153 64.7509 81.3193 65.3154 82.4598C65.8818 83.5984 66.2715 84.7696 66.2821 86.008C66.2955 87.5209 66.0757 88.9465 65.4114 90.0025C64.748 91.0585 63.6728 91.7507 61.9486 91.7651C59.9307 91.7834 58.7864 90.9894 58.1317 89.7558C57.4779 88.528 57.3166 86.8922 57.3022 85.1882L60.3954 84.855C60.403 85.8112 60.4434 86.7693 60.6824 87.4777C60.8926 88.2189 61.2498 88.7114 61.9218 88.7046C62.8568 88.697 63.1976 87.6448 63.1842 86.1904C63.1774 85.4474 62.8203 84.5853 62.3442 83.6944C62.0763 83.2634 61.8104 82.8006 61.5147 82.3398C60.8926 81.4201 60.211 80.3718 59.4978 79.2342C58.7883 78.0966 58.2498 76.9273 57.9166 75.7245C57.7381 75.1379 57.6421 74.5235 57.6363 73.9034C57.6258 72.6659 57.8782 71.3344 58.5406 70.3091C59.2059 69.3146 60.2206 68.5955 61.7125 68.5514C63.6133 68.5005 64.7298 69.3299 65.3547 70.5289C65.9806 71.7577 66.1678 73.2736 66.1794 74.5398L63.0834 74.8758L63.0843 74.8749Z" fill="#FEFEFE"/>
<path d="M67.8315 68.7424L75.0498 68.679L75.0805 72.111L71.0178 72.1466L71.0715 78.112L73.9957 78.0851L74.0274 81.7331L71.1032 81.759L71.1589 88.0038L75.2226 87.9683L75.2533 91.4003L68.0341 91.4627L67.8315 68.7424Z" fill="#FEFEFE"/>
<path d="M76.8105 68.6637L79.9661 68.6349L80.1408 88.265L84.3225 88.2275L84.3504 91.3206L77.0131 91.384L76.8105 68.6637Z" fill="#FEFEFE"/>
<path d="M85.436 68.5878L92.6591 68.5235L92.6898 71.9555L88.6223 71.992L88.676 77.9565L91.6002 77.9306L91.6319 81.5786L88.7077 81.6035L88.7644 87.8493L92.8309 87.8128L92.8616 91.2448L85.6386 91.3072L85.436 68.5878Z" fill="#FEFEFE"/>
<path d="M99.7027 74.5523C99.6959 73.8122 99.6604 72.9789 99.4464 72.3309C99.238 71.7127 98.9126 71.2816 98.4172 71.2855C97.5955 71.3239 97.342 72.2243 97.3545 73.5539C97.3622 74.3287 97.6905 75.1245 98.1647 75.9895C98.6409 76.8496 99.263 77.7386 99.8851 78.6919C100.623 79.8304 101.366 80.9968 101.933 82.1373C102.497 83.2759 102.889 84.4471 102.9 85.6855C102.914 87.1984 102.691 88.624 102.03 89.68C101.367 90.736 100.291 91.4282 98.567 91.4426C96.55 91.4608 95.4009 90.6669 94.7472 89.4333C94.0924 88.2055 93.9331 86.5696 93.9167 84.8656L97.0127 84.5325C97.0223 85.4887 97.0588 86.4467 97.3007 87.1552C97.511 87.8963 97.8662 88.3888 98.5411 88.3821C99.4761 88.3744 99.8169 87.3223 99.8035 85.8679C99.7967 85.1239 99.4396 84.2627 98.9625 83.3719C98.6956 82.9399 98.4278 82.4781 98.1302 82.0173C97.5081 81.0967 96.8275 80.0493 96.1171 78.9117C95.4038 77.7741 94.8691 76.6048 94.5359 75.4019C94.3535 74.8154 94.2614 74.201 94.2556 73.5808C94.2451 72.3434 94.4975 71.0119 95.159 69.9866C95.8214 68.992 96.84 68.273 98.3299 68.2288C100.231 68.1779 101.35 69.0064 101.975 70.2064C102.599 71.4352 102.788 72.9511 102.799 74.2173L99.7027 74.5533V74.5523Z" fill="#FEFEFE"/>
<path d="M109.732 74.464C109.725 73.7229 109.69 72.8887 109.479 72.2416C109.267 71.6243 108.943 71.1933 108.446 71.1981C107.627 71.2355 107.372 72.137 107.384 73.4656C107.391 74.2403 107.72 75.0362 108.194 75.9021C108.67 76.7623 109.292 77.6512 109.913 78.6045C110.656 79.7431 111.398 80.9104 111.961 82.049C112.529 83.1885 112.918 84.3597 112.929 85.5971C112.942 87.112 112.722 88.5376 112.058 89.5936C111.394 90.6477 110.319 91.3418 108.595 91.3562C106.577 91.3744 105.433 90.5795 104.778 89.3479C104.124 88.1181 103.964 86.4813 103.949 84.7783L107.041 84.4451C107.05 85.3994 107.09 86.3594 107.329 87.0679C107.539 87.809 107.896 88.2995 108.568 88.2947C109.503 88.2871 109.845 87.2349 109.831 85.7795C109.824 85.0355 109.467 84.1744 108.991 83.2835C108.723 82.8515 108.457 82.3907 108.16 81.929C107.539 81.0093 106.858 79.961 106.144 78.8234C105.435 77.6858 104.896 76.5155 104.563 75.3136C104.384 74.7271 104.289 74.1117 104.283 73.4925C104.272 72.2551 104.525 70.9235 105.185 69.8983C105.851 68.9027 106.867 68.1837 108.359 68.1405C110.258 68.0896 111.376 68.9181 112.001 70.1171C112.625 71.3479 112.814 72.8637 112.826 74.128L109.73 74.4659L109.732 74.464Z" fill="#FEFEFE"/>
</svg>
