<svg width="160" height="160" viewBox="0 0 160 160" fill="none" xmlns="http://www.w3.org/2000/svg">
<path d="M88.6264 60.4979C81.5839 59.5197 77.0786 59.536 70.1157 60.6074L70.2088 61.2131L70.1618 60.9107L70.2098 61.2131L73.8242 60.7792C78.8632 60.3702 85.828 61.457 91.3912 62.7971C92.718 62.2864 93.9804 61.9821 95.1112 61.8054C92.9762 61.239 90.8143 60.8032 88.6255 60.4989L88.6264 60.4979Z" fill="#9DCC5E"/>
<path d="M70.1082 60.6112L70.1235 60.9549L70.207 61.2122L70.1082 60.6112Z" fill="#9DCC5E"/>
<path d="M56.4396 98.3632C57.0272 98.4515 57.6147 98.5389 58.2012 98.6282C58.7897 98.7165 59.3772 98.8038 59.9638 98.8922C60.1673 98.9229 60.3353 98.7606 60.3353 98.5283C60.3353 98.297 60.1673 98.0723 59.9638 98.0291C59.3772 97.9053 58.7888 97.7824 58.2012 97.6586C57.6147 97.5347 57.0281 97.4099 56.4396 97.288C55.3635 97.0614 54.3795 97.312 53.6864 97.9811C53.2064 98.4438 52.8608 99.0995 52.6841 99.8618V99.8243H42.0224C39.5014 99.8243 33.4361 99.927 31.3222 99.808C28.6476 99.6573 26.8496 98.7818 27.3651 95.5754C28.2156 90.2934 36.2748 79.0874 39.9766 74.8768C37.3952 76.6979 35.1152 78.9914 33.0243 81.3453C29.6806 85.1094 19.9328 97.7238 27.7788 101.502C29 102.076 30.3939 102.253 31.7312 102.271C38.6902 102.369 45.7164 102.274 52.6832 102.274V102.236C52.8608 102.997 53.2054 103.653 53.6854 104.117C54.3785 104.787 55.3625 105.035 56.4387 104.808H56.4396C57.0262 104.685 57.6147 104.561 58.1993 104.437C58.7859 104.313 59.3753 104.19 59.9619 104.067C60.1654 104.024 60.3334 103.8 60.3334 103.569C60.3334 103.338 60.1654 103.175 59.9619 103.205C59.3753 103.293 58.7868 103.383 58.1993 103.47C57.6128 103.559 57.0262 103.646 56.4377 103.734C56.2323 103.766 56.0672 103.546 56.0672 103.242C56.0672 102.94 56.2323 102.678 56.4377 102.66C57.0252 102.606 57.6128 102.553 58.1993 102.5C58.7878 102.446 59.3753 102.394 59.9619 102.341C60.1654 102.323 60.3334 102.121 60.3334 101.888C60.3334 101.657 60.1654 101.474 59.9619 101.48C59.3753 101.498 58.7868 101.516 58.1993 101.534C57.6128 101.551 57.0262 101.569 56.4377 101.586C56.2323 101.592 56.0672 101.353 56.0672 101.048C56.0672 100.746 56.2323 100.506 56.4377 100.512C57.0252 100.53 57.6128 100.546 58.1993 100.565C58.7878 100.583 59.3753 100.6 59.9619 100.619C60.1654 100.625 60.3334 100.442 60.3334 100.21C60.3334 99.9789 60.1654 99.7754 59.9619 99.7571C59.3753 99.7034 58.7868 99.6506 58.1993 99.5987C57.6128 99.545 57.0262 99.4941 56.4377 99.4403C56.2323 99.4211 56.0672 99.16 56.0672 98.8576C56.0672 98.5552 56.2323 98.3354 56.4377 98.3651L56.4396 98.3632Z" fill="#9DCC5E"/>
<path d="M134.637 93.0621C131.24 82.0634 113.824 65.6579 101.511 63.6554C99.6357 63.3501 97.8357 63.4192 96.1797 63.7917C95.8571 63.8637 95.5423 63.9501 95.2303 64.0451C89.7823 65.7107 86.1784 70.7517 87.2143 76.4167C89.2197 87.3856 104.5 87.9942 107.226 79.2506C109.186 72.9626 103.025 69.5776 99.3631 72.6995C99.3218 72.5622 99.3045 72.4154 99.3122 72.2647C99.3391 71.8259 99.2104 71.4189 98.8831 70.985C98.1919 70.072 96.8901 69.8906 95.9762 70.5808C94.5535 71.6541 94.0552 73.9504 93.6856 76.4186C93.6347 76.7555 93.7135 77.0656 93.9189 77.3373C94.1253 77.6109 94.4018 77.7702 94.7407 77.8134C97.2155 78.1331 99.5589 78.28 100.982 77.2058C101.896 76.5155 102.077 75.2128 101.386 74.2979C101.057 73.865 100.702 73.6298 100.273 73.5357C100.164 73.5117 100.064 73.4704 99.9678 73.4214C100.675 72.879 101.552 72.5853 102.449 72.6026C104.754 72.6736 106.177 74.3814 106.231 76.6278C106.404 83.9613 95.3992 86.0714 90.8853 80.009C86.5183 74.1424 90.7355 66.4835 97.7042 65.7933C109.385 64.6346 126.711 81.6035 131.358 91.4282C133.539 96.0419 133.795 99.809 128.097 99.8282C107.814 99.8944 87.5349 99.9213 67.2607 100.582V99.7552C67.2607 99.5882 67.1541 99.4461 66.9707 99.3683C66.7883 99.2896 66.5829 99.2992 66.412 99.3923L64.0283 100.686C63.8738 100.771 63.7883 100.9 63.7883 101.051C63.7883 101.201 63.8738 101.33 64.0283 101.414L66.412 102.71C66.5829 102.803 66.7883 102.812 66.9707 102.734C67.1541 102.655 67.2607 102.512 67.2607 102.347V101.522C87.5176 102.183 107.79 102.29 128.057 102.275C133.886 102.271 136.423 98.8423 134.639 93.065L134.637 93.0621Z" fill="#2C5C87"/>
<path d="M66.9546 87.5862V85.2755L69.0003 82.1718H67.7744L66.4256 84.3414H66.4083L65.0758 82.1718H63.825L65.8947 85.3014V87.5862H66.9546Z" fill="#3E3E40"/>
<path d="M69.5369 82.1718V85.433C69.5369 85.7814 69.5877 86.0944 69.6905 86.3728C69.7922 86.6512 69.9391 86.8883 70.133 87.0851C70.3269 87.281 70.5669 87.4317 70.853 87.5354C71.1391 87.641 71.4693 87.6928 71.838 87.6928C72.2018 87.6928 72.5244 87.641 72.8057 87.5354C73.0879 87.4317 73.326 87.281 73.5189 87.0851C73.7109 86.8893 73.8578 86.6512 73.9567 86.3728C74.0565 86.0944 74.1065 85.7805 74.1065 85.433V82.1718H73.0716V85.433C73.0716 85.8371 72.9698 86.151 72.7653 86.3766C72.5609 86.6032 72.2498 86.7165 71.8303 86.7165C71.4156 86.7165 71.1074 86.6032 70.902 86.3766C70.6975 86.151 70.5967 85.8362 70.5967 85.433V82.1718H69.5369Z" fill="#3E3E40"/>
<path d="M76.3876 83.5667C76.545 83.4045 76.7341 83.2758 76.9549 83.1856C77.1757 83.0954 77.4215 83.0493 77.6922 83.0493C78.0397 83.0493 78.3479 83.1222 78.6186 83.272C78.8893 83.4218 79.0957 83.6272 79.2397 83.8931H80.4157C80.3207 83.6176 80.1892 83.368 80.0183 83.1443C79.8465 82.9216 79.6429 82.7296 79.4087 82.5693C79.1745 82.409 78.9124 82.2851 78.6225 82.1958C78.3325 82.1075 78.0225 82.0634 77.6922 82.0634C77.2669 82.0634 76.8791 82.1344 76.5277 82.2745C76.1773 82.4157 75.874 82.6115 75.6167 82.863C75.3604 83.1136 75.1617 83.4121 75.0225 83.7558C74.8813 84.1014 74.8103 84.4758 74.8103 84.879C74.8103 85.287 74.8813 85.6634 75.0225 86.0051C75.1626 86.3469 75.3613 86.6435 75.6167 86.895C75.874 87.1456 76.1764 87.3414 76.5277 87.4825C76.8781 87.6227 77.266 87.6938 77.6922 87.6938C78.0897 87.6938 78.4564 87.6314 78.7933 87.5027C79.1293 87.376 79.4241 87.2013 79.6785 86.9776C79.9319 86.7539 80.1354 86.487 80.2881 86.175C80.4388 85.863 80.5319 85.5213 80.5636 85.1526V84.6477H77.361V85.5914H79.4125V85.6086C79.2858 85.961 79.0746 86.2346 78.7789 86.4275C78.4842 86.6214 78.1213 86.7174 77.6913 86.7174C77.4205 86.7174 77.1748 86.6723 76.954 86.5811C76.7341 86.4909 76.545 86.3622 76.3866 86.1952C76.2292 86.0301 76.1073 85.8352 76.0189 85.6125C75.9306 85.3888 75.8855 85.145 75.8855 84.879C75.8855 84.6131 75.9306 84.3693 76.0189 84.1456C76.1073 83.9229 76.2292 83.7299 76.3866 83.5667H76.3876Z" fill="#3E3E40"/>
<path d="M84.8941 85.0029H82.2531V84.4153C82.2531 83.9795 82.3607 83.6435 82.5767 83.4054C82.7917 83.1683 83.1219 83.0493 83.5703 83.0493C84.0167 83.0493 84.3488 83.1683 84.5677 83.4054C84.7847 83.6425 84.8941 83.9785 84.8941 84.4153V85.0029ZM85.3367 82.6979C85.136 82.4963 84.8874 82.3408 84.5917 82.2294C84.297 82.119 83.96 82.0643 83.5779 82.0643C83.1968 82.0643 82.8599 82.119 82.5632 82.2294C82.2685 82.3398 82.0218 82.4963 81.8221 82.6979C81.6234 82.8985 81.4746 83.1443 81.3719 83.4352C81.2691 83.7241 81.2183 84.0505 81.2183 84.4153V87.5862H82.2531V85.9629H84.8941V87.5862H85.9539V84.4153C85.9539 84.0505 85.9002 83.7241 85.7965 83.4352C85.6909 83.1443 85.5373 82.8985 85.3357 82.6979H85.3367Z" fill="#3E3E40"/>
<path d="M113.363 87.7936C113.152 87.5805 112.849 87.472 112.455 87.472C112.04 87.472 111.732 87.5766 111.532 87.7878C111.331 87.9981 111.231 88.2649 111.231 88.5875C111.231 88.9168 111.331 89.1837 111.532 89.3872C111.732 89.5917 112.04 89.6925 112.455 89.6925C112.863 89.6925 113.168 89.5907 113.372 89.3872C113.577 89.1827 113.68 88.9168 113.68 88.5875C113.68 88.2717 113.574 88.0057 113.364 87.7926L113.363 87.7936Z" fill="#9DCC5E"/>
<path d="M119.236 96.0515C119.369 96.3606 119.475 96.6688 119.558 96.9741C119.639 97.2803 119.743 97.7066 119.869 98.2528C120.882 98.273 121.724 98.0435 122.395 97.5664C123.067 97.0902 123.581 96.4566 123.935 95.6666C124.621 94.12 125.275 92.5149 125.9 90.8493L126.127 90.2771H123.857C123.764 90.7303 123.472 91.672 122.978 93.0995L122.722 93.88C122.668 93.7091 122.598 93.4979 122.509 93.2435C122.42 92.9901 122.356 92.801 122.317 92.6762C122.178 92.2749 122.04 91.8563 121.902 91.4224C121.764 90.9875 121.655 90.6055 121.577 90.2771H119.236C119.849 91.672 120.316 92.7751 120.638 93.5834C120.96 94.3927 121.241 95.1501 121.478 95.8538C121.175 96.0707 120.766 96.1792 120.254 96.1792C119.938 96.1792 119.598 96.137 119.236 96.0515Z" fill="#9DCC5E"/>
<path d="M87.3104 93.5488C87.1913 93.3942 87.1328 93.2022 87.1328 92.9709C87.1328 92.5629 87.2249 92.271 87.4083 92.0973C87.5926 91.9226 87.8653 91.8342 88.2272 91.8342C88.544 91.8342 88.7945 91.9398 88.9779 92.1501C89.1613 92.3613 89.2553 92.6339 89.2553 92.9699C89.2553 93.2723 89.1536 93.5181 88.9539 93.7043C88.7523 93.8925 88.5046 93.9856 88.2089 93.9856C88.0573 93.9856 87.8998 93.952 87.7347 93.8829C87.5705 93.8138 87.4294 93.7014 87.3104 93.5469V93.5488ZM87.9171 95.4448C88.2829 95.6579 88.7225 95.7645 89.2361 95.7645C89.6768 95.7645 90.0694 95.631 90.415 95.3642C90.7616 95.0973 91.0294 94.7459 91.2205 94.3082C91.4105 93.8704 91.5065 93.4058 91.5065 92.9104C91.5065 92.4102 91.4105 91.9523 91.2205 91.5347C91.0294 91.1162 90.7635 90.785 90.4208 90.543C90.079 90.2992 89.6941 90.1773 89.2659 90.1773C88.7657 90.1773 88.3309 90.2838 87.9632 90.497C87.5936 90.712 87.3181 91.049 87.1337 91.5088L86.8477 90.2752H84.9517C84.992 91.4992 85.0121 92.7798 85.0121 94.1152C85.0121 95.4515 84.992 96.7312 84.9517 97.9552H87.1837C87.1837 97.6259 87.1702 97.0605 87.1433 96.257C87.1165 95.4275 87.103 94.8266 87.103 94.4502C87.2816 94.8986 87.5523 95.2288 87.9171 95.4438V95.4448Z" fill="#9DCC5E"/>
<path d="M77.9917 92.0042C77.9917 92.5043 78.1741 92.8643 78.5399 93.0851C78.9047 93.305 79.3799 93.4154 79.9665 93.4154C80.3274 93.4154 80.6797 93.3952 81.0225 93.3549C81.0877 93.3482 81.1761 93.3414 81.2836 93.3366C81.393 93.3299 81.489 93.3261 81.5754 93.3261C81.7127 93.3261 81.8221 93.3558 81.9009 93.4154C81.9796 93.4739 82.0199 93.5565 82.0199 93.6621C82.0199 93.7946 81.9383 93.9011 81.777 93.9837C81.6157 94.0653 81.3873 94.1066 81.0916 94.1066C80.7825 94.1066 80.4129 94.0451 79.9857 93.9242C79.5575 93.8032 79.1927 93.6333 78.8893 93.4163L77.8525 94.8285C78.3527 95.1434 78.8874 95.3795 79.4567 95.5341C80.026 95.6886 80.5876 95.7664 81.1405 95.7664C82.114 95.7664 82.8781 95.6061 83.4311 95.2874C83.9831 94.9677 84.2596 94.4531 84.2596 93.7427C84.2596 93.2694 84.0733 92.9171 83.697 92.6867C83.3226 92.4554 82.7927 92.3411 82.1073 92.3411C81.8711 92.3411 81.5121 92.3574 81.0311 92.3901C80.8333 92.4102 80.6788 92.4198 80.5674 92.4198C80.457 92.4198 80.3668 92.393 80.2967 92.3411C80.2276 92.2874 80.193 92.2154 80.193 92.1242C80.193 92.0051 80.2756 91.9005 80.4397 91.8083C80.6049 91.7162 80.8026 91.6701 81.0321 91.6701C81.3613 91.6701 81.6897 91.7114 82.0151 91.7939C82.3405 91.8765 82.6909 92.0157 83.0673 92.2125L84.202 91.0682C83.794 90.7725 83.3245 90.5498 82.7956 90.4019C82.2657 90.2541 81.7405 90.1792 81.2202 90.1792C80.1604 90.1792 79.3578 90.3395 78.8125 90.6573C78.2663 90.977 77.9927 91.4272 77.9927 92.0051L77.9917 92.0042Z" fill="#9DCC5E"/>
<path d="M92.3647 90.2762C92.4166 91.2966 92.4435 92.2173 92.4435 93.04C92.4435 93.7302 92.4204 94.6067 92.3743 95.6666H94.7244C94.6783 94.6394 94.6553 93.7638 94.6553 93.04C94.6553 92.1779 94.6822 91.2563 94.734 90.2762H92.3647Z" fill="#9DCC5E"/>
<path d="M103.352 92.0829C103.609 91.9705 103.905 91.9149 104.24 91.9149C104.418 91.9149 104.556 91.9427 104.655 91.9993C104.753 92.055 104.802 92.1232 104.802 92.2019C104.802 92.2941 104.753 92.3699 104.655 92.4285C104.556 92.4889 104.385 92.5177 104.141 92.5177C103.549 92.5177 103.055 92.5408 102.661 92.5869C102.864 92.3632 103.096 92.1952 103.351 92.0829H103.352ZM104.813 93.3366C104.701 93.567 104.496 93.7542 104.201 93.8953C103.905 94.0365 103.571 94.1075 103.203 94.1075C102.86 94.1075 102.689 94.0115 102.689 93.8205C102.689 93.6429 102.874 93.5181 103.242 93.4461L103.598 93.3856C103.868 93.3472 104.098 93.3059 104.288 93.2627C104.479 93.2205 104.654 93.159 104.812 93.0803V93.3366H104.813ZM100.597 94.1459C100.597 94.6662 100.764 95.0579 101.095 95.3209C101.427 95.5849 101.923 95.7174 102.58 95.7174C103.146 95.7174 103.612 95.5859 103.978 95.3209C104.344 95.0579 104.622 94.6566 104.813 94.1171V94.3638C104.813 94.7603 104.905 95.0838 105.089 95.3373C105.273 95.5907 105.648 95.7174 106.214 95.7174C106.471 95.7174 106.676 95.7107 106.831 95.6973C106.985 95.6838 107.168 95.6617 107.378 95.6281L107.417 94.6998C107.26 94.6595 107.154 94.5952 107.103 94.5021C107.049 94.4099 107.023 94.2515 107.023 94.0288V92.8537C107.023 91.9446 106.777 91.2726 106.289 90.8339C105.798 90.3961 105.046 90.1782 104.033 90.1782C103.309 90.1782 102.692 90.3088 102.185 90.5689C101.679 90.8291 101.228 91.2093 100.834 91.7085C101.334 91.9715 101.833 92.2806 102.333 92.6368C101.741 92.7289 101.304 92.8969 101.021 93.1398C100.737 93.3837 100.596 93.7197 100.596 94.1459H100.597Z" fill="#9DCC5E"/>
<path d="M69.896 95.6665C69.8624 95.1405 69.8471 94.4387 69.8471 93.5641V92.1424C69.8471 91.7728 69.7722 91.4416 69.6243 91.1449C69.4765 90.8493 69.2576 90.6131 68.9686 90.4393C68.6797 90.2646 68.337 90.1773 67.9424 90.1773C67.5478 90.1773 67.1946 90.2877 66.8806 90.5075C66.5686 90.7293 66.3325 91.0691 66.1751 91.5299L66.1846 91.0057L66.1751 87.9654H63.8259C63.8778 88.9139 63.9046 90.1965 63.9046 91.815C63.9046 93.4345 63.8778 94.7181 63.8259 95.6656H66.1846C66.1578 95.1462 66.1463 94.3494 66.1463 93.2761L66.1549 93.2963C66.1549 92.9085 66.2346 92.6013 66.3968 92.3776C66.5581 92.1549 66.7539 92.0425 66.9853 92.0425C67.2023 92.0425 67.3818 92.128 67.5219 92.2989C67.663 92.4707 67.7341 92.7001 67.7341 92.9891C67.7341 93.807 67.7159 94.6969 67.6755 95.6646H69.897L69.896 95.6665Z" fill="#9DCC5E"/>
<path d="M118.249 89.1904H115.564C115.519 89.4928 115.376 89.753 115.14 89.9709C114.903 90.1878 114.613 90.2963 114.27 90.2963V92.0445C114.606 92.0176 114.929 91.9984 115.238 91.985L115.227 93.6544C115.227 94.3187 115.387 94.8371 115.707 95.2096C116.026 95.5811 116.569 95.7664 117.34 95.7664C117.656 95.7664 117.912 95.7597 118.11 95.7472C118.308 95.7338 118.551 95.7021 118.841 95.6483C118.827 95.2269 118.82 94.9581 118.82 94.839C118.82 94.5885 118.834 94.3418 118.861 94.0989C118.723 94.1238 118.579 94.1373 118.426 94.1373C118.031 94.1373 117.757 94.0374 117.602 93.8378C117.448 93.6362 117.37 93.3578 117.37 93.0026L117.379 91.9562C117.88 91.9763 118.432 92.0061 119.037 92.0454V90.2973H117.132C117.54 90.0218 117.912 89.6541 118.248 89.1923L118.249 89.1904Z" fill="#9DCC5E"/>
<path d="M94.4278 87.7936C94.2176 87.5805 93.9142 87.472 93.5197 87.472C93.1049 87.472 92.7968 87.5766 92.5971 87.7878C92.3955 87.9981 92.2957 88.2649 92.2957 88.5875C92.2957 88.9168 92.3955 89.1837 92.5971 89.3872C92.7968 89.5917 93.1049 89.6925 93.5197 89.6925C93.9277 89.6925 94.2329 89.5907 94.4374 89.3872C94.6419 89.1827 94.7437 88.9168 94.7437 88.5875C94.7437 88.2717 94.639 88.0057 94.4278 87.7926V87.7936Z" fill="#9DCC5E"/>
<path d="M74.862 92.1673C75.0723 92.3737 75.1779 92.6397 75.1779 92.9622C75.1779 93.3049 75.0723 93.5776 74.862 93.7821C74.6508 93.9865 74.3321 94.0873 73.9049 94.0873C73.4768 94.0873 73.1648 93.9856 72.966 93.7821C72.7683 93.5776 72.6704 93.3049 72.6704 92.9622C72.6704 92.6329 72.7692 92.3661 72.966 92.1625C73.1648 91.9581 73.4768 91.8573 73.9049 91.8573C74.3331 91.8573 74.6518 91.96 74.862 92.1683V92.1673ZM71.382 90.9491C70.8531 91.4627 70.5872 92.1299 70.5872 92.9526C70.5872 93.7936 70.8521 94.4742 71.382 94.9917C71.912 95.5072 72.7395 95.7664 73.8646 95.7664C75.0032 95.7664 75.8537 95.5091 76.4163 94.9955C76.9788 94.4819 77.2601 93.8013 77.2601 92.9526C77.2601 92.4323 77.1392 91.9629 76.8944 91.5462C76.6515 91.1277 76.2742 90.7955 75.7635 90.5488C75.2537 90.3021 74.6211 90.1782 73.8636 90.1782C72.7385 90.1782 71.91 90.4355 71.3811 90.9491H71.382Z" fill="#9DCC5E"/>
<path d="M108.012 95.6666H110.341C110.328 95.2259 110.321 94.5146 110.321 93.5344C110.321 92.7184 110.324 92.1136 110.331 91.7171C110.324 91.4013 110.321 90.9146 110.321 90.257C110.321 89.6637 110.328 88.9005 110.341 87.9664H108.012L108.02 89.033C108.034 90.1907 108.041 91.0864 108.041 91.7171C108.041 92.3824 108.034 93.3261 108.02 94.551L108.012 95.6666Z" fill="#9DCC5E"/>
<path d="M99.3151 89.1904H96.63C96.5849 89.4928 96.4419 89.753 96.2057 89.9709C95.9686 90.1878 95.6787 90.2963 95.3359 90.2963V92.0445C95.6719 92.0176 95.9945 91.9984 96.3036 91.985L96.2931 93.6544C96.2931 94.3187 96.4534 94.8371 96.7711 95.2096C97.0908 95.5811 97.6351 95.7664 98.406 95.7664C98.7218 95.7664 98.9782 95.7597 99.1759 95.7472C99.3737 95.7338 99.6166 95.7021 99.9065 95.6483C99.8931 95.2269 99.8863 94.9581 99.8863 94.839C99.8863 94.5885 99.8998 94.3418 99.9267 94.0989C99.7884 94.1238 99.6444 94.1373 99.4918 94.1373C99.0972 94.1373 98.8227 94.0374 98.6681 93.8378C98.5135 93.6362 98.4358 93.3578 98.4358 93.0026L98.4444 91.9562C98.9455 91.9763 99.4975 92.0061 100.103 92.0454V90.2973H98.1977C98.6057 90.0218 98.9782 89.6541 99.3142 89.1923L99.3151 89.1904Z" fill="#9DCC5E"/>
<path d="M111.299 90.2762C111.353 91.2966 111.378 92.2173 111.378 93.04C111.378 93.7302 111.355 94.6067 111.308 95.6666H113.659C113.612 94.6394 113.589 93.7638 113.589 93.04C113.589 92.1779 113.616 91.2563 113.668 90.2762H111.299Z" fill="#9DCC5E"/>
<path d="M78.2767 58.5779H80.8687C81.0338 58.5779 81.1769 58.4714 81.2556 58.2899C81.3333 58.1075 81.3247 57.9002 81.2316 57.7302L79.9356 55.3466C79.8521 55.193 79.7225 55.1075 79.5727 55.1075C79.422 55.1075 79.2924 55.193 79.2089 55.3466L77.9129 57.7302C77.8207 57.9011 77.8111 58.1075 77.8898 58.2899C77.9666 58.4714 78.1097 58.5779 78.2767 58.5779Z" fill="#9DCC5E"/>
<path d="M46.7667 78.2454L39.9958 85.0163C37.5795 87.4326 37.5795 91.3897 39.9958 93.8061C42.4122 96.2205 46.3693 96.2205 48.7837 93.8061L57.2614 85.3283C61.1562 81.4336 61.1562 75.0582 57.2614 71.1625L48.7837 62.6857C47.577 61.4771 45.9834 60.8752 44.3907 60.8752C42.7981 60.8752 41.2045 61.4781 39.9958 62.6857C37.5795 65.1021 37.5795 69.0592 39.9958 71.4755L46.7667 78.2464V78.2454Z" fill="#2C5C87"/>
<path d="M64.0439 73.263C67.4768 73.263 70.2599 70.4809 70.2599 67.047C70.2599 63.615 67.4778 60.831 64.0439 60.831C60.6109 60.831 57.8279 63.615 57.8279 67.047C57.8279 70.48 60.6109 73.263 64.0439 73.263Z" fill="#2C5C87"/>
</svg>
