<svg width="160" height="160" viewBox="0 0 160 160" fill="none" xmlns="http://www.w3.org/2000/svg">
<path fill-rule="evenodd" clip-rule="evenodd" d="M34.1672 60.9242C31.2757 63.8147 31.2757 68.5523 34.1672 71.4429L42.2705 79.5463L34.1672 87.6496C31.2757 90.5411 31.2757 95.2778 34.1672 98.1683C37.0577 101.059 41.7944 101.059 44.6859 98.1683L54.8321 88.0221C59.492 83.3613 59.492 75.7293 54.8321 71.0695L44.6859 60.9232C43.2401 59.4775 41.3326 58.7546 39.4261 58.7546C37.5195 58.7546 35.612 59.4775 34.1672 60.9232V60.9242Z" fill="url(#paint0_linear_64_9883)"/>
<path fill-rule="evenodd" clip-rule="evenodd" d="M42.8638 62.7885C42.8638 72.4432 45.5374 79.8832 50.8855 85.1114C52.0625 86.2624 53.3249 87.2867 54.6708 88.1843L54.833 88.023C59.4929 83.3622 59.4929 75.7302 54.833 71.0704L44.6868 60.9242C44.1377 60.375 43.5214 59.9296 42.8647 59.5888V62.7885H42.8638Z" fill="url(#paint1_linear_64_9883)"/>
<path fill-rule="evenodd" clip-rule="evenodd" d="M34.1672 87.6506C31.2757 90.5421 31.2757 95.2787 34.1672 98.1693C36.9061 100.908 41.3009 101.052 44.2136 98.6023C44.2779 92.7395 43.0501 86.7683 40.8507 80.9661L34.1662 87.6506H34.1672Z" fill="url(#paint2_linear_64_9883)"/>
<path fill-rule="evenodd" clip-rule="evenodd" d="M34.1672 60.9242C31.2757 63.8147 31.2757 68.5523 34.1672 71.4429L42.2705 79.5463L34.1672 87.6496C31.2757 90.5411 31.2757 95.2778 34.1672 98.1683C37.0577 101.059 41.7944 101.059 44.6859 98.1683L54.8321 88.0221C59.492 83.3613 59.492 75.7293 54.8321 71.0695L44.6859 60.9232C43.2401 59.4775 41.3326 58.7546 39.4261 58.7546C37.5195 58.7546 35.612 59.4775 34.1672 60.9232V60.9242Z" fill="url(#paint3_linear_64_9883)"/>
<path fill-rule="evenodd" clip-rule="evenodd" d="M42.8638 62.7885C42.8638 72.4432 45.5374 79.8832 50.8855 85.1114C52.0625 86.2624 53.3249 87.2867 54.6708 88.1843L54.833 88.023C59.4929 83.3622 59.4929 75.7302 54.833 71.0704L44.6868 60.9242C44.1377 60.375 43.5214 59.9296 42.8647 59.5888V62.7885H42.8638Z" fill="url(#paint4_linear_64_9883)"/>
<path fill-rule="evenodd" clip-rule="evenodd" d="M34.1672 87.6506C31.2757 90.5421 31.2757 95.2787 34.1672 98.1693C36.9061 100.908 41.3009 101.052 44.2136 98.6023C44.2779 92.7395 43.0501 86.7683 40.8507 80.9661L34.1662 87.6506H34.1672Z" fill="url(#paint5_linear_64_9883)"/>
<path fill-rule="evenodd" clip-rule="evenodd" d="M62.949 58.7047C67.0578 58.7047 70.3881 62.0359 70.3881 66.1447C70.3881 70.2535 67.0578 73.5837 62.949 73.5837C58.8402 73.5837 55.509 70.2535 55.509 66.1447C55.509 62.0359 58.8402 58.7047 62.949 58.7047Z" fill="#FA4F01"/>
<path fill-rule="evenodd" clip-rule="evenodd" d="M62.949 58.7047C67.0578 58.7047 70.3881 62.0359 70.3881 66.1447C70.3881 70.2535 67.0569 73.5837 62.949 73.5837C58.8402 73.5837 55.509 70.2535 55.509 66.1447C55.509 62.0359 58.8402 58.7047 62.949 58.7047Z" fill="url(#paint6_linear_64_9883)"/>
<path d="M57.6909 60.8733C59.609 61.9398 61.6404 62.6618 63.7888 62.8768C65.8749 63.1926 67.8708 63.2762 69.7706 63.1523C69.4106 62.3238 68.8932 61.5482 68.2183 60.8733C66.7716 59.4266 64.8631 58.7027 62.9546 58.7027C61.0461 58.7027 59.1376 59.4266 57.6909 60.8723V60.8733Z" fill="#464197"/>
<path fill-rule="evenodd" clip-rule="evenodd" d="M57.6901 71.4026C60.597 74.3094 65.3106 74.3104 68.2184 71.4026C69.0306 70.5904 69.6152 69.6323 69.9714 68.6099C65.4402 66.377 60.7035 64.8515 55.8546 63.8925C55.0453 66.4557 55.6578 69.3702 57.6901 71.4026Z" fill="url(#paint7_linear_64_9883)"/>
<mask id="mask0_64_9883" style="mask-type:luminance" maskUnits="userSpaceOnUse" x="49" y="52" width="28" height="24">
<path d="M53.7261 66.1437C53.7261 63.5968 54.7581 61.2909 56.4276 59.6224C58.097 57.953 60.402 56.921 62.9488 56.921C65.4957 56.921 67.8016 57.953 69.4701 59.6224C71.1396 61.2919 72.1716 63.5968 72.1716 66.1437C72.1716 68.6906 71.1386 70.9955 69.4701 72.665C68.4103 73.7248 67.0932 74.5283 65.6215 74.9728H65.6205C65.5965 74.9776 65.5716 74.9853 65.5476 74.9949L65.5456 74.9958L65.5418 74.9978H65.5408H65.5399L65.538 74.9987H65.537L65.5312 75.0016L65.5293 75.0026L65.5226 75.0064L65.5197 75.0074H65.5188L65.5168 75.0083H65.5159H65.5149L65.5082 75.0122L65.5063 75.0131L65.5015 75.016L65.5005 75.017H65.4996L65.4909 75.0227L65.4823 75.0285L65.4736 75.0343L65.465 75.04L65.4573 75.0458L65.4496 75.0515L65.442 75.0583L65.4343 75.065L65.4276 75.0717C65.4228 75.0765 65.418 75.0803 65.4132 75.0851C65.4064 75.0919 65.3997 75.0995 65.394 75.1063L65.3882 75.1139L65.3824 75.1207L65.3767 75.1283L65.3709 75.136C65.3671 75.1418 65.3642 75.1466 65.3604 75.1523C65.3556 75.16 65.3508 75.1687 65.346 75.1773C65.3421 75.1859 65.3373 75.1946 65.3335 75.2023C65.3316 75.208 65.3287 75.2138 65.3268 75.2205C65.3248 75.2263 65.322 75.232 65.321 75.2387L65.3181 75.2474L65.3162 75.256L65.3133 75.2647L65.3114 75.2743L65.3095 75.2829C65.3085 75.2887 65.3076 75.2954 65.3066 75.3011L65.3047 75.3107L65.3037 75.3203L65.3028 75.329L65.3018 75.3386V75.3482V75.3578V75.3674V75.377L65.3028 75.3866L65.3037 75.3962L65.3047 75.4058L65.3056 75.4154C65.3076 75.425 65.3095 75.4346 65.3114 75.4432L65.3133 75.4528L65.3162 75.4624L65.3191 75.472L65.322 75.4807L65.3248 75.4903L65.3287 75.4989L65.3325 75.5075L65.3364 75.5162L65.3402 75.5248L65.344 75.5335L65.3488 75.5421L65.3536 75.5507L65.3584 75.5584V75.5594L65.368 75.5738L65.3709 75.5776L65.3719 75.5795C65.3757 75.5843 65.3786 75.5891 65.3824 75.5939L65.3844 75.5978L65.3882 75.6026C65.3978 75.6151 65.4084 75.6256 65.4189 75.6362L65.4208 75.6381C65.4324 75.6486 65.4439 75.6592 65.4564 75.6678L65.4621 75.6717L65.4669 75.6755C65.489 75.6909 65.513 75.7043 65.538 75.7149H65.5389C65.5504 75.7197 65.562 75.7235 65.5735 75.7274C65.609 75.7379 65.6455 75.7447 65.6829 75.7456C65.7031 75.7466 65.7242 75.7456 65.7444 75.7418C68.4832 75.5824 70.6567 74.0426 70.7527 73.9475L71.442 73.2698L75.7312 73.2247L76.8573 70.6336L73.9648 67.4195L73.9821 66.1398L73.9946 65.1731L76.9524 61.9571L75.8647 59.2979L71.5658 59.1597L70.7517 58.3312L70.074 57.6419L70.0288 53.3527L67.4378 52.2266L64.2237 55.1191L62.944 55.1018L61.9773 55.0893L58.7613 52.1315L56.1021 53.2192L55.9639 57.5181L55.1354 58.3322L54.4461 59.0099L50.1568 59.0551L49.0308 61.6461L50.1386 62.8778L53.4007 66.1398H53.7204L53.7261 66.1437Z" fill="white"/>
</mask>
<g mask="url(#mask0_64_9883)">
<path d="M51.5316 137.069C71.8178 137.069 88.2631 120.624 88.2631 100.338C88.2631 80.0517 71.8178 63.6064 51.5316 63.6064C31.2453 63.6064 14.8 80.0517 14.8 100.338C14.8 120.624 31.2453 137.069 51.5316 137.069Z" fill="#464197"/>
</g>
<path d="M64.2813 88.194V84.3098L60.7629 78.9904H62.8884L65.154 82.6778H65.1818L67.4753 78.9904H69.5585L66.0823 84.2666V88.194H64.2813ZM76.482 78.9904H78.2417V84.5354C78.2417 85.1268 78.1572 85.6586 77.9882 86.1328C77.8193 86.6071 77.5706 87.0103 77.2423 87.3434C76.914 87.6765 76.5098 87.9319 76.0317 88.1104C75.5537 88.288 75.0045 88.3773 74.3853 88.3773C73.7565 88.3773 73.1978 88.288 72.7111 88.1104C72.2234 87.9319 71.8145 87.6765 71.4871 87.3434C71.1588 87.0103 70.9073 86.6071 70.7335 86.1328C70.5597 85.6586 70.4733 85.1268 70.4733 84.5354V78.9904H72.2743V84.5354C72.2743 85.2208 72.4481 85.7555 72.7956 86.1395C73.1431 86.5245 73.6682 86.7155 74.3709 86.7155C75.0842 86.7155 75.6141 86.5235 75.9617 86.1395C76.3092 85.7555 76.4829 85.2208 76.4829 84.5354V78.9904H76.482ZM96.5777 82.8035C96.5777 82.0624 96.3924 81.4903 96.0218 81.0871C95.6513 80.6839 95.0858 80.4823 94.3255 80.4823C93.5661 80.4823 93.0026 80.6848 92.6369 81.0871C92.2711 81.4903 92.0877 82.0624 92.0877 82.8035V83.802H96.5767V82.8035H96.5777ZM96.5777 88.194V85.4359H92.0887V88.194H90.33V82.8035C90.33 82.1843 90.4164 81.6285 90.5901 81.136C90.7639 80.6435 91.0193 80.2259 91.3572 79.8832C91.6951 79.5415 92.1146 79.2765 92.6157 79.0883C93.1178 78.9002 93.6929 78.8071 94.3399 78.8071C94.9879 78.8071 95.562 78.9002 96.0641 79.0883C96.5661 79.2765 96.9876 79.5415 97.3303 79.8832C97.673 80.2259 97.9332 80.6435 98.1117 81.136C98.2893 81.6285 98.3796 82.1843 98.3796 82.8035V88.194H96.5777ZM86.9661 81.9175C86.7223 81.4672 86.37 81.1149 85.9111 80.8615C85.4503 80.608 84.9261 80.4813 84.3348 80.4813C83.8749 80.4813 83.4564 80.5591 83.082 80.7136C82.7066 80.8682 82.386 81.0842 82.1181 81.3607C81.8503 81.6372 81.642 81.9664 81.4922 82.3456C81.3425 82.7258 81.2666 83.1405 81.2666 83.5907C81.2666 84.041 81.3415 84.4567 81.4922 84.8368C81.642 85.217 81.8503 85.5472 82.1181 85.8285C82.386 86.1107 82.7066 86.3287 83.082 86.4832C83.4573 86.6378 83.8749 86.7155 84.3348 86.7155C85.0663 86.7155 85.6836 86.5514 86.1857 86.2231C86.6868 85.8947 87.0458 85.4301 87.2618 84.8301V84.8013H83.7722V83.1981H89.2173V84.0554C89.1617 84.6842 89.0042 85.264 88.746 85.794C88.4877 86.3239 88.1421 86.7789 87.7111 87.1591C87.2791 87.5392 86.778 87.8368 86.2049 88.0528C85.6327 88.2688 85.0087 88.3763 84.3338 88.3763C83.6109 88.3763 82.9524 88.2563 82.3562 88.0173C81.7601 87.7783 81.2445 87.4452 80.8077 87.018C80.3719 86.5917 80.034 86.0868 79.7949 85.506C79.5549 84.9242 79.4359 84.2858 79.4359 83.5917C79.4359 82.9072 79.5549 82.2717 79.7949 81.6852C80.034 81.0996 80.3719 80.5927 80.8077 80.1655C81.2436 79.7392 81.7601 79.4051 82.3562 79.1661C82.9524 78.9271 83.6109 78.8071 84.3338 78.8071C84.8964 78.8071 85.4244 78.8829 85.9159 79.0327C86.4093 79.1834 86.8548 79.3936 87.2532 79.6663C87.6516 79.9379 87.9962 80.2634 88.2871 80.6435C88.578 81.0237 88.8026 81.448 88.9629 81.9175H86.9652H86.9661Z" fill="black"/>
<path fill-rule="evenodd" clip-rule="evenodd" d="M65.4037 91.5386C66.7544 91.5386 67.6933 91.7776 68.2232 92.2557C68.7522 92.7338 69.0171 93.4077 69.0171 94.2765C69.0171 94.8736 68.9125 95.3805 68.7022 95.7981C68.492 96.2157 68.1214 96.5411 67.5925 96.7754C67.0635 97.0096 66.3339 97.1267 65.4037 97.1267H63.2869V98.9181H60.7832C60.8379 97.6019 60.8648 96.3702 60.8648 95.223C60.8648 94.0768 60.8379 92.8451 60.7832 91.529H63.2869V91.5395H65.4037V91.5386ZM64.6914 95.1616C65.2549 95.1616 65.6773 95.1395 65.9586 95.0954C66.2398 95.0512 66.4366 94.9715 66.549 94.8563C66.6613 94.7411 66.717 94.5712 66.717 94.3475C66.717 94.1238 66.6642 93.9558 66.5595 93.8435C66.4539 93.7312 66.261 93.6554 65.9797 93.615C65.6984 93.5738 65.2683 93.5536 64.6923 93.5536H63.2878V95.1616H64.6923H64.6914ZM125.709 98.9171C125.75 97.9197 125.77 97 125.77 96.159C125.77 95.8605 125.697 95.6234 125.552 95.4467C125.406 95.2701 125.221 95.1818 124.997 95.1818C124.773 95.1818 124.583 95.2816 124.426 95.4822C124.27 95.6829 124.179 95.9555 124.152 96.3021C124.138 96.8176 124.132 97.1843 124.132 97.4013C124.132 97.863 124.145 98.368 124.173 98.9181H121.74C121.795 97.9408 121.822 97.0182 121.822 96.1494C121.822 95.2806 121.795 94.3514 121.74 93.3607C122.189 93.3808 122.531 93.3914 122.768 93.3914C123.019 93.3914 123.363 93.3808 123.797 93.3607L124.091 94.8573C124.248 94.3149 124.492 93.9126 124.824 93.6515C125.156 93.3904 125.543 93.2598 125.984 93.2598C126.392 93.2598 126.745 93.3501 127.043 93.5296C127.342 93.7091 127.568 93.952 127.72 94.2573C127.873 94.5626 127.95 94.9053 127.95 95.2854V96.7514C127.95 97.6538 127.967 98.3767 128 98.9191H125.711L125.709 98.9171ZM72.1928 94.8659C72.4779 93.8416 73.1864 93.329 74.3202 93.329C74.517 93.329 74.707 93.3424 74.8904 93.3693L74.565 95.6493C74.0763 95.4659 73.676 95.3747 73.364 95.3747C72.9771 95.3747 72.692 95.4899 72.5086 95.7213C72.3253 95.9517 72.2341 96.2608 72.2341 96.6477V96.6371L72.2235 97.3091C72.2235 97.7911 72.237 98.3267 72.2648 98.9171H69.8322C69.8859 97.9399 69.9138 97.0173 69.9138 96.1485C69.9138 95.2797 69.8869 94.3504 69.8322 93.3597C70.2805 93.3798 70.6222 93.3904 70.8594 93.3904C71.1109 93.3904 71.4536 93.3798 71.8875 93.3597L72.1928 94.8659ZM78.6766 99.0189C77.516 99.0189 76.6635 98.753 76.1173 98.2202C75.571 97.6874 75.2974 96.9866 75.2974 96.1187C75.2974 95.271 75.5701 94.5818 76.1173 94.0528C76.6635 93.5238 77.516 93.2589 78.6766 93.2589C79.4571 93.2589 80.1099 93.3856 80.636 93.641C81.1621 93.8954 81.5499 94.2381 81.8014 94.6691C82.052 95.1002 82.1778 95.583 82.1778 96.1197C82.1778 96.9952 81.8878 97.697 81.308 98.2269C80.7282 98.7559 79.8507 99.0208 78.6766 99.0208V99.0189ZM78.7179 97.289C79.1586 97.289 79.4878 97.1843 79.7048 96.9731C79.9218 96.7629 80.0302 96.4816 80.0302 96.1283C80.0302 95.7962 79.9218 95.5226 79.7048 95.3085C79.4878 95.0954 79.1586 94.9878 78.7179 94.9878C78.2773 94.9878 77.9547 95.0925 77.7512 95.3037C77.5477 95.5139 77.4459 95.7885 77.4459 96.1283C77.4459 96.4816 77.5477 96.7629 77.7512 96.9731C77.9547 97.1834 78.2773 97.289 78.7179 97.289ZM89.5477 90.999C89.5064 92.2614 89.4872 93.5805 89.4872 94.9581C89.4872 96.3222 89.5074 97.6423 89.5477 98.9171H87.2475L87.2782 97.696C87.0814 98.151 86.7963 98.4851 86.4229 98.6982C86.0494 98.9114 85.6088 99.0189 85.1 99.0189C84.6594 99.0189 84.2619 98.8931 83.9086 98.6426C83.5554 98.3911 83.2808 98.0502 83.084 97.6192C82.8872 97.1882 82.7893 96.7149 82.7893 96.1994C82.7893 95.6906 82.8872 95.2106 83.084 94.7594C83.2808 94.3082 83.5573 93.9453 83.9134 93.6707C84.2696 93.3952 84.6757 93.2579 85.1298 93.2579C85.6587 93.2579 86.1118 93.3683 86.4882 93.5882C86.8645 93.809 87.1448 94.1498 87.3272 94.6115C87.3272 94.2246 87.3138 93.6035 87.2869 92.7482C87.26 91.9207 87.2456 91.337 87.2456 90.9981H89.5458L89.5477 90.999ZM86.1685 97.3091C86.5006 97.3091 86.7723 97.216 86.9826 97.0288C87.1928 96.8426 87.2984 96.545 87.2984 96.1379C87.2984 95.7789 87.1928 95.5139 86.9826 95.344C86.7723 95.1741 86.5074 95.0896 86.1886 95.0896C85.8834 95.0896 85.627 95.1866 85.4206 95.3795C85.2133 95.5725 85.1106 95.8259 85.1106 96.1379C85.1106 96.4845 85.2056 96.7658 85.3957 96.9827C85.5858 97.1997 85.844 97.3082 86.1694 97.3082L86.1685 97.3091ZM96.6219 93.3597C96.5739 94.215 96.5509 95.1376 96.5509 96.1283C96.5509 97.1258 96.5739 98.0551 96.6219 98.9171C96.188 98.897 95.8453 98.8864 95.5938 98.8864C95.3566 98.8864 95.0139 98.897 94.5656 98.9171L94.2709 97.4205C94.1154 97.9629 93.8706 98.3651 93.5384 98.6262C93.2062 98.8874 92.8194 99.0179 92.3778 99.0179C91.9707 99.0179 91.6184 98.9277 91.3198 98.7482C91.0213 98.5686 90.7957 98.3258 90.643 98.0205C90.4904 97.7152 90.4136 97.3725 90.4136 96.9923V95.5264C90.4136 94.624 90.3963 93.9011 90.3627 93.3587H92.6533C92.612 94.3562 92.5918 95.344 92.5918 96.3203C92.5918 96.6189 92.6648 96.856 92.8107 97.0327C92.9566 97.2093 93.141 97.2976 93.3656 97.2976C93.5758 97.2976 93.7602 97.2045 93.9205 97.0173C94.0798 96.831 94.1768 96.5747 94.2104 96.2493V96.015C94.2238 95.4861 94.2306 95.1194 94.2306 94.9158C94.2306 94.4474 94.2171 93.928 94.1893 93.3587H96.6219V93.3597ZM99.5019 96.1379C99.5154 96.4845 99.6258 96.7619 99.8322 96.9722C100.04 97.1824 100.346 97.288 100.753 97.288C100.976 97.288 101.177 97.2458 101.354 97.1603C101.53 97.0758 101.694 96.9482 101.842 96.7792C102.419 97.0029 103.094 97.1968 103.868 97.359C103.644 97.8813 103.266 98.2883 102.733 98.5802C102.2 98.872 101.51 99.0179 100.663 99.0179C99.5298 99.0179 98.6917 98.753 98.1483 98.224C97.605 97.6941 97.3342 96.999 97.3342 96.137C97.3342 95.2749 97.6059 94.5798 98.1483 94.0499C98.6907 93.521 99.5288 93.256 100.663 93.256C101.51 93.256 102.201 93.4019 102.733 93.6938C103.266 93.9856 103.644 94.3927 103.868 94.9149C103.264 95.0435 102.589 95.2365 101.842 95.4947C101.693 95.3248 101.53 95.1981 101.354 95.1127C101.178 95.0272 100.977 94.985 100.753 94.985C100.346 94.985 100.039 95.0896 99.8322 95.3008C99.6258 95.511 99.5154 95.7894 99.5019 96.135V96.1379ZM109.242 95.1818C108.618 95.1405 108.048 95.1107 107.532 95.0896L107.522 96.1687C107.522 96.5344 107.601 96.8214 107.761 97.0288C107.92 97.2362 108.203 97.3398 108.61 97.3398C108.767 97.3398 108.916 97.3264 109.059 97.2986C109.032 97.5491 109.017 97.8045 109.017 98.0618C109.017 98.1837 109.024 98.4621 109.038 98.896C108.739 98.9507 108.488 98.9843 108.284 98.9978C108.08 99.0112 107.816 99.0179 107.49 99.0179C106.696 99.0179 106.135 98.8259 105.805 98.4429C105.476 98.0589 105.312 97.5251 105.312 96.8397L105.322 95.1194C105.004 95.1328 104.671 95.153 104.325 95.1808V93.3789C104.677 93.3789 104.976 93.2666 105.221 93.0429C105.464 92.8192 105.61 92.5514 105.658 92.2394H108.427C108.081 92.7146 107.697 93.0947 107.277 93.3789H109.241V95.1808L109.242 95.1818ZM111.217 92.7587C110.79 92.7587 110.472 92.6541 110.265 92.4429C110.058 92.2327 109.955 91.9581 109.955 91.6182C109.955 91.2861 110.058 91.0106 110.265 90.7936C110.473 90.5767 110.79 90.4682 111.217 90.4682C111.624 90.4682 111.936 90.5786 112.154 90.7994C112.371 91.0202 112.479 91.2928 112.479 91.6182C112.479 91.9581 112.375 92.2327 112.164 92.4429C111.954 92.6531 111.638 92.7587 111.218 92.7587H111.217ZM110.036 98.9171C110.084 97.8247 110.107 96.9222 110.107 96.2099C110.107 95.3613 110.08 94.4118 110.025 93.3597H112.468C112.414 94.3706 112.386 95.321 112.386 96.2099C112.386 96.9558 112.41 97.8583 112.457 98.9171H110.034H110.036ZM69.3138 100.371C69.2667 101.517 69.2427 102.749 69.2427 104.066C69.2427 105.382 69.2667 106.613 69.3138 107.76H66.9224V104.991H63.1765V107.76H60.7842C60.8389 106.444 60.8658 105.212 60.8658 104.066C60.8658 102.919 60.8389 101.687 60.7842 100.371H63.1765V103.139H66.9224V100.371H69.3138ZM73.4053 107.861C72.2446 107.861 71.3912 107.596 70.845 107.063C70.2987 106.53 70.0251 105.829 70.0251 104.961C70.0251 104.113 70.2987 103.424 70.845 102.895C71.3912 102.365 72.2446 102.101 73.4053 102.101C74.1858 102.101 74.8386 102.229 75.3646 102.484C75.8907 102.738 76.2786 103.081 76.5301 103.512C76.7816 103.943 76.9074 104.426 76.9074 104.962C76.9074 105.837 76.6174 106.54 76.0366 107.068C75.4568 107.597 74.5794 107.862 73.4053 107.862V107.861ZM73.4466 106.132C73.8872 106.132 74.2165 106.027 74.4334 105.817C74.6504 105.606 74.7589 105.324 74.7589 104.972C74.7589 104.64 74.6504 104.366 74.4334 104.152C74.2165 103.938 73.8872 103.831 73.4466 103.831C73.0059 103.831 72.6834 103.937 72.4798 104.147C72.2763 104.357 72.1746 104.633 72.1746 104.972C72.1746 105.324 72.2763 105.606 72.4798 105.817C72.6834 106.027 73.0059 106.132 73.4466 106.132ZM83.8789 102.203C83.8318 103.059 83.8078 103.981 83.8078 104.972C83.8078 105.969 83.8318 106.899 83.8789 107.761C83.445 107.74 83.1022 107.73 82.8517 107.73C82.6136 107.73 82.2718 107.74 81.8235 107.761L81.5288 106.265C81.3723 106.807 81.1285 107.21 80.7963 107.471C80.4642 107.732 80.0773 107.862 79.6357 107.862C79.2286 107.862 78.8754 107.773 78.5768 107.593C78.2782 107.413 78.0526 107.17 77.9 106.865C77.7474 106.56 77.6706 106.217 77.6706 105.837V104.372C77.6706 103.469 77.6542 102.747 77.6197 102.204H79.9093C79.868 103.202 79.8478 104.188 79.8478 105.166C79.8478 105.464 79.9208 105.701 80.0667 105.878C80.2126 106.055 80.397 106.143 80.6216 106.143C80.8318 106.143 81.0171 106.05 81.1765 105.864C81.3358 105.677 81.4328 105.421 81.4664 105.096V104.861C81.4798 104.332 81.4866 103.966 81.4866 103.762C81.4866 103.294 81.4731 102.775 81.4453 102.205H83.8779L83.8789 102.203ZM87.981 107.861C87.4107 107.861 86.8328 107.782 86.2453 107.622C85.6587 107.463 85.1077 107.22 84.5922 106.895L85.6606 105.439C85.9726 105.663 86.349 105.838 86.7906 105.964C87.2312 106.089 87.6123 106.152 87.9301 106.152C88.2354 106.152 88.4715 106.109 88.6376 106.025C88.8037 105.94 88.8872 105.83 88.8872 105.694C88.8872 105.585 88.8459 105.501 88.7653 105.439C88.6837 105.379 88.5714 105.348 88.4293 105.348C88.341 105.348 88.2411 105.352 88.1288 105.359C88.0165 105.365 87.9272 105.372 87.859 105.379C87.5058 105.419 87.1429 105.439 86.7694 105.439C86.1656 105.439 85.676 105.326 85.2987 105.099C84.9224 104.871 84.7342 104.5 84.7342 103.984C84.7342 103.387 85.0155 102.924 85.579 102.595C86.1426 102.266 86.9701 102.1 88.0626 102.1C88.5982 102.1 89.1397 102.177 89.6859 102.33C90.2322 102.483 90.715 102.712 91.1365 103.017L89.9662 104.198C89.5794 103.995 89.2184 103.851 88.8824 103.765C88.5464 103.681 88.2085 103.638 87.8696 103.638C87.6325 103.638 87.429 103.685 87.259 103.78C87.0891 103.876 87.0046 103.984 87.0046 104.106C87.0046 104.201 87.0402 104.276 87.1112 104.33C87.1822 104.384 87.2754 104.411 87.3906 104.411C87.5058 104.411 87.6651 104.401 87.8686 104.381C88.364 104.348 88.7336 104.331 88.9784 104.331C89.684 104.331 90.2302 104.45 90.6171 104.687C91.004 104.924 91.197 105.287 91.197 105.775C91.197 106.508 90.9118 107.04 90.3416 107.368C89.7714 107.697 88.9842 107.861 87.98 107.861H87.981ZM97.2939 105.216H93.9762C94.0299 105.514 94.1643 105.757 94.3784 105.943C94.5925 106.13 94.8958 106.224 95.2894 106.224C95.5746 106.224 95.8424 106.168 96.0939 106.056C96.3445 105.943 96.5451 105.786 96.6949 105.582C97.1499 105.806 97.7528 106.047 98.5064 106.305C98.2962 106.78 97.9141 107.159 97.3611 107.44C96.8082 107.721 96.0872 107.862 95.1982 107.862C94.0443 107.862 93.1918 107.596 92.6379 107.064C92.085 106.531 91.8085 105.83 91.8085 104.962C91.8085 104.114 92.083 103.425 92.6331 102.896C93.1822 102.366 94.0376 102.102 95.1982 102.102C95.8904 102.102 96.4904 102.218 97.0002 102.449C97.509 102.679 97.8987 103 98.1704 103.411C98.4421 103.822 98.5774 104.291 98.5774 104.821C98.5774 104.997 98.5707 105.129 98.5573 105.218H97.2949L97.2939 105.216ZM95.3394 103.638C95.0005 103.638 94.7221 103.703 94.5051 103.831C94.2882 103.961 94.1355 104.137 94.0472 104.361H96.4491C96.3675 104.144 96.236 103.97 96.0526 103.837C95.8693 103.705 95.6322 103.638 95.3403 103.638H95.3394Z" fill="#B1306F"/>
<path fill-rule="evenodd" clip-rule="evenodd" d="M117.401 99.2253L116.766 99.2167L115.856 100.035L115.124 99.7159L115.111 98.5034L114.689 98.0743L113.473 98.0349L113.166 97.2832L114.003 96.3732L114.011 95.7376L113.193 94.8285L113.512 94.096L114.726 94.0836L115.155 93.6612L115.194 92.4448L115.946 92.1376L116.856 92.9748L117.491 92.9834L118.4 92.1655L119.133 92.4842L119.145 93.6967L119.568 94.1258L120.784 94.1652L121.091 94.9168L120.254 95.8269L120.246 96.4624L121.063 97.3716L120.745 98.104L119.532 98.1165L119.103 98.5389L119.064 99.7552L118.312 100.062L117.402 99.2253H117.401ZM118.447 96.0996C118.448 96.4941 118.276 96.8964 117.908 97.1748C117.402 97.5607 116.656 97.4973 116.194 97.0298C115.917 96.7514 115.802 96.4212 115.808 96.0996C115.802 95.778 115.917 95.4468 116.194 95.1693C116.656 94.7018 117.402 94.6375 117.908 95.0234C118.276 95.3028 118.448 95.704 118.447 96.0986V96.0996Z" fill="#B1306F"/>
<defs>
<linearGradient id="paint0_linear_64_9883" x1="32.6725" y1="79.192" x2="57.2398" y2="79.192" gradientUnits="userSpaceOnUse">
<stop stop-color="#B21162"/>
<stop offset="1" stop-color="#6E0937"/>
</linearGradient>
<linearGradient id="paint1_linear_64_9883" x1="42.8638" y1="71.0474" x2="77.8106" y2="71.0474" gradientUnits="userSpaceOnUse">
<stop stop-color="#FF1162"/>
<stop offset="1" stop-color="#6E0937"/>
</linearGradient>
<linearGradient id="paint2_linear_64_9883" x1="7.48685" y1="61.9658" x2="48.2878" y2="93.9011" gradientUnits="userSpaceOnUse">
<stop stop-color="#FF00FF"/>
<stop offset="1" stop-color="#3E1B91"/>
</linearGradient>
<linearGradient id="paint3_linear_64_9883" x1="32.6734" y1="79.192" x2="57.2408" y2="79.192" gradientUnits="userSpaceOnUse">
<stop stop-color="#B1306F"/>
<stop offset="1" stop-color="#6D2847"/>
</linearGradient>
<linearGradient id="paint4_linear_64_9883" x1="42.8628" y1="71.0474" x2="77.8126" y2="71.0474" gradientUnits="userSpaceOnUse">
<stop stop-color="#EE4274"/>
<stop offset="1" stop-color="#6D2847"/>
</linearGradient>
<linearGradient id="paint5_linear_64_9883" x1="14.9365" y1="52.4464" x2="40.8382" y2="103.42" gradientUnits="userSpaceOnUse">
<stop stop-color="#A161A6"/>
<stop offset="1" stop-color="#464197"/>
</linearGradient>
<linearGradient id="paint6_linear_64_9883" x1="91.4668" y1="56.0589" x2="31.485" y2="56.0589" gradientUnits="userSpaceOnUse">
<stop stop-color="#D93438"/>
<stop offset="1" stop-color="#F47F3B"/>
</linearGradient>
<linearGradient id="paint7_linear_64_9883" x1="73.6453" y1="65.1942" x2="54.0824" y2="76.1085" gradientUnits="userSpaceOnUse">
<stop stop-color="#FAB683"/>
<stop offset="1" stop-color="#FAB683"/>
</linearGradient>
</defs>
</svg>
