<svg width="160" height="160" viewBox="0 0 160 160" fill="none" xmlns="http://www.w3.org/2000/svg">
<path fill-rule="evenodd" clip-rule="evenodd" d="M34.228 61.6816C31.3921 64.5165 31.3921 69.1619 34.228 71.9968L42.1748 79.9437L34.228 87.8905C31.3921 90.7264 31.3921 95.3709 34.228 98.2057C37.0628 101.041 41.7083 101.041 44.5432 98.2057L54.4926 88.2563C59.0632 83.6857 59.0632 76.2016 54.4926 71.631L44.5432 61.6816C43.1252 60.2637 41.2561 59.5552 39.386 59.5552C37.516 59.5552 35.6459 60.2637 34.2289 61.6816H34.228Z" fill="#920D4D"/>
<path fill-rule="evenodd" clip-rule="evenodd" d="M42.7559 63.5104C42.7559 72.9779 45.3776 80.2748 50.6221 85.4003C51.776 86.5292 53.0135 87.5334 54.3344 88.4137L54.4928 88.2553C59.0634 83.6848 59.0634 76.2006 54.4928 71.63L44.5434 61.6806C44.0048 61.1421 43.401 60.7053 42.7568 60.3721V63.5104H42.7559Z" fill="#F40F5E"/>
<path fill-rule="evenodd" clip-rule="evenodd" d="M34.228 87.8905C31.3921 90.7264 31.3921 95.3709 34.228 98.2057C36.914 100.892 41.2235 101.033 44.0804 98.631C44.1428 92.8816 42.939 87.0256 40.7828 81.3357L34.228 87.8905Z" fill="#6C14AC"/>
<path fill-rule="evenodd" clip-rule="evenodd" d="M62.4518 59.5052C66.4809 59.5052 69.7468 62.7712 69.7468 66.8012C69.7468 70.8304 66.4809 74.0963 62.4518 74.0963C58.4227 74.0963 55.1567 70.8304 55.1567 66.8012C55.1567 62.7721 58.4227 59.5052 62.4518 59.5052Z" fill="#E54722"/>
<path fill-rule="evenodd" clip-rule="evenodd" d="M57.2959 61.6326C59.1765 62.679 61.1695 63.3865 63.2757 63.5968C65.3215 63.9069 67.278 63.9885 69.1423 63.8675C68.789 63.0553 68.2821 62.295 67.6197 61.6326C66.2009 60.2137 64.3289 59.5043 62.4578 59.5043C60.5868 59.5043 58.7157 60.2137 57.2969 61.6317L57.2959 61.6326Z" fill="#7331F3"/>
<path fill-rule="evenodd" clip-rule="evenodd" d="M57.2948 71.9574C60.146 74.8086 64.7674 74.8086 67.6186 71.9574C68.4154 71.1606 68.9886 70.2208 69.338 69.2185C64.8942 67.0288 60.2497 65.5331 55.4948 64.5933C54.7018 67.1065 55.3018 69.9645 57.2948 71.9574Z" fill="#FEBA7E"/>
<path d="M64.8356 84.929V82.6269L62.7515 79.4752H64.01L65.3521 81.6602H65.3694L66.7287 79.4752H67.9623L65.9022 82.6019V84.929H64.8347H64.8356ZM123.75 83.2941C123.75 83.033 123.669 82.8314 123.508 82.6893C123.347 82.5472 123.118 82.4771 122.824 82.4771H122.766C122.477 82.4771 122.252 82.5462 122.091 82.6854C121.93 82.8246 121.849 83.0272 121.849 83.2941C121.849 83.5552 121.928 83.7616 122.086 83.9114C122.245 84.0611 122.483 84.136 122.799 84.136C123.111 84.136 123.347 84.0611 123.508 83.9114C123.669 83.7616 123.75 83.5552 123.75 83.2941ZM124.225 82.4771V82.4934C124.386 82.5875 124.511 82.7133 124.6 82.8688C124.69 83.0243 124.734 83.2192 124.734 83.4525C124.734 83.6973 124.688 83.9171 124.597 84.111C124.504 84.3059 124.374 84.473 124.205 84.6112C124.035 84.7504 123.831 84.857 123.591 84.9318C123.352 85.0067 123.088 85.0442 122.799 85.0442C122.511 85.0442 122.247 85.0048 122.007 84.927C121.768 84.8493 121.564 84.7389 121.394 84.5939C121.224 84.449 121.093 84.2742 120.999 84.0688C120.903 83.8634 120.856 83.6349 120.856 83.3853C120.856 83.0512 120.936 82.7747 121.095 82.5558C121.253 82.336 121.479 82.1709 121.774 82.0595V82.0432C121.541 81.9376 121.361 81.7859 121.237 81.5891C121.112 81.3914 121.049 81.1514 121.049 80.8672C121.049 80.6454 121.091 80.441 121.174 80.2547C121.258 80.0685 121.374 79.911 121.525 79.7834C121.674 79.6557 121.859 79.5549 122.075 79.4829C122.292 79.4109 122.534 79.3744 122.8 79.3744C123.323 79.3744 123.738 79.5021 124.047 79.7574C124.356 80.0138 124.524 80.3862 124.551 80.8749H123.585C123.563 80.6973 123.485 80.5542 123.351 80.4458C123.218 80.3373 123.04 80.2835 122.818 80.2835C122.573 80.2835 122.381 80.3488 122.243 80.4794C122.103 80.6099 122.034 80.7702 122.034 80.9594C122.034 81.1706 122.105 81.3347 122.247 81.4518C122.39 81.569 122.607 81.6266 122.902 81.6266H125.062V82.4771H124.228H124.225ZM125.201 92.5994V88.1382H123.575V87.1466H127.895V88.1382H126.269V92.5994H125.201ZM122.024 92.5994V89.3142C122.024 88.9082 121.92 88.5923 121.711 88.3677C121.503 88.1421 121.19 88.0298 120.773 88.0298C120.356 88.0298 120.043 88.1421 119.835 88.3677C119.627 88.5923 119.522 88.9082 119.522 89.3142V92.5994H118.455V89.3142C118.455 88.9638 118.505 88.649 118.608 88.3677C118.711 88.0864 118.86 87.8483 119.055 87.6506C119.249 87.4528 119.49 87.3021 119.78 87.1965C120.069 87.0909 120.4 87.0381 120.773 87.0381C121.145 87.0381 121.477 87.0918 121.766 87.1965C122.055 87.3021 122.296 87.4538 122.491 87.6506C122.686 87.8483 122.834 88.0874 122.938 88.3677C123.04 88.649 123.092 88.9638 123.092 89.3142V92.5994H122.025H122.024ZM114.686 90.3059V91.6144H117.638V92.5984H113.618V87.1446H117.638V88.1373H114.686V89.3546H117.154V90.3059H114.686ZM106.789 92.5994H105.721V89.0886C105.721 88.7382 105.77 88.4339 105.867 88.1757C105.965 87.9174 106.097 87.7043 106.267 87.5373C106.436 87.3702 106.638 87.2454 106.872 87.1619C107.105 87.0784 107.356 87.0371 107.623 87.0371C107.973 87.0371 108.279 87.1082 108.54 87.2502C108.801 87.3923 109.009 87.5968 109.166 87.8637H109.182C109.332 87.5968 109.539 87.3923 109.803 87.2502C110.067 87.1082 110.374 87.0371 110.725 87.0371C110.991 87.0371 111.242 87.0794 111.475 87.1619C111.709 87.2454 111.91 87.3702 112.08 87.5373C112.249 87.7043 112.383 87.9174 112.48 88.1757C112.577 88.4339 112.626 88.7392 112.626 89.0886V92.5994H111.56V89.0886C111.56 88.7162 111.471 88.4464 111.293 88.2794C111.115 88.1123 110.895 88.0288 110.634 88.0288C110.367 88.0288 110.147 88.1123 109.971 88.2794C109.796 88.4464 109.708 88.7162 109.708 89.0886V92.5994H108.64V89.0886C108.64 88.7162 108.553 88.4464 108.378 88.2794C108.203 88.1123 107.982 88.0288 107.715 88.0288C107.454 88.0288 107.234 88.1123 107.056 88.2794C106.879 88.4464 106.79 88.7162 106.79 89.0886V92.5994H106.789ZM103.787 92.5994V89.3142C103.787 88.9082 103.682 88.5923 103.474 88.3677C103.265 88.1421 102.952 88.0298 102.536 88.0298C102.118 88.0298 101.806 88.1421 101.597 88.3677C101.389 88.5923 101.284 88.9082 101.284 89.3142V92.5994H100.216V89.3142C100.216 88.9638 100.267 88.649 100.371 88.3677C100.474 88.0864 100.623 87.8483 100.817 87.6506C101.011 87.4528 101.253 87.3021 101.543 87.1965C101.832 87.0909 102.163 87.0381 102.536 87.0381C102.907 87.0381 103.239 87.0918 103.527 87.1965C103.816 87.3021 104.058 87.4538 104.253 87.6506C104.447 87.8483 104.596 88.0874 104.7 88.3677C104.802 88.649 104.854 88.9638 104.854 89.3142V92.5994H103.787ZM98.1495 87.1456H99.2171V92.5994H98.1495V87.1456ZM96.0817 89.4054C96.0817 88.9667 95.9723 88.6269 95.7524 88.3888C95.5326 88.1498 95.1975 88.0298 94.7473 88.0298C94.2971 88.0298 93.963 88.1498 93.747 88.3888C93.53 88.6278 93.4215 88.9667 93.4215 89.4054V89.9978H96.0817V89.4054ZM96.0817 92.5994V90.9654H93.4215V92.5994H92.379V89.4054C92.379 89.0387 92.4308 88.7094 92.5335 88.4176C92.6363 88.1258 92.7879 87.879 92.9886 87.6755C93.1892 87.473 93.4379 87.3155 93.7355 87.2042C94.0321 87.0928 94.3729 87.0371 94.7569 87.0371C95.1409 87.0371 95.4807 87.0928 95.7783 87.2042C96.0759 87.3155 96.3255 87.472 96.5291 87.6755C96.7316 87.879 96.8862 88.1258 96.9918 88.4176C97.0974 88.7094 97.1502 89.0387 97.1502 89.4054V92.5994H96.0827H96.0817ZM89.211 92.5994V88.1382H87.5847V87.1466H91.9047V88.1382H90.2785V92.5994H89.211ZM85.0753 89.7635C85.4142 89.7635 85.6494 89.6858 85.7799 89.5302C85.9105 89.3747 85.9758 89.1798 85.9758 88.9466C85.9758 88.7133 85.9095 88.5203 85.7799 88.3667C85.6494 88.2141 85.4142 88.1373 85.0753 88.1373H83.8417V89.7635H85.0753ZM85.9844 92.5994L84.8257 90.7562H83.8417V92.5994H82.7742V87.1456H85.059C85.4036 87.1456 85.7012 87.1898 85.9518 87.279C86.2023 87.3683 86.4087 87.4931 86.5729 87.6544C86.7371 87.8157 86.858 88.0058 86.9358 88.2256C87.0135 88.4454 87.0529 88.6854 87.0529 88.9466C87.0529 89.3469 86.9607 89.6954 86.7774 89.993C86.594 90.2906 86.3079 90.5027 85.9182 90.6314V90.6477L87.2526 92.5994H85.9854H85.9844ZM78.8795 90.3059V91.6144H81.8315V92.5984H77.8119V87.1446H81.8315V88.1373H78.8795V89.3546H81.3476V90.3059H78.8795ZM74.3348 92.5994V88.1382H72.7086V87.1466H77.0286V88.1382H75.4023V92.5994H74.3348ZM71.1582 92.5994V89.3142C71.1582 88.9082 71.0535 88.5923 70.8452 88.3677C70.6369 88.1421 70.3239 88.0298 69.9073 88.0298C69.4907 88.0298 69.1777 88.1421 68.9684 88.3677C68.7601 88.5923 68.6555 88.9082 68.6555 89.3142V92.5994H67.5879V89.3142C67.5879 88.9638 67.6398 88.649 67.7425 88.3677C67.8452 88.0864 67.994 87.8483 68.1889 87.6506C68.3838 87.4528 68.6247 87.3021 68.9147 87.1965C69.2036 87.0909 69.5348 87.0381 69.9073 87.0381C70.2798 87.0381 70.61 87.0918 70.8999 87.1965C71.1889 87.3021 71.4308 87.4538 71.6257 87.6506C71.8206 87.8483 71.9684 88.0874 72.0721 88.3677C72.1748 88.649 72.2267 88.9638 72.2267 89.3142V92.5994H71.1591H71.1582ZM63.8199 90.3059V91.6144H66.7719V92.5984H62.7524V87.1446H66.7719V88.1373H63.8199V89.3546H66.2881V90.3059H63.8199ZM116.697 81.0506C116.691 80.8394 116.613 80.6666 116.463 80.5331C116.314 80.3997 116.088 80.3334 115.788 80.3334C115.487 80.3334 115.263 80.4045 115.112 80.5456C114.962 80.6877 114.886 80.8586 114.886 81.0582C114.886 81.2032 114.928 81.3146 115.011 81.3914C115.095 81.4691 115.204 81.5334 115.34 81.5834C115.477 81.6333 115.632 81.6726 115.808 81.7005C115.983 81.7283 116.16 81.7619 116.342 81.8003C116.522 81.8397 116.701 81.8896 116.875 81.9501C117.051 82.0115 117.207 82.0979 117.343 82.2083C117.479 82.3197 117.589 82.4656 117.672 82.6461C117.756 82.8266 117.797 83.0531 117.797 83.3258C117.797 83.5926 117.748 83.8317 117.651 84.0429C117.553 84.2541 117.417 84.4336 117.238 84.5805C117.061 84.7283 116.847 84.8416 116.6 84.9222C116.353 85.0019 116.076 85.0432 115.77 85.0432C115.47 85.0432 115.196 85.0038 114.949 84.927C114.701 84.8493 114.49 84.7379 114.315 84.593C114.139 84.449 114.002 84.2714 113.902 84.063C113.802 83.8547 113.75 83.6195 113.744 83.3584H114.785C114.791 83.5754 114.875 83.7501 115.036 83.8845C115.197 84.0179 115.441 84.0842 115.769 84.0842C116.103 84.0842 116.35 84.017 116.511 83.8845C116.673 83.751 116.753 83.5754 116.753 83.3584C116.753 83.2202 116.711 83.1088 116.629 83.0253C116.545 82.9418 116.435 82.8765 116.299 82.8294C116.163 82.7824 116.008 82.744 115.837 82.7171C115.664 82.6893 115.486 82.6557 115.303 82.6173C115.119 82.5779 114.942 82.528 114.769 82.4675C114.596 82.4061 114.443 82.3187 114.306 82.2045C114.17 82.0902 114.061 81.9443 113.977 81.7667C113.894 81.5891 113.852 81.3635 113.852 81.0909C113.852 80.8403 113.898 80.6099 113.99 80.3987C114.082 80.1875 114.212 80.0061 114.382 79.8525C114.551 79.6998 114.754 79.5808 114.991 79.4982C115.227 79.4147 115.49 79.3734 115.779 79.3734C116.062 79.3734 116.319 79.4138 116.551 79.4944C116.782 79.575 116.98 79.6893 117.147 79.8362C117.314 79.984 117.446 80.1606 117.543 80.3661C117.64 80.5715 117.694 80.8 117.706 81.0496H116.697V81.0506ZM110.684 84.928V80.4659H109.058V79.4742H113.378V80.4659H111.752V84.928H110.684ZM106.549 82.0922C106.887 82.0922 107.123 82.0144 107.253 81.8589C107.384 81.7034 107.449 81.5085 107.449 81.2752C107.449 81.0419 107.383 80.849 107.253 80.6954C107.123 80.5427 106.887 80.4659 106.549 80.4659H105.315V82.0922H106.549ZM107.458 84.927L106.299 83.0838H105.315V84.927H104.247V79.4733H106.532C106.877 79.4733 107.175 79.5174 107.425 79.6067C107.676 79.696 107.882 79.8208 108.046 79.9821C108.21 80.1434 108.331 80.3334 108.409 80.5533C108.487 80.7722 108.526 81.0131 108.526 81.2742C108.526 81.6746 108.434 82.023 108.251 82.3206C108.067 82.6182 107.78 82.8304 107.391 82.959V82.9763L108.726 84.927H107.459H107.458ZM100.503 84.0515C100.776 84.0515 101.023 84.0054 101.246 83.9142C101.467 83.8221 101.658 83.6934 101.817 83.5264C101.975 83.3594 102.099 83.1635 102.188 82.9389C102.278 82.7133 102.322 82.4675 102.322 82.2006C102.322 81.9338 102.278 81.688 102.188 81.4624C102.099 81.2368 101.975 81.0429 101.817 80.8787C101.658 80.7146 101.468 80.5869 101.246 80.4947C101.023 80.4026 100.776 80.3574 100.503 80.3574C100.231 80.3574 99.9831 80.4035 99.7614 80.4947C99.5396 80.5869 99.3486 80.7146 99.1902 80.8787C99.0318 81.0429 98.9079 81.2368 98.8187 81.4624C98.7294 81.688 98.6852 81.9338 98.6852 82.2006C98.6852 82.4675 98.7294 82.7133 98.8187 82.9389C98.9079 83.1635 99.0318 83.3594 99.1902 83.5264C99.3486 83.6934 99.5387 83.8221 99.7614 83.9142C99.9831 84.0064 100.231 84.0515 100.503 84.0515ZM103.406 82.2006C103.406 82.6115 103.335 82.9898 103.193 83.3344C103.051 83.679 102.851 83.9776 102.592 84.231C102.334 84.4835 102.027 84.6813 101.671 84.8234C101.316 84.9654 100.926 85.0365 100.503 85.0365C100.075 85.0365 99.6846 84.9654 99.3323 84.8234C98.979 84.6813 98.6737 84.4835 98.4145 84.231C98.1563 83.9786 97.9556 83.68 97.8135 83.3344C97.6715 82.9898 97.6014 82.6115 97.6014 82.2006C97.6014 81.7946 97.6724 81.4182 97.8135 81.0707C97.9556 80.7232 98.1553 80.4237 98.4145 80.1702C98.6728 79.9168 98.979 79.72 99.3323 79.5779C99.6855 79.4358 100.075 79.3648 100.503 79.3648C100.926 79.3648 101.316 79.4358 101.671 79.5779C102.026 79.72 102.334 79.9168 102.592 80.1702C102.851 80.4237 103.051 80.7232 103.193 81.0707C103.335 81.4182 103.406 81.7946 103.406 82.2006ZM95.1083 82.192C95.4635 82.192 95.7111 82.1104 95.8503 81.9462C95.9895 81.7821 96.0587 81.5747 96.0587 81.3251C96.0587 81.0803 95.9895 80.8768 95.8503 80.7126C95.7121 80.5485 95.4644 80.4659 95.1083 80.4659H93.9323V82.192H95.1083ZM92.8647 84.927V79.4733H95.091C95.4462 79.4733 95.7543 79.5194 96.0126 79.6106C96.2708 79.7027 96.4839 79.8314 96.651 79.9984C96.818 80.1654 96.9409 80.3613 97.0215 80.5859C97.1022 80.8115 97.1425 81.0573 97.1425 81.3242C97.1425 81.591 97.1022 81.8368 97.0215 82.0624C96.9409 82.287 96.8171 82.4838 96.651 82.6499C96.4839 82.817 96.2718 82.9456 96.0126 83.0378C95.7543 83.1299 95.4471 83.175 95.091 83.175H93.9323V84.9261H92.8647V84.927ZM90.9217 81.0496C90.9159 80.8384 90.8382 80.6656 90.6884 80.5322C90.5377 80.3987 90.3131 80.3325 90.0126 80.3325C89.7121 80.3325 89.4875 80.4035 89.3367 80.5446C89.186 80.6867 89.1111 80.8576 89.1111 81.0573C89.1111 81.2022 89.1524 81.3136 89.2359 81.3904C89.3195 81.4682 89.4289 81.5325 89.5652 81.5824C89.7015 81.6323 89.8571 81.6717 90.0327 81.6995C90.2075 81.7274 90.386 81.761 90.5665 81.7994C90.747 81.8387 90.9255 81.8886 91.1003 81.9491C91.275 82.0106 91.4305 82.097 91.5678 82.2074C91.7041 82.3187 91.8135 82.4646 91.8971 82.6451C91.9806 82.8256 92.0219 83.0522 92.0219 83.3248C92.0219 83.5917 91.9729 83.8307 91.8759 84.0419C91.779 84.2531 91.6417 84.4326 91.4631 84.5795C91.2855 84.7274 91.0724 84.8406 90.8247 84.9213C90.5771 85.001 90.3006 85.0422 89.9953 85.0422C89.6948 85.0422 89.4212 85.0029 89.1735 84.9261C88.9268 84.8483 88.7147 84.737 88.5399 84.592C88.3652 84.448 88.227 84.2704 88.1271 84.0621C88.0273 83.8538 87.9745 83.6186 87.9687 83.3574H89.0113C89.0171 83.5744 89.1006 83.7491 89.2619 83.8835C89.4231 84.017 89.667 84.0832 89.9963 84.0832C90.3294 84.0832 90.5771 84.016 90.7383 83.8835C90.8996 83.7501 90.9803 83.5744 90.9803 83.3574C90.9803 83.2192 90.939 83.1078 90.8555 83.0243C90.7719 82.9408 90.6625 82.8755 90.5262 82.8285C90.3899 82.7814 90.2363 82.743 90.0635 82.7162C89.8907 82.6883 89.7131 82.6547 89.5297 82.6163C89.3463 82.577 89.1687 82.527 88.9959 82.4666C88.8231 82.4051 88.6695 82.3178 88.5332 82.2035C88.3969 82.0893 88.2875 81.9434 88.2039 81.7658C88.1204 81.5882 88.0791 81.3626 88.0791 81.0899C88.0791 80.8394 88.1252 80.609 88.2164 80.3978C88.3086 80.1866 88.4382 80.0051 88.6081 79.8515C88.7771 79.6989 88.9806 79.5798 89.2167 79.4973C89.4529 79.4138 89.715 79.3725 90.0049 79.3725C90.2881 79.3725 90.5454 79.4128 90.7767 79.4934C91.0071 79.5741 91.2059 79.6883 91.3729 79.8352C91.5399 79.983 91.6715 80.1597 91.7694 80.3651C91.8663 80.5706 91.9201 80.799 91.9316 81.0486H90.9227L90.9217 81.0496ZM83.9751 81.7331C83.9751 81.2944 83.8647 80.9546 83.6459 80.7155C83.426 80.4765 83.091 80.3574 82.6407 80.3574C82.1905 80.3574 81.8564 80.4765 81.6395 80.7155C81.4225 80.9546 81.314 81.2934 81.314 81.7331V82.3254H83.9742V81.7331H83.9751ZM83.9751 84.927V83.2931H81.315V84.927H80.2724V81.7331C80.2724 81.3664 80.3243 81.0371 80.427 80.7453C80.5297 80.4534 80.6814 80.2058 80.8811 80.0032C81.0817 79.8006 81.3303 79.6432 81.6279 79.5318C81.9255 79.4205 82.2663 79.3648 82.6494 79.3648C83.0334 79.3648 83.3732 79.4205 83.6708 79.5318C83.9675 79.6432 84.218 79.8006 84.4206 80.0032C84.6231 80.2058 84.7777 80.4534 84.8833 80.7453C84.9889 81.0371 85.0417 81.3664 85.0417 81.7331V84.927H83.9742H83.9751ZM78.2795 81.208C78.1345 80.9411 77.9262 80.7328 77.6535 80.583C77.3809 80.4323 77.0699 80.3574 76.7195 80.3574C76.4478 80.3574 76.2001 80.4035 75.9774 80.4947C75.7547 80.5869 75.5646 80.7146 75.4062 80.8778C75.2478 81.0419 75.1239 81.2368 75.0347 81.4614C74.9454 81.687 74.9012 81.9328 74.9012 82.1997C74.9012 82.4666 74.9454 82.7133 75.0347 82.9379C75.1239 83.1626 75.2468 83.3594 75.4062 83.5254C75.5646 83.6925 75.7547 83.8211 75.9774 83.9133C76.1991 84.0045 76.4468 84.0506 76.7195 84.0506C77.1534 84.0506 77.5191 83.9536 77.8167 83.7587C78.1134 83.5638 78.3265 83.2893 78.4551 82.9331V82.9168H76.3873V81.9654H79.6148V82.4742C79.5812 82.8467 79.4881 83.1904 79.3355 83.5043C79.1828 83.8182 78.9783 84.088 78.723 84.3136C78.4667 84.5392 78.17 84.7149 77.8302 84.8435C77.4903 84.9712 77.1217 85.0355 76.7204 85.0355C76.2923 85.0355 75.9025 84.9645 75.5492 84.8224C75.1959 84.6803 74.8907 84.4826 74.6315 84.2301C74.3732 83.9776 74.1726 83.679 74.0315 83.3334C73.8894 82.9888 73.8183 82.6106 73.8183 82.1997C73.8183 81.7946 73.8894 81.4173 74.0315 81.0698C74.1735 80.7222 74.3732 80.4227 74.6315 80.1693C74.8907 79.9168 75.1959 79.719 75.5492 79.577C75.9025 79.4349 76.2923 79.3638 76.7204 79.3638C77.0545 79.3638 77.3665 79.408 77.6593 79.4973C77.9511 79.5866 78.2151 79.7114 78.4513 79.8726C78.6875 80.0339 78.8919 80.2269 79.0638 80.4525C79.2366 80.6781 79.37 80.9296 79.4641 81.207H78.2804L78.2795 81.208ZM72.0663 79.4733H73.1089V82.7594C73.1089 83.1098 73.059 83.4256 72.9591 83.7059C72.8593 83.9862 72.7115 84.2253 72.5175 84.423C72.3227 84.6208 72.0836 84.7715 71.8004 84.8771C71.5172 84.9827 71.1918 85.0355 70.8241 85.0355C70.4516 85.0355 70.1204 84.9827 69.8315 84.8771C69.5425 84.7715 69.3006 84.6198 69.1057 84.423C68.9108 84.2253 68.762 83.9862 68.6593 83.7059C68.5566 83.4246 68.5057 83.1098 68.5057 82.7594V79.4733H69.5732V82.7594C69.5732 83.1654 69.6759 83.4822 69.8814 83.7098C70.0868 83.9382 70.3988 84.0515 70.8155 84.0515C71.2379 84.0515 71.5518 83.9373 71.7572 83.7098C71.9627 83.4822 72.0654 83.1654 72.0654 82.7594V79.4733H72.0663Z" fill="#1A1A1A"/>
<path d="M94.9191 100.055V93.9971H96.9658C97.441 93.9971 97.8294 94.0829 98.1311 94.2545C98.4348 94.424 98.6596 94.6538 98.8055 94.9436C98.9514 95.2335 99.0244 95.5568 99.0244 95.9137C99.0244 96.2706 98.9514 96.595 98.8055 96.8868C98.6616 97.1787 98.4387 97.4113 98.1371 97.5849C97.8354 97.7564 97.4489 97.8422 96.9776 97.8422H95.5106V97.1915H96.954C97.2793 97.1915 97.5406 97.1353 97.7378 97.0229C97.9349 96.9105 98.0779 96.7587 98.1666 96.5674C98.2573 96.3742 98.3027 96.1563 98.3027 95.9137C98.3027 95.6712 98.2573 95.4543 98.1666 95.263C98.0779 95.0718 97.934 94.9219 97.7348 94.8135C97.5356 94.7031 97.2714 94.6478 96.9421 94.6478H95.6526V100.055H94.9191ZM100.454 93.9971L102.253 99.0963H102.324L104.122 93.9971H104.891L102.667 100.055H101.91L99.6854 93.9971H100.454ZM105.503 94.6478V93.9971H110.046V94.6478H108.142V100.055H107.408V94.6478H105.503ZM111.308 100.102C111.162 100.102 111.037 100.05 110.932 99.9451C110.828 99.8406 110.775 99.7154 110.775 99.5695C110.775 99.4236 110.828 99.2984 110.932 99.1939C111.037 99.0894 111.162 99.0371 111.308 99.0371C111.454 99.0371 111.579 99.0894 111.683 99.1939C111.788 99.2984 111.84 99.4236 111.84 99.5695C111.84 99.6661 111.815 99.7548 111.766 99.8357C111.719 99.9165 111.655 99.9816 111.574 100.031C111.495 100.078 111.406 100.102 111.308 100.102ZM115.53 100.055V93.9971H116.263V99.4039H119.079V100.055H115.53ZM119.078 94.6478V93.9971H123.621V94.6478H121.717V100.055H120.983V94.6478H119.078ZM126.623 100.055H124.754V93.9971H126.706C127.293 93.9971 127.796 94.1184 128.214 94.3609C128.632 94.6015 128.952 94.9476 129.175 95.3991C129.398 95.8487 129.51 96.387 129.51 97.014C129.51 97.645 129.397 98.1882 129.172 98.6437C128.948 99.0972 128.62 99.4463 128.19 99.6908C127.761 99.9333 127.238 100.055 126.623 100.055ZM125.487 99.4039H126.575C127.076 99.4039 127.491 99.3072 127.821 99.114C128.15 98.9208 128.395 98.6457 128.557 98.2888C128.719 97.9319 128.8 97.507 128.8 97.014C128.8 96.525 128.72 96.104 128.56 95.7511C128.4 95.3961 128.162 95.124 127.844 94.9347C127.527 94.7435 127.132 94.6478 126.658 94.6478H125.487V99.4039ZM130.772 100.102C130.626 100.102 130.501 100.05 130.396 99.9451C130.292 99.8406 130.239 99.7154 130.239 99.5695C130.239 99.4236 130.292 99.2984 130.396 99.1939C130.501 99.0894 130.626 99.0371 130.772 99.0371C130.918 99.0371 131.043 99.0894 131.147 99.1939C131.252 99.2984 131.304 99.4236 131.304 99.5695C131.304 99.6661 131.279 99.7548 131.23 99.8357C131.183 99.9165 131.119 99.9816 131.038 100.031C130.959 100.078 130.87 100.102 130.772 100.102Z" fill="#1A1A1A"/>
</svg>
